<svg id="Layer_1" data-name="Layer 1" xmlns="http://www.w3.org/2000/svg" viewBox="0 0 1270 74">
  <defs>
    <style>
      .cls-1 {
        fill: #fff;
      }
    </style>
  </defs>
  <title>partners_logo</title>
  <g>
    <path class="cls-1" d="M208.47,40.44h-2.9a1.58,1.58,0,0,1,0-.18c-.05-1-.1-1.91-.15-2.86-.07-1.22-.14-2.43-.21-3.65q-.05-.91-.1-1.82-.1-2-.19-3.95a1.21,1.21,0,0,0,0-.16h-.06v0l0,0v0l0,.07c-.88,4.15-1.9,8.26-2.85,12.39v0l0,0h-3.5l-.74-3.15-.74-3.16c-.25-1.05-.49-2.11-.74-3.16s-.47-2.1-.72-3.14h-.07a1.72,1.72,0,0,0,0,.19c0,.79-.06,1.59-.1,2.38-.06,1.28-.14,2.56-.2,3.83q-.05,1-.1,2-.1,2-.2,3.95c0,.1,0,.2,0,.31h-2.8l.94-15.86h4.66c.87,4,1.81,7.95,2.63,12,.13-.07.11-.17.13-.25.09-.46.17-.92.27-1.38.25-1.19.5-2.38.76-3.58q.71-3.25,1.43-6.5l.06-.27h4.73c0,.18,0,.35,0,.52.05.86.1,1.72.15,2.59.07,1.1.14,2.21.21,3.31,0,.53.06,1.06.1,1.59q.11,1.8.22,3.61c.05.87.1,1.74.15,2.61,0,.46.06.92.09,1.38C208.48,40.25,208.47,40.34,208.47,40.44Z"/>
    <path class="cls-1" d="M230.53,30.2V24.57h2.84c0,.48,0,1,0,1.44s0,1,0,1.45v1.45c.17.05,2.83.07,3.2,0,0-.29,0-.59,0-.89s0-.61,0-.91v-.92h2.84V29c1,0,2,0,3,0a16.76,16.76,0,0,1,0,2.28h-3c0,.1,0,.17,0,.24q0,2.52,0,5a3.18,3.18,0,0,0,.05.59,1.37,1.37,0,0,0,1.28,1.16,5.56,5.56,0,0,0,1.58-.11l.12,0v2.33l-.68.12a6.81,6.81,0,0,1-2.48-.07,3.16,3.16,0,0,1-2.57-2.61,7.18,7.18,0,0,1-.11-1.49q0-2.43,0-4.87c0-.1,0-.19,0-.3h-3.2c0,.09,0,.18,0,.26q0,2.74,0,5.48a3.17,3.17,0,0,0,0,.5.84.84,0,0,0,.82.77,4.26,4.26,0,0,0,.54,0l.18,0a16.32,16.32,0,0,1,0,2.23c-.23,0-.47.08-.71.11a4.58,4.58,0,0,1-1.6-.09,2.47,2.47,0,0,1-1.76-1.54l-.08-.19,0,0c-.09,0-.12.1-.16.16a4.1,4.1,0,0,1-2.19,1.59,5.07,5.07,0,0,1-5.72-2.06,6.22,6.22,0,0,1-1-2.65,7.51,7.51,0,0,1,.24-3.26,5.22,5.22,0,0,1,2.63-3.24,5.15,5.15,0,0,1,2.73-.54,4.19,4.19,0,0,1,2.16.69,9.3,9.3,0,0,1,.78.66l.14.14Zm-5.83,4.59a4.58,4.58,0,0,0,.15,1.25,3.11,3.11,0,0,0,.81,1.5,2.69,2.69,0,0,0,1.75.76,2.81,2.81,0,0,0,2.91-1.66,4.9,4.9,0,0,0,.24-3.2,3.14,3.14,0,0,0-.82-1.52,3,3,0,0,0-4.68.84A4.75,4.75,0,0,0,224.7,34.79Z"/>
    <path class="cls-1" d="M220.52,36.09H212.2a2.36,2.36,0,0,0,.44,1,2.81,2.81,0,0,0,1.48,1,5.15,5.15,0,0,0,1.43.23c.32,0,.64,0,1,0a7.34,7.34,0,0,0,2.1-.43c.41-.15.8-.35,1.2-.53l.24-.13a1.1,1.1,0,0,1,0,.16c0,.66,0,1.32,0,2a.26.26,0,0,1-.17.26,7.77,7.77,0,0,1-3.13,1,9,9,0,0,1-3.79-.37,5.21,5.21,0,0,1-3-2.46,5.61,5.61,0,0,1-.66-2.27,7.46,7.46,0,0,1,.26-2.81,5.26,5.26,0,0,1,3.91-3.83,6.19,6.19,0,0,1,3.62.15,5,5,0,0,1,3.26,3.47,6.7,6.7,0,0,1,.25,2.61C220.6,35.44,220.56,35.74,220.52,36.09Zm-2.59-2.22a3.72,3.72,0,0,0-.33-1.35,2.26,2.26,0,0,0-1.44-1.26,3.67,3.67,0,0,0-1.91-.07,2.48,2.48,0,0,0-1.22.66,3.1,3.1,0,0,0-.88,1.92.39.39,0,0,0,0,.09Z"/>
    <path class="cls-1" d="M256.73,40.69a6.28,6.28,0,0,1-3.12-.72,5.48,5.48,0,0,1-2.75-3.38,6.21,6.21,0,0,1,.32-4.58,5.52,5.52,0,0,1,3.9-3.09,6.45,6.45,0,0,1,3.84.22,5.52,5.52,0,0,1,3.6,4.16,6.13,6.13,0,0,1-.48,4.2,5.93,5.93,0,0,1-5.31,3.18Zm3-6a4.68,4.68,0,0,0-.19-1.37,2.93,2.93,0,0,0-1.2-1.71,3.19,3.19,0,0,0-2.24-.45,2.81,2.81,0,0,0-2.39,1.93,4.57,4.57,0,0,0-.06,3,2.87,2.87,0,0,0,1.48,1.81,3.35,3.35,0,0,0,2.06.28,2.73,2.73,0,0,0,2.14-1.57A4.37,4.37,0,0,0,259.78,34.69Z"/>
    <path class="cls-1" d="M267.09,40.47h-2.83V29h2.69c0,.57,0,1.15,0,1.72H267l.11-.18a3.37,3.37,0,0,1,2.34-1.72,4.3,4.3,0,0,1,4.44,1.61,5.42,5.42,0,0,1,.9,2.28,7.8,7.8,0,0,1,.1,1.31q0,3.1,0,6.21v.22a26.32,26.32,0,0,1-2.83,0c0-.08,0-.17,0-.26q0-2.26,0-4.52c0-.63,0-1.26,0-1.89a3.58,3.58,0,0,0-.28-1.39A2,2,0,0,0,270,31.13a3,3,0,0,0-1.3.11,2.26,2.26,0,0,0-1.51,1.6,3.08,3.08,0,0,0-.14,1.3,1.3,1.3,0,0,1,0,.16q0,3,0,5.93Z"/>
    <path class="cls-1" d="M291,32l-.61-.3a5.1,5.1,0,0,0-2.65-.48,3,3,0,0,0-2.87,2.54,4.32,4.32,0,0,0,.19,2.57,2.92,2.92,0,0,0,2.32,1.86,5,5,0,0,0,3.35-.59l.24-.13a1,1,0,0,1,0,.16c0,.73,0,1.47,0,2.2a.25.25,0,0,1-.16.26,6.14,6.14,0,0,1-1.88.57,6.65,6.65,0,0,1-3.27-.3A5.54,5.54,0,0,1,282,36.21a6.16,6.16,0,0,1,.44-4.25,5.52,5.52,0,0,1,3.94-3.07,6.81,6.81,0,0,1,4.14.35c.44.18.44.18.44.65s0,1.21,0,1.82Z"/>
    <path class="cls-1" d="M246.61,40.44h-2.83V29a26.33,26.33,0,0,1,2.7,0v2h.05l.1-.19a3.83,3.83,0,0,1,.71-1.1,2.65,2.65,0,0,1,2.06-.84,2.81,2.81,0,0,1,1,.17v2.64c-.23,0-.44-.09-.65-.11a3.17,3.17,0,0,0-2,.38,2.3,2.3,0,0,0-1.09,1.68,7.13,7.13,0,0,0-.11,1.17c0,1.8,0,3.59,0,5.39C246.61,40.24,246.61,40.33,246.61,40.44Z"/>
    <path class="cls-1" d="M276.82,29h2.81c0,.09,0,.18,0,.27q0,3.83,0,7.66a4.44,4.44,0,0,0,0,.57.91.91,0,0,0,.82.82,3.62,3.62,0,0,0,.88,0l.15,0v2.21c-.24,0-.47.08-.71.1a5.32,5.32,0,0,1-1.87-.11,2.65,2.65,0,0,1-2.06-2.3,5.86,5.86,0,0,1-.07-1q0-4,0-7.93C276.81,29.18,276.82,29.08,276.82,29Z"/>
    <path class="cls-1" d="M280,26.1a1.68,1.68,0,1,1-3.35,0,1.68,1.68,0,0,1,3.35,0Z"/>
  </g>
  <g>
    <path class="cls-1" d="M333.47,24.15a4.78,4.78,0,0,0-3.15.83,3.59,3.59,0,0,0-1,5.27,5.76,5.76,0,0,0,2.9,2.2A2.72,2.72,0,0,1,334,35.39a2.78,2.78,0,0,1-2.07,2.4,4,4,0,0,1-1.15.08,5.63,5.63,0,0,0-3.1.67,3.72,3.72,0,0,0-1,5.9,6,6,0,0,0,2.62,1.73A2.79,2.79,0,0,1,331,49.73a2.8,2.8,0,0,1-5.45-1.12A5.06,5.06,0,0,0,322,43.18a2.87,2.87,0,0,1-1.9-3.15,2.82,2.82,0,0,1,3.1-2.37,5.3,5.3,0,0,0,3.62-.94,3.56,3.56,0,0,0,1-4.94A5.29,5.29,0,0,0,325,29.46,2.85,2.85,0,0,1,323.09,26a2.78,2.78,0,0,1,2.71-2.11,6.29,6.29,0,0,0,2.62-.29,4.9,4.9,0,0,0,2.89-3,3.15,3.15,0,0,1,1.32-1.76,2.82,2.82,0,1,1,1.46,5.24Z"/>
    <path class="cls-1" d="M333.19,39.71a5.11,5.11,0,0,0,3.27-.9,3.62,3.62,0,0,0,1-5.17,5.44,5.44,0,0,0-2.73-2.16,2.81,2.81,0,0,1-1.93-3.36A2.89,2.89,0,0,1,336,26a5.19,5.19,0,0,0,3.57-1,3.6,3.6,0,0,0,1-4.83,5.3,5.3,0,0,0-3-2.43,2.82,2.82,0,0,1-.23-5.3,2.83,2.83,0,0,1,3.88,3A4.93,4.93,0,0,0,342.29,19a5.32,5.32,0,0,0,2.46,1.68,2.86,2.86,0,0,1,1.65,3.74,2.81,2.81,0,0,1-2.85,1.75,5.67,5.67,0,0,0-2.91.46,3.81,3.81,0,0,0-1,6.47,6.81,6.81,0,0,0,2.3,1.36,2.65,2.65,0,0,1,1.76,2.43,2.8,2.8,0,0,1-3,3,5.08,5.08,0,0,0-4,1.31,5.61,5.61,0,0,0-1.41,2.26,2.72,2.72,0,0,1-2.62,1.84,2.82,2.82,0,1,1,.16-5.63Z"/>
    <path class="cls-1" d="M351.15,24.24c2.71,0,5.37,0,8,0a3,3,0,0,1,.9.2,3.22,3.22,0,0,1,2.49,3.1,3.63,3.63,0,0,1-2.09,3.61,15.87,15.87,0,0,1-1.68.66l.21.07a3.13,3.13,0,0,1,2.35,4.22,4.65,4.65,0,0,1-3.55,3.32,9.57,9.57,0,0,1-2.34.36c-2.35.08-4.7.09-7,.13h-.5Zm1.56,12.66a7.93,7.93,0,0,0,3.49-.43,2.18,2.18,0,0,0,.64-.48,1.73,1.73,0,0,0,.33-1.81,1.25,1.25,0,0,0-1.19-.82c-.76-.08-1.53-.09-2.29-.1-.09,0-.25.17-.27.29-.18.78-.34,1.57-.5,2.36Zm1.38-6.57c.76,0,1.48,0,2.2,0a2.48,2.48,0,0,0,1.58-.63,1.45,1.45,0,0,0,.45-1.43,1.09,1.09,0,0,0-1-.91c-.87-.11-1.75-.15-2.62-.21l-.6,2.9C354.11,30.13,354.11,30.22,354.09,30.33Z"/>
    <path class="cls-1" d="M375.58,40.27a20.67,20.67,0,0,1-2.45-.43A4.56,4.56,0,0,1,369.66,36a6.73,6.73,0,0,1,1.56-5.78,7.11,7.11,0,0,1,4.72-2.25,8.83,8.83,0,0,1,3.35.21,4.92,4.92,0,0,1,3.9,4.89,7.73,7.73,0,0,1-.67,3.53,6,6,0,0,1-4.45,3.36C377.28,40.1,376.48,40.15,375.58,40.27Zm3.37-7c0-.19,0-.38,0-.56a2,2,0,0,0-2.49-1.89,2.8,2.8,0,0,0-1.68,1,4.52,4.52,0,0,0-1,3.43,2.11,2.11,0,0,0,1.8,2,2.7,2.7,0,0,0,2.77-1.47A5.25,5.25,0,0,0,379,33.26Z"/>
    <path class="cls-1" d="M400.55,40.25a20.31,20.31,0,0,1-2.24-.36,4.59,4.59,0,0,1-3.66-4.15,6.6,6.6,0,0,1,2.22-6.16,7.18,7.18,0,0,1,3.76-1.6,8.22,8.22,0,0,1,4.47.44,4.76,4.76,0,0,1,3.09,4.46,7.76,7.76,0,0,1-.57,3.5A6.14,6.14,0,0,1,402.69,40C402,40.14,401.36,40.16,400.55,40.25ZM404,33.42c0-.29,0-.59-.06-.88a1.93,1.93,0,0,0-2-1.77,2.51,2.51,0,0,0-1.51.48A4.33,4.33,0,0,0,399,36a2,2,0,0,0,1.43,1.3,2.71,2.71,0,0,0,2.78-1.13A5.29,5.29,0,0,0,404,33.42Z"/>
    <path class="cls-1" d="M416.72,39.93c.22-1.07.43-2.08.63-3.09.24-1.21.5-2.42.71-3.63.25-1.42-.59-2.18-2-1.86a2.56,2.56,0,0,0-1.89,1.56,19,19,0,0,0-.79,2.73c-.33,1.41-.61,2.83-.92,4.27H408.4l2.39-11.78h3.68L414.19,30c.34-.31.64-.61,1-.88A5.16,5.16,0,0,1,419.56,28a3.57,3.57,0,0,1,2.76,3.48,16.83,16.83,0,0,1-.52,4.1q-.38,2-.8,4c0,.13-.18.34-.27.34C419.42,39.94,418.11,39.93,416.72,39.93Z"/>
    <path class="cls-1" d="M393.51,36.68c-.2,1-.37,2-.56,2.92a.33.33,0,0,1-.21.19,8.69,8.69,0,0,1-5.83-.15A4.83,4.83,0,0,1,384,35.3,6.82,6.82,0,0,1,389.83,28a10,10,0,0,1,5.17.58,1.28,1.28,0,0,1,.17.1l-.86,2.8-.65-.21A5.08,5.08,0,0,0,391,31a3.34,3.34,0,0,0-2.84,3.48,2.51,2.51,0,0,0,2.39,2.71,5.85,5.85,0,0,0,2.46-.3Z"/>
    <path class="cls-1" d="M366.64,39.91h-4.13l2.43-11.77h4.13Z"/>
    <path class="cls-1" d="M370.09,23.28c-.19,1-.37,1.86-.57,2.76a.35.35,0,0,1-.25.22c-1.27,0-2.55,0-3.91,0l.62-3Z"/>
  </g>
  <g>
    <path class="cls-1" d="M834,40.08a24.5,24.5,0,0,1-3.32,0,2.37,2.37,0,0,1-1.26-1c-2.75-3.72-5.46-7.46-8.19-11.2a2.21,2.21,0,0,0-.73-.69V40H818.1V21.85a30.48,30.48,0,0,1,3.44,0,2.16,2.16,0,0,1,1.22.91c2.78,3.8,5.52,7.62,8.27,11.44a1.49,1.49,0,0,0,.62.55V21.89H834Z"/>
    <path class="cls-1" d="M869.81,28.91v-7h3.8V40h-3.78V31.44h-8.46V40h-3.75V21.9h3.71c0,.92,0,1.82,0,2.72,0,1.23,0,2.46,0,3.69,0,.2.27.57.42.57C864.41,28.92,867.05,28.91,869.81,28.91Z"/>
    <path class="cls-1" d="M850,21.89h3.83v.82q0,5.46,0,10.92a6.56,6.56,0,0,1-6.11,6.9,12.05,12.05,0,0,1-5.78-.47,6.09,6.09,0,0,1-4.18-5.94q0-5.74,0-11.48c0-.23,0-.47,0-.74h3.72v.89c0,3.69,0,7.39,0,11.08,0,3.25,2,5,5.44,4.36a3.67,3.67,0,0,0,3-3.79q0-5.82,0-11.64Z"/>
    <path class="cls-1" d="M802.91,44.84c0,1.72,0,3.34,0,5a5.87,5.87,0,0,1-4.32,5.7,12,12,0,0,1-1.24.2V39.78h16.1a5.11,5.11,0,0,1-3.4,4.6,17.23,17.23,0,0,1-5.73.46Z"/>
    <path class="cls-1" d="M780.29,39.74h16V55.57a5,5,0,0,1-4.53-3.5,25,25,0,0,1-.52-4.35c-.07-.93,0-1.86,0-2.91h-1.54c-1.42,0-2.84,0-4.25,0A5.44,5.44,0,0,1,780.29,39.74Z"/>
    <path class="cls-1" d="M780.2,38.85a5.08,5.08,0,0,1,4.92-5c3.71-.13,7.42,0,11.2,0v5.06Z"/>
    <path class="cls-1" d="M797.34,38.86v-5c.25,0,.46-.06.66-.06,3.4,0,6.8,0,10.2,0a5.11,5.11,0,0,1,5.27,5.07Z"/>
    <path class="cls-1" d="M797.34,21.89A5.55,5.55,0,0,1,802,25.37a5.1,5.1,0,0,1-1,5.55,4.86,4.86,0,0,1-3.15,1.82c-.16,0-.5-.22-.51-.34C797.34,28.94,797.34,25.47,797.34,21.89Z"/>
    <path class="cls-1" d="M796.34,32.78a5.63,5.63,0,0,1-5-5.19,5.58,5.58,0,0,1,5-5.67Z"/>
    <path class="cls-1" d="M818.54,44.15l.22,0h.59l1.89,3.44a4.24,4.24,0,0,0,.07-1.15c0-.37,0-.74,0-1.12V44.16h.6v4.31a3.92,3.92,0,0,1-.64,0,.45.45,0,0,1-.26-.22c-.33-.57-.64-1.16-1-1.74l-.68-1.23a.53.53,0,0,0-.25-.24v3.42h-.59Z"/>
    <path class="cls-1" d="M821.85,56h-.54V54.05c-.72,0-1.4,0-2.13,0v2h-.59v-4.3l.24,0h.29c.1.58,0,1.17.06,1.74a7.81,7.81,0,0,0,2.1,0V51.7h.57Z"/>
    <path class="cls-1" d="M845.18,44.14h.55c0,.13,0,.25,0,.37,0,.65,0,1.29,0,1.94a3.75,3.75,0,0,0,.06.74,1,1,0,0,0,1.1.84.93.93,0,0,0,.94-.77,3.39,3.39,0,0,0,.08-.7c0-.66,0-1.32,0-2,0-.13,0-.27,0-.43h.53a2.8,2.8,0,0,1,0,.32c0,.76,0,1.51,0,2.27,0,.07,0,.14,0,.21a1.61,1.61,0,0,1-2.06,1.59,1.43,1.43,0,0,1-1.23-1.18,2.4,2.4,0,0,1-.07-.53c0-.83,0-1.65,0-2.48A2,2,0,0,1,845.18,44.14Z"/>
    <path class="cls-1" d="M829.71,52.87l.05.33a.53.53,0,0,0,.15-.06,1.34,1.34,0,0,1,1-.35,1.29,1.29,0,0,1,1.28,1.12,2.39,2.39,0,0,1-.08,1.3,1.33,1.33,0,0,1-2.09.63l-.22-.16v1.64h-.55V52.87Zm0,1.55a5.16,5.16,0,0,0,.2.7.81.81,0,0,0,.78.51.8.8,0,0,0,.76-.53,1.65,1.65,0,0,0,0-1.32.83.83,0,0,0-1.52-.12A4.93,4.93,0,0,0,829.73,54.42Z"/>
    <path class="cls-1" d="M839,54.07c.05-.52-.11-.75-.56-.83a1.68,1.68,0,0,0-1,.22c-.17-.32-.15-.39.14-.52a2,2,0,0,1,1.29-.11.91.91,0,0,1,.73.8,6.64,6.64,0,0,1,.05.86c0,.49,0,1,0,1.5h-.47l-.09-.3a1.47,1.47,0,0,1-1.23.39.92.92,0,0,1-.89-1.07.87.87,0,0,1,.49-.72,2.08,2.08,0,0,1,1-.23Zm0,.46a2.12,2.12,0,0,0-1,.08c-.31.12-.45.33-.41.59a.58.58,0,0,0,.61.45A.82.82,0,0,0,839,54.53Z"/>
    <path class="cls-1" d="M823.2,45.94c-.1-.4-.1-.43.21-.55a2,2,0,0,1,1.09-.13,1,1,0,0,1,.92,1c0,.51,0,1,0,1.53,0,.22,0,.43,0,.68l-.44,0-.1-.33a1.45,1.45,0,0,1-1.36.37.89.89,0,0,1-.76-1,.86.86,0,0,1,.46-.73,2,2,0,0,1,1-.25h.61c0-.54-.15-.8-.61-.83a2.77,2.77,0,0,0-.72.11A1.7,1.7,0,0,0,823.2,45.94Zm1.63,1a2,2,0,0,0-1.07.09.54.54,0,0,0-.39.56.59.59,0,0,0,.59.47C824.59,48.13,824.93,47.71,824.84,47Z"/>
    <path class="cls-1" d="M840.06,46.53c0-.54-.16-.81-.62-.83a2.81,2.81,0,0,0-.72.12,2.1,2.1,0,0,0-.33.13l0-.41a1.87,1.87,0,0,1,1.74-.17.84.84,0,0,1,.54.77c0,.77,0,1.54,0,2.33h-.43l-.08-.29a1.1,1.1,0,0,0-.17.09,1.37,1.37,0,0,1-1.33.22.83.83,0,0,1-.63-.73.89.89,0,0,1,.39-.93,1.86,1.86,0,0,1,1-.29Zm0,.47a1.74,1.74,0,0,0-1.07.07.53.53,0,0,0-.41.59.59.59,0,0,0,.57.45C839.79,48.14,840.13,47.73,840.07,47Z"/>
    <path class="cls-1" d="M822.77,54.39a1.62,1.62,0,1,1,3.23.09,1.62,1.62,0,1,1-3.23-.09Zm2.66.07a5.19,5.19,0,0,0-.2-.66.9.9,0,0,0-.84-.56.92.92,0,0,0-.86.54,1.39,1.39,0,0,0,0,1.41.93.93,0,0,0,1.6,0A3.74,3.74,0,0,0,825.44,54.45Z"/>
    <path class="cls-1" d="M832,48.56a1.6,1.6,0,0,1-1.6-1.69,1.62,1.62,0,1,1,3.24,0A1.61,1.61,0,0,1,832,48.56Zm.83-2.38a.91.91,0,0,0-1.62,0,1.37,1.37,0,0,0,0,1.49.93.93,0,0,0,1.63,0A3,3,0,0,0,832.79,46.18Z"/>
    <path class="cls-1" d="M860.94,47h-2.26c0,1,.72,1.28,2,.85v.49a2.17,2.17,0,0,1-1.71.07,1.34,1.34,0,0,1-.45-.29,1.93,1.93,0,0,1,0-2.52,1.48,1.48,0,0,1,1.5-.32,1.19,1.19,0,0,1,.85,1C860.89,46.53,860.9,46.74,860.94,47Zm-2.26-.44h1.58a.77.77,0,0,0-.7-.9C859.08,45.64,858.72,46,858.68,46.58Z"/>
    <path class="cls-1" d="M872.61,45.32h.54c0,.16-.08.29-.13.42-.36,1-.72,2-1.08,3a3.7,3.7,0,0,1-.29.64,1,1,0,0,1-1.2.45s0,0,0-.07,0-.19,0-.29a.5.5,0,0,1,.12,0,.78.78,0,0,0,.74-1.14l-.93-2.56-.13-.39h.61l.82,2.48h.09C872.07,47,872.29,46.14,872.61,45.32Z"/>
    <path class="cls-1" d="M834.95,48.47h-.53V45.32l.48,0,.08.36a.63.63,0,0,0,.14-.07,1.28,1.28,0,0,1,1.1-.34,1,1,0,0,1,.92.86,15,15,0,0,1,0,2.36h-.51a2.87,2.87,0,0,1,0-.31c0-.47,0-.94,0-1.41a2.52,2.52,0,0,0,0-.41.7.7,0,0,0-.55-.64.86.86,0,0,0-.86.38,1.71,1.71,0,0,0-.24.95C834.95,47.49,834.95,48,834.95,48.47Z"/>
    <path class="cls-1" d="M852.37,48.47h-.49a2.86,2.86,0,0,1,0-.31c0-.45,0-.91,0-1.36a3.38,3.38,0,0,0,0-.49.65.65,0,0,0-.54-.6.81.81,0,0,0-.81.31,1.38,1.38,0,0,0-.28.85c0,.41,0,.83,0,1.24,0,.11,0,.22,0,.36h-.51V45.32l.47,0,.09.34s.08,0,.1,0a1.33,1.33,0,0,1,1.26-.35,1,1,0,0,1,.75.64.7.7,0,0,1,.07.24C852.38,46.91,852.37,47.68,852.37,48.47Z"/>
    <path class="cls-1" d="M856.26,47.79l.85-2.46h.56l-1.12,3.14h-.7l-1.13-3.14h.62l.83,2.47Z"/>
    <path class="cls-1" d="M867.83,45.73v-.4l.32,0,.33,0,0-.72.54-.17,0,.88.81,0v.41l-.81,0c0,.64,0,1.26,0,1.88a.45.45,0,0,0,.5.44,3.34,3.34,0,0,0,.33,0l0,.38a1.18,1.18,0,0,1-.83.06.71.71,0,0,1-.58-.62,4.68,4.68,0,0,1,0-.62c0-.49,0-1,0-1.5Z"/>
    <path class="cls-1" d="M828.16,48.07v.36s-.07.06-.1.07a2.53,2.53,0,0,1-.49.06.81.81,0,0,1-.86-.86c0-.48,0-1,0-1.45,0-.15,0-.3,0-.47l-.68-.05v-.41l.66,0,0-.7.53-.18,0,.87.81.05,0,.41-.83,0c0,.23,0,.45,0,.67s0,.66,0,1c0,.53.2.69.71.65Z"/>
    <path class="cls-1" d="M865.66,45.37l0,.42c-.16,0-.29-.07-.42-.08a1.22,1.22,0,0,0-.37,0,.4.4,0,0,0-.15.77c.19.11.39.2.59.3a.86.86,0,0,1,.53,1,.93.93,0,0,1-.76.78,1.78,1.78,0,0,1-1.19-.15l0-.44a2.19,2.19,0,0,0,.44.13,1.58,1.58,0,0,0,.61,0,.39.39,0,0,0,.1-.71c-.22-.16-.48-.27-.72-.41a.79.79,0,0,1-.47-.72.88.88,0,0,1,.69-.91A1.74,1.74,0,0,1,865.66,45.37Z"/>
    <path class="cls-1" d="M826.55,55.94v-.44a2.82,2.82,0,0,0,.33.08,3.16,3.16,0,0,0,.61,0,.41.41,0,0,0,.38-.33.4.4,0,0,0-.21-.45c-.24-.14-.49-.26-.72-.4a.76.76,0,0,1-.42-.75.84.84,0,0,1,.58-.82,1.71,1.71,0,0,1,1.23,0l0,.43c-.16,0-.29-.07-.43-.08a1.49,1.49,0,0,0-.37,0,.4.4,0,0,0-.38.32.42.42,0,0,0,.25.44c.19.11.39.2.59.3a.87.87,0,0,1,.53.94.89.89,0,0,1-.72.8A1.7,1.7,0,0,1,826.55,55.94Z"/>
    <path class="cls-1" d="M836.42,52.87l0,.41-.78,0a2.47,2.47,0,0,0,0,.32c0,.44,0,.88,0,1.32s.16.71.76.67l.08,0c.07.39,0,.44-.32.46a1.8,1.8,0,0,1-.37,0,.77.77,0,0,1-.71-.82c0-.49,0-1,0-1.49,0-.15,0-.3,0-.46l-.67,0,0-.4.69-.07,0-.7.55-.17v.88Z"/>
    <path class="cls-1" d="M842.28,48.46l-.21,0-.3,0V43.82l.25,0,.26,0Z"/>
    <path class="cls-1" d="M840.72,51.35h.46a39.44,39.44,0,0,1,0,4.65h-.43A40.09,40.09,0,0,1,840.72,51.35Z"/>
    <path class="cls-1" d="M862.29,45.69a1,1,0,0,1,1.16-.39v.4s-.09,0-.12,0a.86.86,0,0,0-1,.82,8.26,8.26,0,0,0-.07,1c0,.29,0,.57,0,.88h-.53V45.33l.47,0Z"/>
    <path class="cls-1" d="M854.06,48.46l-.28,0-.26,0V45.33H854C854.07,46.37,854,47.4,854.06,48.46Z"/>
    <path class="cls-1" d="M866.6,45.32h.54v3.13l-.18,0h-.33C866.57,47.43,866.61,46.4,866.6,45.32Z"/>
    <path class="cls-1" d="M829.47,45.34v3.13h-.53c0-1,0-2.07,0-3.13Z"/>
    <path class="cls-1" d="M833.62,56h-.52V52.87h.52Z"/>
    <path class="cls-1" d="M866.6,44h.59v.6h-.59Z"/>
    <path class="cls-1" d="M833.09,51.5h.58v.59h-.58Z"/>
    <path class="cls-1" d="M828.93,44.54v-.59h.58v.59Z"/>
    <path class="cls-1" d="M854.07,44v.59h-.6V44Z"/>
  </g>
  <g>
    <path class="cls-1" d="M1148,42.64h118.54c-.45.39-.61.65-.82.7a5.57,5.57,0,0,1-1.18,0h-114.9a17.2,17.2,0,0,1-1.72-.17Z"/>
    <g>
      <path class="cls-1" d="M1119.4,20.07a16.1,16.1,0,1,0,15.92,16.51A16.11,16.11,0,0,0,1119.4,20.07Zm8.92,20.27c-.92.37-1.49.06-1.51-1,0-1.42.07-2.85.13-4.27a37.24,37.24,0,0,0,.14-3.79c-.12-2-1.71-2.7-3.24-1.46a13.12,13.12,0,0,0-2.21,2.46c-1.21,1.65-2.34,3.35-3.51,5l-.37,0c0-1.2,0-2.41,0-3.61a18.22,18.22,0,0,0-.16-3.19c-.27-1.34-1.15-1.66-2.14-.73a36.56,36.56,0,0,0-2.92,3.41c-.26.32-.48.67-.72,1l-.34-.17,1.52-4.3c.05-.15.12-.3.16-.45.19-.72.9-1.5,0-2.13-.61-.42-2.32.49-2.59,1.41-.55,1.9-1.05,3.81-1.45,5.75-.37,1.78-.61,3.59-.82,5.4a3.61,3.61,0,0,0,.38,1.31c.38-.3.87-.52,1.11-.91,1.23-2,2.33-4.13,3.59-6.15a34.63,34.63,0,0,1,2.35-3l.43.18c.06.47.15.95.18,1.42.12,2.29.19,4.59.37,6.87,0,.44.44.85.67,1.27a5.94,5.94,0,0,0,1.06-1c1.47-2.35,2.84-4.75,4.35-7.07a7.72,7.72,0,0,1,1.75-1.46,13.66,13.66,0,0,1,.46,2.19c0,.94-.13,1.9-.13,2.85a26.14,26.14,0,0,0,.13,3.91c.26,1.76,1.43,2.33,3,1.6a11.18,11.18,0,0,0,1.82-1.11,12.06,12.06,0,0,1,1.87-1.25c-.2.63-.36,1.28-.62,1.88a12.87,12.87,0,0,1-14.71,7.53,12.91,12.91,0,0,1,2.37-25.49c6.3-.44,12.21,4.46,13.2,10.94A5.57,5.57,0,0,1,1128.31,40.34Z"/>
      <path class="cls-1" d="M1201.54,37.48a6.87,6.87,0,0,0,2-6.18,1.51,1.51,0,0,0-1.17-.89,1.92,1.92,0,0,0-1.34.87c-.17.28.19.88.34,1.33s.56,1,.41,1.28a17,17,0,0,1-2,3.24c-.31.37-1.46.6-1.63.4a2.63,2.63,0,0,1-.53-1.88,8.56,8.56,0,0,1,2.73-4.76c.28-.27.53-.58.79-.88a1.65,1.65,0,0,0-1.16-.21,5.89,5.89,0,0,0-4.62,6.52c.12.85-.23,1.17-.87,1.17a5.27,5.27,0,0,1-2.69-.35c-.9-.57-.54-1.71-.26-2.63.08-.26.16-.53.26-.78.74-1.83,1.51-3.66,2.23-5.5a21.34,21.34,0,0,0,1.26-3.69c.36-1.94-1.09-3.09-2.91-2.33a6.69,6.69,0,0,0-2.31,1.6c-1.41,1.55-2.69,3.22-4,4.84l-.53.63c.29-1.25.77-2.37,1.06-3.55s.72-2.44-.51-3.39c-.83-.63-2.21-.47-3.42.8-1.51,1.59-2.75,3.44-4.11,5.18-.19.24-.35.51-.52.76.1-1.25.4-2.39.56-3.55a3,3,0,0,0-3.79-3.54,6.07,6.07,0,0,0-4.75,5.68,4.91,4.91,0,0,0,.65,2.54c.51.87,1.24.76,2-.12-1.29-1.57-.94-3.16.1-4.68.57-.84,1.36-1.61,2.47-1.23s1.1,1.51,1,2.52a3.41,3.41,0,0,1-.15.82c-1.09,3.22-2.21,6.43-3.28,9.66a6.5,6.5,0,0,0-.14,1.47,9.56,9.56,0,0,0,2.26-.17c.3-.09.44-.79.6-1.23a35.93,35.93,0,0,1,6.16-11.29,5.76,5.76,0,0,1,1.5-1.32c.86-.5,1.52,0,1.38,1a8.63,8.63,0,0,1-.57,2c-1.46,3.59-3,7.17-4.46,10.81,1.57,1,2.59.61,3.35-.91,1.55-3.07,3.07-6.16,4.84-9.09a21.55,21.55,0,0,1,3.43-3.75,1.1,1.1,0,0,1,1-.18,1.16,1.16,0,0,1,.24,1c-.26.87-.65,1.69-1,2.54-.89,2.32-1.89,4.61-2.62,7-.68,2.21.44,3.69,2.76,3.77a26.8,26.8,0,0,0,3.75-.39,2.79,2.79,0,0,1,1.23,0A4.14,4.14,0,0,0,1201.54,37.48Z"/>
      <path class="cls-1" d="M1236.24,30a14.16,14.16,0,0,0-2.84,1.88,17.74,17.74,0,0,0-1.79,2l-.17-.1,1.57-3.88c-1.88-.49-2.24-.25-2.72,1.34s-1,3.07-1.64,4.57a3,3,0,0,1-2.62,1.95c-1.31.14-1.94-.55-1.46-1.75.65-1.61,1.41-3.18,2.08-4.79a6.64,6.64,0,0,0,.27-1.27,8.26,8.26,0,0,0-1.72-.2c-.25,0-.47.45-.71.7l0-.35a16.63,16.63,0,0,0-3.46,0,7,7,0,0,0-5.12,6c-.06.66-.06,1.34-.92,1.38a17.18,17.18,0,0,1-2-.14,8.51,8.51,0,0,1,.21-1.88c.42-1.23,1.06-2.39,1.43-3.64a2.06,2.06,0,0,0-.27-1.71,1.68,1.68,0,0,0-1.62-.13c-1.38.88-2.66,1.93-4,2.93a5.27,5.27,0,0,0-.58.61l-.19-.12,3.83-8.95c-1.82-.53-2.53-.19-3.1,1.38-1.1,3.05-2.18,6.11-3.29,9.16A4,4,0,0,1,1203,37.7c-.33.12-.54.57-.81.86l.27.36,1.68-.58c.41.24.67.5,1,.53.9.09,1.38-.46,1.84-1.2,1.15-1.83,2.4-3.6,3.68-5.34.22-.3.81-.34,1.23-.5a4.13,4.13,0,0,1-.06,1.29c-.38,1-.9,1.94-1.31,2.92-.57,1.34,0,2.46,1.4,2.62a25.74,25.74,0,0,0,3.76-.13,2.72,2.72,0,0,1,1.12,0,3.56,3.56,0,0,0,4.06-.76c.61-.54,1.12-1.19,1.82-1.94,0,.36-.06.53-.09.7-.32,1.6,0,2.17,1.68,2.21a30.4,30.4,0,0,0,3.65-.31,3.33,3.33,0,0,0,1,.4c1,0,1.44-.64,1.78-1.46a12.24,12.24,0,0,1,3.88-5.31c.26-.19.7-.15,1.05-.22a3.32,3.32,0,0,1-.07,1c-.43,1.1-1,2.17-1.39,3.28-.56,1.46-.07,2.3,1.45,2.57.35.06.71.08,1.06.12.71.08,1-.22,1-.93-1.48-.65-1.57-.84-1-2.32.51-1.24,1.12-2.45,1.53-3.73a2,2,0,0,0-.23-1.69A1.88,1.88,0,0,0,1236.24,30Zm-15.91,6.83c-.48.34-1.28.21-1.94.29,0-.63-.22-1.41.07-1.86a18.42,18.42,0,0,1,2.7-3.38,2.16,2.16,0,0,1,2.9-.17A11.42,11.42,0,0,1,1220.33,36.84Z"/>
      <path class="cls-1" d="M1155,36.58a11.88,11.88,0,0,0,2-7.56,5.16,5.16,0,0,0-1.7-3.68,7.87,7.87,0,0,1-1-1.36l.13-.44c-.36.09-.9.07-1,.3-.54.88-1.4.73-2.19.85a5.42,5.42,0,0,0-1.15.27c-3.16,1.21-6.32,6-6.15,9.33,0,.43.5.83.77,1.24.23-.38.61-.73.67-1.13a10.92,10.92,0,0,1,4-7.32,14.84,14.84,0,0,1,2.6-1.28c-1.21,3.52-2.33,6.67-3.36,9.86-.37,1.13-.75,2-2.17,1.58a.88.88,0,0,0-.69.11,11.11,11.11,0,0,0-1,1c.36.32.7.88,1.07.91a8.77,8.77,0,0,0,2-.37,4.37,4.37,0,0,1,1.62-.2A4.8,4.8,0,0,0,1155,36.58Zm-5.43.64,4-11a1.73,1.73,0,0,1,1.63,1.63,11.74,11.74,0,0,1-2.35,8.47A2.82,2.82,0,0,1,1149.57,37.22Z"/>
      <path class="cls-1" d="M1244.23,38.85a5.57,5.57,0,0,0,1.42,0l3.13,0h1l.25-.94-1.43-.4c1.8-2.33,1.21-4.3-.68-6.13.36-.47.79-.8.83-1.17a2.27,2.27,0,0,0-.39-1.32,4,4,0,0,0-2,.56c-.35.27-.28,1.09-.38,1.66,0,.27.07.62-.07.81-1.52,2.18-3.08,4.33-5.48,5.67-.37.2-.6.65-.89,1l.18.42C1241.19,37.8,1242.7,38.45,1244.23,38.85Zm2.4-5.83c1.19.88.47,3.72-.63,4.29-.74.39-.83.39-2.22-.79Z"/>
      <path class="cls-1" d="M1162.2,36l.06-.1c.74-1.23.65-1.43-.67-2-.42-.17-1-.53-1.07-.86-.1-.85-.6-.86-1.16-.76a.85.85,0,0,0-.73,1.21,1.33,1.33,0,0,1-.08.87c-.78,1.57-1.65,3.08-3.48,3.67-.16.05-.25.29-.49.58a3.65,3.65,0,0,0,3-1.28c.67-.77,1.17-1.69,1.82-2.47.2-.24.67-.26,1-.38.05.36.24.76.14,1.06-.21.59-.64,1.09-.86,1.67a1.18,1.18,0,0,0,.14,1c.46.63,2.14.68,2.87.15C1161.24,37.61,1161.24,37.61,1162.2,36Z"/>
      <path class="cls-1" d="M1246,23.91c-2-.49-2.91.77-2.59,3.57A5.53,5.53,0,0,0,1246,23.91Z"/>
      <path class="cls-1" d="M1166.18,39.08c.28-.47.77-.94.78-1.42s-.79-1-1-1a2.12,2.12,0,0,0-1.17,1.16c-.09.32.52.82.81,1.24Z"/>
      <path class="cls-1" d="M1148.49,47.46a1.74,1.74,0,0,0-.65-.42,2.72,2.72,0,0,0-1-.15h-1a.24.24,0,0,0-.15.05.21.21,0,0,0-.07.18V51a.22.22,0,0,0,.07.18.24.24,0,0,0,.15.05h.92a3,3,0,0,0,1-.14,1.74,1.74,0,0,0,.68-.41,1.79,1.79,0,0,0,.42-.7,3,3,0,0,0,.14-1,2.65,2.65,0,0,0-.14-.88A1.79,1.79,0,0,0,1148.49,47.46Zm-.17,2.33a1.38,1.38,0,0,1-.29.54,1.15,1.15,0,0,1-.48.32,2.06,2.06,0,0,1-.7.1h-.59V47.37h.59a1.85,1.85,0,0,1,.73.12,1.26,1.26,0,0,1,.47.34,1.41,1.41,0,0,1,.27.52,2.37,2.37,0,0,1,.09.65A2.72,2.72,0,0,1,1148.32,49.78Z"/>
      <path class="cls-1" d="M1151.11,46.9l-.09,0h-.27l-.09,0-.05,0a.08.08,0,0,0,0,0v4.16a.08.08,0,0,0,0,0l0,0,.09,0h.28l.09,0,0,0a.08.08,0,0,0,0,0V47a.08.08,0,0,0,0,0Z"/>
      <path class="cls-1" d="M1154.8,47l0-.06-.07,0-.11,0h-.34l-.11,0-.06,0,0,.06-1.45,4a.41.41,0,0,0,0,.12.09.09,0,0,0,0,.07l.09,0h.31l.09,0,0,0,0-.05.35-1h1.8l.37,1.05,0,.05,0,0,.09,0h.33l.09,0a.08.08,0,0,0,0-.07.42.42,0,0,0,0-.12Zm-1.16,2.63.75-2.16h0l.76,2.16Z"/>
      <path class="cls-1" d="M1160.27,49.26A1,1,0,0,0,1160,49a1,1,0,0,0-.33-.12,1,1,0,0,0,.25-.15.89.89,0,0,0,.18-.21,1,1,0,0,0,.11-.26,1.16,1.16,0,0,0,0-.29,1.21,1.21,0,0,0-.08-.46.88.88,0,0,0-.25-.34,1.13,1.13,0,0,0-.41-.21,2.29,2.29,0,0,0-.64-.07h-1a.24.24,0,0,0-.15.05.22.22,0,0,0-.07.18V51a.22.22,0,0,0,.07.18.24.24,0,0,0,.15.05H1159a2.39,2.39,0,0,0,.43,0,1.71,1.71,0,0,0,.36-.11,1.32,1.32,0,0,0,.3-.17,1.08,1.08,0,0,0,.23-.24,1.12,1.12,0,0,0,.15-.31,1.3,1.3,0,0,0,.05-.38,1.18,1.18,0,0,0-.07-.41A1.05,1.05,0,0,0,1160.27,49.26Zm-2-1.9h.59a1.38,1.38,0,0,1,.4,0,.62.62,0,0,1,.24.14.53.53,0,0,1,.14.22.88.88,0,0,1,0,.28.9.9,0,0,1,0,.27.61.61,0,0,1-.13.23.65.65,0,0,1-.23.16.93.93,0,0,1-.36.06h-.65Zm1.61,3a.64.64,0,0,1-.18.23.77.77,0,0,1-.26.14,1.13,1.13,0,0,1-.34,0h-.84V49.22h.69a1.64,1.64,0,0,1,.45.05.8.8,0,0,1,.3.15.65.65,0,0,1,.18.25.88.88,0,0,1,.06.34A.75.75,0,0,1,1159.85,50.33Z"/>
      <path class="cls-1" d="M1164.46,50.8l0,0h-1.77V49.2h1.5l0,0a.21.21,0,0,0,0-.07.69.69,0,0,0,0-.1.79.79,0,0,0,0-.11.22.22,0,0,0,0-.07l0,0,0,0h-1.45V47.37h1.74l0,0a.3.3,0,0,0,0-.07.59.59,0,0,0,0-.11.63.63,0,0,0,0-.11.34.34,0,0,0,0-.08l0,0h-2.1a.24.24,0,0,0-.15.05.21.21,0,0,0-.07.18V51a.22.22,0,0,0,.07.18.24.24,0,0,0,.15.05h2.13l0,0a.22.22,0,0,0,0-.08.73.73,0,0,0,0-.11.79.79,0,0,0,0-.11A.21.21,0,0,0,1164.46,50.8Z"/>
      <path class="cls-1" d="M1168.8,46.95l0,0h-3.11l0,0a.34.34,0,0,0,0,.08.66.66,0,0,0,0,.11.63.63,0,0,0,0,.11.3.3,0,0,0,0,.08l0,0h1.27v3.76a.08.08,0,0,0,0,0l0,0,.09,0h.28l.09,0,0,0a.08.08,0,0,0,0,0V47.38h1.27l0,0a.23.23,0,0,0,0-.08.81.81,0,0,0,0-.11.85.85,0,0,0,0-.11A.26.26,0,0,0,1168.8,46.95Z"/>
      <path class="cls-1" d="M1172.53,50.8l0,0h-1.77V49.2h1.5l0,0a.21.21,0,0,0,0-.07.71.71,0,0,0,0-.1.81.81,0,0,0,0-.11.22.22,0,0,0,0-.07l0,0,0,0h-1.45V47.37h1.74l0,0a.31.31,0,0,0,0-.07.6.6,0,0,0,0-.11.65.65,0,0,0,0-.11.35.35,0,0,0,0-.08l0,0h-2.1a.24.24,0,0,0-.15.05.22.22,0,0,0-.07.18V51a.22.22,0,0,0,.07.18.24.24,0,0,0,.15.05h2.13l0,0a.22.22,0,0,0,0-.08.73.73,0,0,0,0-.11.79.79,0,0,0,0-.11A.21.21,0,0,0,1172.53,50.8Z"/>
      <path class="cls-1" d="M1176.13,49.23a1.51,1.51,0,0,0-.32-.24l-.36-.19-.36-.17a2,2,0,0,1-.32-.18.85.85,0,0,1-.22-.23.57.57,0,0,1-.08-.31.64.64,0,0,1,0-.23.51.51,0,0,1,.13-.19.64.64,0,0,1,.22-.13.93.93,0,0,1,.31,0,1.18,1.18,0,0,1,.35,0l.27.11.19.11a.27.27,0,0,0,.12,0l0,0a.1.1,0,0,0,0,0,.4.4,0,0,0,0-.08,1.06,1.06,0,0,0,0-.11s0-.08,0-.1a.51.51,0,0,0,0-.07l0,0,0-.05L1176,47l-.23-.09-.27-.07-.29,0a1.76,1.76,0,0,0-.52.08,1.22,1.22,0,0,0-.42.22,1,1,0,0,0-.27.36,1.14,1.14,0,0,0-.1.48,1.1,1.1,0,0,0,.09.45,1.14,1.14,0,0,0,.22.33,1.51,1.51,0,0,0,.31.24l.36.19.36.17a1.92,1.92,0,0,1,.31.18.84.84,0,0,1,.22.23.57.57,0,0,1,.08.31.74.74,0,0,1-.06.3.61.61,0,0,1-.17.23.81.81,0,0,1-.27.14,1.11,1.11,0,0,1-.34.05,1.47,1.47,0,0,1-.44-.06l-.32-.13-.22-.12a.27.27,0,0,0-.13-.06h0l0,0a.29.29,0,0,0,0,.08.9.9,0,0,0,0,.12.6.6,0,0,0,0,.17.24.24,0,0,0,.06.1l.14.1.24.11.33.09a2.07,2.07,0,0,0,.4,0,2,2,0,0,0,.58-.08A1.35,1.35,0,0,0,1176,51a1.16,1.16,0,0,0,.31-.4,1.26,1.26,0,0,0,.11-.54,1.08,1.08,0,0,0-.09-.45A1.1,1.1,0,0,0,1176.13,49.23Z"/>
      <path class="cls-1" d="M1182.2,49.23a1.51,1.51,0,0,0-.32-.24l-.36-.19-.36-.17a2,2,0,0,1-.32-.18.85.85,0,0,1-.22-.23.56.56,0,0,1-.08-.31.64.64,0,0,1,0-.23.51.51,0,0,1,.13-.19.64.64,0,0,1,.22-.13.93.93,0,0,1,.31,0,1.17,1.17,0,0,1,.35,0l.27.11.19.11a.27.27,0,0,0,.12,0l0,0a.09.09,0,0,0,0,0,.4.4,0,0,0,0-.08,1,1,0,0,0,0-.11s0-.08,0-.1a.5.5,0,0,0,0-.07l0,0,0-.05-.13-.08-.23-.09-.27-.07-.29,0a1.76,1.76,0,0,0-.52.08,1.22,1.22,0,0,0-.42.22,1,1,0,0,0-.27.36,1.14,1.14,0,0,0-.1.48,1.1,1.1,0,0,0,.09.45,1.13,1.13,0,0,0,.22.33,1.52,1.52,0,0,0,.31.24l.36.19.36.17a1.93,1.93,0,0,1,.31.18.84.84,0,0,1,.22.23.57.57,0,0,1,.08.31.73.73,0,0,1-.06.3.62.62,0,0,1-.17.23.81.81,0,0,1-.27.14,1.11,1.11,0,0,1-.34.05,1.47,1.47,0,0,1-.44-.06l-.32-.13-.22-.12a.27.27,0,0,0-.13-.06h0l0,0a.3.3,0,0,0,0,.08.92.92,0,0,0,0,.12.6.6,0,0,0,0,.17.25.25,0,0,0,.06.1l.14.1.24.11.33.09a2.07,2.07,0,0,0,.4,0,2,2,0,0,0,.58-.08,1.35,1.35,0,0,0,.47-.25,1.17,1.17,0,0,0,.31-.4,1.26,1.26,0,0,0,.11-.54,1.08,1.08,0,0,0-.09-.45A1.1,1.1,0,0,0,1182.2,49.23Z"/>
      <path class="cls-1" d="M1186.42,47.36a1.14,1.14,0,0,0-.31-.26,1.26,1.26,0,0,0-.36-.14l-.3-.05h-1.2a.24.24,0,0,0-.16.06.23.23,0,0,0-.07.19v4a.08.08,0,0,0,0,0l0,0,.09,0h.28l.09,0,0,0a.08.08,0,0,0,0,0V49.58h.49a2.11,2.11,0,0,0,.69-.1,1.37,1.37,0,0,0,.49-.28,1.24,1.24,0,0,0,.31-.45,1.53,1.53,0,0,0,.11-.59,1.38,1.38,0,0,0-.07-.45A1.12,1.12,0,0,0,1186.42,47.36Zm-.4,1.21a.78.78,0,0,1-.18.28.82.82,0,0,1-.29.19,1.21,1.21,0,0,1-.43.07h-.52V47.37h.53l.3,0a.82.82,0,0,1,.3.11.69.69,0,0,1,.24.26.9.9,0,0,1,.1.44A1,1,0,0,1,1186,48.57Z"/>
      <path class="cls-1" d="M1190.63,50.8l0,0h-1.77V49.2h1.5l0,0a.22.22,0,0,0,0-.07.71.71,0,0,0,0-.1.81.81,0,0,0,0-.11.22.22,0,0,0,0-.07l0,0,0,0h-1.45V47.37h1.74l0,0a.3.3,0,0,0,0-.07.58.58,0,0,0,0-.11.62.62,0,0,0,0-.11.34.34,0,0,0,0-.08l0,0h-2.1a.24.24,0,0,0-.15.05.21.21,0,0,0-.07.18V51a.22.22,0,0,0,.07.18.24.24,0,0,0,.15.05h2.13l0,0a.22.22,0,0,0,0-.08.75.75,0,0,0,0-.11.8.8,0,0,0,0-.11A.21.21,0,0,0,1190.63,50.8Z"/>
      <path class="cls-1" d="M1195.08,50.41l0,0h0a.27.27,0,0,0-.14.06l-.22.14a1.76,1.76,0,0,1-.33.14,1.45,1.45,0,0,1-.45.06,1.33,1.33,0,0,1-.55-.11,1.07,1.07,0,0,1-.41-.32,1.51,1.51,0,0,1-.26-.53,3,3,0,0,1,0-1.47,1.67,1.67,0,0,1,.26-.55,1.11,1.11,0,0,1,.41-.34,1.19,1.19,0,0,1,.53-.12,1.41,1.41,0,0,1,.46.07,1.76,1.76,0,0,1,.32.14l.22.14a.25.25,0,0,0,.13.07h0l0,0a.31.31,0,0,0,0-.08.83.83,0,0,0,0-.11.88.88,0,0,0,0-.1.55.55,0,0,0,0-.08l0-.06-.06-.07-.16-.12a1.49,1.49,0,0,0-.27-.12l-.33-.09a1.87,1.87,0,0,0-.36,0,1.9,1.9,0,0,0-.78.15,1.67,1.67,0,0,0-.6.45,2.09,2.09,0,0,0-.39.72,3.4,3.4,0,0,0,0,1.89,1.9,1.9,0,0,0,.37.68,1.54,1.54,0,0,0,.58.42,2,2,0,0,0,.76.14,2.09,2.09,0,0,0,.45,0,2.23,2.23,0,0,0,.37-.11l.27-.13.14-.1,0-.06,0-.05a.38.38,0,0,0,0-.07s0-.06,0-.09a1.25,1.25,0,0,0,0-.13A.34.34,0,0,0,1195.08,50.41Z"/>
      <path class="cls-1" d="M1197.06,46.9l-.09,0h-.27l-.09,0-.05,0a.08.08,0,0,0,0,0v4.16a.08.08,0,0,0,0,0l0,0,.09,0h.28l.09,0,0,0a.08.08,0,0,0,0,0V47a.08.08,0,0,0,0,0Z"/>
      <path class="cls-1" d="M1200.75,47l0-.06-.07,0-.11,0h-.34l-.11,0-.06,0,0,.06-1.45,4a.41.41,0,0,0,0,.12.09.09,0,0,0,0,.07l.09,0h.31l.09,0,0,0,0-.05.36-1h1.8l.37,1.05,0,.05,0,0,.09,0h.33l.09,0a.08.08,0,0,0,0-.07.42.42,0,0,0,0-.12Zm-1.16,2.63.75-2.16h0l.76,2.16Z"/>
      <path class="cls-1" d="M1205.83,50.78l0,0-.05,0h-1.55V47a.08.08,0,0,0,0,0l0,0-.09,0h-.28l-.09,0,0,0a.08.08,0,0,0,0,0v4a.22.22,0,0,0,.07.18.24.24,0,0,0,.15.05h1.92l.05,0,0,0a.27.27,0,0,0,0-.08.8.8,0,0,0,0-.11.84.84,0,0,0,0-.11A.24.24,0,0,0,1205.83,50.78Z"/>
      <path class="cls-1" d="M1207.7,46.9l-.09,0h-.27l-.09,0-.05,0a.08.08,0,0,0,0,0v4.16a.08.08,0,0,0,0,0l0,0,.09,0h.28l.09,0,0,0a.08.08,0,0,0,0,0V47a.08.08,0,0,0,0,0Z"/>
      <path class="cls-1" d="M1212.28,46.95l0,0h-3.11l0,0a.33.33,0,0,0,0,.08.67.67,0,0,0,0,.11.64.64,0,0,0,0,.11.29.29,0,0,0,0,.08l0,0h1.27v3.76a.08.08,0,0,0,0,0l0,0,.09,0h.28l.09,0,0,0a.08.08,0,0,0,0,0V47.38h1.27l0,0a.23.23,0,0,0,0-.08.76.76,0,0,0,0-.11.8.8,0,0,0,0-.11A.26.26,0,0,0,1212.28,46.95Z"/>
      <path class="cls-1" d="M1214.14,46.9l-.09,0h-.27l-.09,0-.05,0a.08.08,0,0,0,0,0v4.16a.08.08,0,0,0,0,0l0,0,.09,0h.28l.09,0,0,0a.08.08,0,0,0,0,0V47a.08.08,0,0,0,0,0Z"/>
      <path class="cls-1" d="M1218.42,50.8l0,0h-1.77V49.2h1.5l0,0a.22.22,0,0,0,0-.07.69.69,0,0,0,0-.1.8.8,0,0,0,0-.11.22.22,0,0,0,0-.07l0,0,0,0h-1.45V47.37h1.74l0,0a.31.31,0,0,0,0-.07.58.58,0,0,0,0-.11.63.63,0,0,0,0-.11.35.35,0,0,0,0-.08l0,0h-2.1a.24.24,0,0,0-.15.05.21.21,0,0,0-.07.18V51a.22.22,0,0,0,.07.18.24.24,0,0,0,.15.05h2.13l0,0a.22.22,0,0,0,0-.08.73.73,0,0,0,0-.11.79.79,0,0,0,0-.11A.21.21,0,0,0,1218.42,50.8Z"/>
      <path class="cls-1" d="M1222,49.23a1.51,1.51,0,0,0-.32-.24l-.36-.19-.36-.17a2,2,0,0,1-.32-.18.85.85,0,0,1-.22-.23.57.57,0,0,1-.08-.31.63.63,0,0,1,0-.23.51.51,0,0,1,.13-.19.64.64,0,0,1,.22-.13.93.93,0,0,1,.31,0,1.18,1.18,0,0,1,.35,0l.27.11.19.11a.27.27,0,0,0,.12,0l0,0a.09.09,0,0,0,0,0,.4.4,0,0,0,0-.08,1,1,0,0,0,0-.11s0-.08,0-.1a.5.5,0,0,0,0-.07l0,0,0-.05-.13-.08-.23-.09-.27-.07-.29,0a1.76,1.76,0,0,0-.52.08,1.22,1.22,0,0,0-.42.22,1,1,0,0,0-.27.36,1.14,1.14,0,0,0-.1.48,1.1,1.1,0,0,0,.09.45,1.13,1.13,0,0,0,.22.33,1.51,1.51,0,0,0,.31.24l.36.19.36.17a1.93,1.93,0,0,1,.31.18.84.84,0,0,1,.22.23.57.57,0,0,1,.08.31.73.73,0,0,1-.06.3.62.62,0,0,1-.17.23.81.81,0,0,1-.27.14,1.11,1.11,0,0,1-.34.05,1.47,1.47,0,0,1-.44-.06l-.32-.13-.22-.12a.27.27,0,0,0-.13-.06h0l0,0a.3.3,0,0,0,0,.08.94.94,0,0,0,0,.12.6.6,0,0,0,0,.17.25.25,0,0,0,.06.1l.14.1.24.11.33.09a2.07,2.07,0,0,0,.4,0,2,2,0,0,0,.58-.08,1.35,1.35,0,0,0,.47-.25,1.16,1.16,0,0,0,.31-.4,1.26,1.26,0,0,0,.11-.54,1.08,1.08,0,0,0-.09-.45A1.1,1.1,0,0,0,1222,49.23Z"/>
      <path class="cls-1" d="M1229,50.41l0,0h0a.27.27,0,0,0-.14.06l-.22.14a1.76,1.76,0,0,1-.33.14,1.46,1.46,0,0,1-.45.06,1.33,1.33,0,0,1-.55-.11,1.07,1.07,0,0,1-.41-.32,1.51,1.51,0,0,1-.26-.53,3,3,0,0,1,0-1.47,1.67,1.67,0,0,1,.26-.55,1.11,1.11,0,0,1,.41-.34,1.19,1.19,0,0,1,.53-.12,1.41,1.41,0,0,1,.46.07,1.76,1.76,0,0,1,.32.14l.22.14a.25.25,0,0,0,.13.07h0l0,0a.32.32,0,0,0,0-.08.84.84,0,0,0,0-.11.9.9,0,0,0,0-.1.53.53,0,0,0,0-.08l0-.06-.06-.07-.16-.12a1.49,1.49,0,0,0-.27-.12l-.33-.09a1.87,1.87,0,0,0-.36,0,1.9,1.9,0,0,0-.78.15,1.67,1.67,0,0,0-.6.45,2.09,2.09,0,0,0-.39.72,3.41,3.41,0,0,0,0,1.89,1.9,1.9,0,0,0,.37.68,1.54,1.54,0,0,0,.58.42,2,2,0,0,0,.76.14,2.09,2.09,0,0,0,.45,0,2.22,2.22,0,0,0,.37-.11l.27-.13.14-.1,0-.06,0-.05a.38.38,0,0,0,0-.07s0-.06,0-.09a1.25,1.25,0,0,0,0-.13A.34.34,0,0,0,1229,50.41Z"/>
      <path class="cls-1" d="M1232.8,50.8l0,0H1231V49.2h1.5l0,0a.22.22,0,0,0,0-.07.71.71,0,0,0,0-.1.81.81,0,0,0,0-.11.22.22,0,0,0,0-.07l0,0,0,0H1231V47.37h1.74l0,0a.3.3,0,0,0,0-.07.58.58,0,0,0,0-.11.62.62,0,0,0,0-.11.34.34,0,0,0,0-.08l0,0h-2.1a.24.24,0,0,0-.15.05.21.21,0,0,0-.07.18V51a.22.22,0,0,0,.07.18.24.24,0,0,0,.15.05h2.13l0,0a.22.22,0,0,0,0-.08.73.73,0,0,0,0-.11.79.79,0,0,0,0-.11A.21.21,0,0,0,1232.8,50.8Z"/>
      <path class="cls-1" d="M1237.67,46.91l-.09,0h-.28l-.09,0,0,0a.08.08,0,0,0,0,0v2.35q0,.26,0,.55t0,.55h0l-.16-.31-.16-.32-.17-.33-.18-.34-1-1.9-.11-.17a.49.49,0,0,0-.1-.11l-.12-.06-.17,0h-.28a.27.27,0,0,0-.17.06.22.22,0,0,0-.08.19v4a.08.08,0,0,0,0,0l0,0,.09,0h.28l.09,0,0,0a.08.08,0,0,0,0,0V48.52q0-.25,0-.5t0-.49h0l.2.41.21.4,1.32,2.46a1.72,1.72,0,0,0,.13.21.68.68,0,0,0,.12.13.35.35,0,0,0,.13.07l.16,0h.28l.08,0a.23.23,0,0,0,.06-.08.26.26,0,0,0,0-.11V47a.08.08,0,0,0,0,0Z"/>
      <path class="cls-1" d="M1242.26,46.95l0,0h-3.11l0,0a.34.34,0,0,0,0,.08.66.66,0,0,0,0,.11.63.63,0,0,0,0,.11.3.3,0,0,0,0,.08l0,0h1.27v3.76a.08.08,0,0,0,0,0l0,0,.09,0h.28l.09,0,0,0a.08.08,0,0,0,0,0V47.38h1.27l0,0a.23.23,0,0,0,0-.08.76.76,0,0,0,0-.11.8.8,0,0,0,0-.11A.26.26,0,0,0,1242.26,46.95Z"/>
      <path class="cls-1" d="M1246.41,50.89l-.39-1q-.07-.16-.13-.29a1.62,1.62,0,0,0-.14-.23,1,1,0,0,0-.16-.17.81.81,0,0,0-.19-.12,1.7,1.7,0,0,0,.34-.16,1.12,1.12,0,0,0,.26-.23.94.94,0,0,0,.17-.3,1.21,1.21,0,0,0,.06-.39,1.23,1.23,0,0,0-.07-.41,1,1,0,0,0-.2-.33,1.06,1.06,0,0,0-.32-.24,1.67,1.67,0,0,0-.44-.14l-.2,0h-1.19a.24.24,0,0,0-.15.05.22.22,0,0,0-.07.18v4a.08.08,0,0,0,0,0l0,0,.09,0h.28l.09,0,0,0a.08.08,0,0,0,0,0V49.29h.38a.88.88,0,0,1,.34.06.73.73,0,0,1,.24.16,1,1,0,0,1,.18.25q.08.15.15.32l.4,1,0,.07.05,0,.09,0h.3l.09,0,0,0a.1.1,0,0,0,0,0,.32.32,0,0,0,0-.08Zm-1.28-2.12a1.25,1.25,0,0,1-.39.06h-.56V47.37h.76l.19,0a.64.64,0,0,1,.38.25.78.78,0,0,1,.11.43.8.8,0,0,1-.05.29.6.6,0,0,1-.16.23A.77.77,0,0,1,1245.13,48.77Z"/>
      <path class="cls-1" d="M1250.41,50.87a.21.21,0,0,0,0-.07l0,0h-1.77V49.2h1.5l0,0a.22.22,0,0,0,0-.07.69.69,0,0,0,0-.1.8.8,0,0,0,0-.11.22.22,0,0,0,0-.07l0,0,0,0h-1.45V47.37h1.74l0,0a.31.31,0,0,0,0-.07.58.58,0,0,0,0-.11.63.63,0,0,0,0-.11.35.35,0,0,0,0-.08l0,0h-2.1a.24.24,0,0,0-.15.05.21.21,0,0,0-.07.18V51a.22.22,0,0,0,.07.18.24.24,0,0,0,.15.05h2.13l0,0a.22.22,0,0,0,0-.08.73.73,0,0,0,0-.11A.79.79,0,0,0,1250.41,50.87Z"/>
    </g>
  </g>
  <g>
    <path class="cls-1" d="M907.19,23.21c.15,0,.3,0,.46,0,2,0,4,0,6,0a.65.65,0,0,1,.62.34q2.56,3.85,5.15,7.69a1,1,0,0,0,.3.32V23.18c1.86,0,3.68,0,5.54,0v5.08h6.21v-5c.31-.09,5.13-.12,5.69,0V37.88h-5.67V32h-6.21v5.88c-.14,0-.23,0-.33,0h-5.8a.54.54,0,0,1-.49-.28L913,29.73a1,1,0,0,0-.31-.31v8.43a.8.8,0,0,1-.18,0h-5.3Z"/>
    <path class="cls-1" d="M942.94,23c.44,0,.86,0,1.28,0a.46.46,0,0,1,.25.13,1.06,1.06,0,0,1,.15.22l7.69,11.68a1,1,0,0,0,.33.34V23.06h1.28v14.6h-1.35a.31.31,0,0,1-.18-.11,2,2,0,0,1-.17-.25L944.54,25.6l-.23-.34-.06,0,0,0a.34.34,0,0,0,0,.08q0,6.09,0,12.18a.58.58,0,0,1,0,.09c-.39,0-.81,0-1.21,0C942.89,37.36,942.86,23.72,942.94,23Z"/>
    <path class="cls-1" d="M922.49,4.49l.45,1.07a21.62,21.62,0,0,0,1.72,3.38c.38.6.75,1.22,1.09,1.85a6,6,0,0,1,.65,4.3,5.53,5.53,0,0,1-2.1,3.12.57.57,0,0,1-.14,0,28.77,28.77,0,0,0,.77-5.72,31.59,31.59,0,0,1-1.74,5.22c-.1-3-.29-5.95-.69-8.9a16,16,0,0,0-.29,2.19c-.08.74-.13,1.48-.18,2.22s-.1,1.51-.13,2.26,0,1.48-.11,2.23a6.72,6.72,0,0,1-.53-1.23c-.16-.45-.31-.89-.46-1.34s-.26-.88-.38-1.33-.22-.88-.37-1.32a29.36,29.36,0,0,0,.78,5.76c-.13-.09-.22-.14-.29-.2a5.37,5.37,0,0,1-2.1-4.45,6.2,6.2,0,0,1,.8-2.86c.3-.54.6-1.08.93-1.59A23.86,23.86,0,0,0,922.27,5C922.33,4.85,922.39,4.71,922.49,4.49Z"/>
    <path class="cls-1" d="M1036.66,37.66h-1l-.31,0v-7H1027c0,.47,0,.94,0,1.4s0,.92,0,1.38v4.25h-1.29c-.08-.27-.12-13.62,0-14.53a3.61,3.61,0,0,1,1.32,0v6.23c.31.09,7.8.11,8.37,0V23.06h1.34Z"/>
    <path class="cls-1" d="M972.83,30.25h-1.16c0-.18,0-.34,0-.5a3.13,3.13,0,0,1,1.91-2.47,5.49,5.49,0,0,1,2.67-.42,6.72,6.72,0,0,1,.91.12,2.86,2.86,0,0,1,2.53,3c0,1.11,0,2.23,0,3.34q0,1.15,0,2.31c0,.17,0,.33,0,.5,0,.45.16.58.62.62.17,0,.33,0,.53,0v.9a2.66,2.66,0,0,1-1.64,0,1.09,1.09,0,0,1-.65-.84c0-.17-.06-.34-.09-.56l-.36.33a5,5,0,0,1-4.62,1.27A2.92,2.92,0,0,1,971.24,34a2.66,2.66,0,0,1,1.7-1.85,7.72,7.72,0,0,1,2-.45c.69-.08,1.38-.13,2.06-.24a3.16,3.16,0,0,0,.93-.35,1,1,0,0,0,.54-1,4.46,4.46,0,0,0-.07-.73A1.75,1.75,0,0,0,976.79,28a5.3,5.3,0,0,0-2.1,0,2.17,2.17,0,0,0-1.81,2C972.87,30.09,972.85,30.16,972.83,30.25Zm5.59,1.91a18.23,18.23,0,0,1-3.48.46,3.27,3.27,0,0,0-2,.92,1.71,1.71,0,0,0-.53,1,1.85,1.85,0,0,0,1.45,2.23,4.2,4.2,0,0,0,3.05-.39,2.72,2.72,0,0,0,1.48-2.2C978.47,33.49,978.42,32.85,978.42,32.16Z"/>
    <path class="cls-1" d="M999.64,36.78c0,.11,0,.21,0,.31s0,.35,0,.56a2.71,2.71,0,0,1-1.67,0,1.08,1.08,0,0,1-.65-.81c0-.18-.06-.37-.1-.6l-.35.33a5,5,0,0,1-4.65,1.27A2.92,2.92,0,0,1,990,34a2.67,2.67,0,0,1,1.71-1.84,7.8,7.8,0,0,1,2-.44c.67-.08,1.35-.13,2-.24a3.12,3.12,0,0,0,.9-.32,1,1,0,0,0,.58-1,4.49,4.49,0,0,0-.05-.65A1.75,1.75,0,0,0,995.53,28a5.22,5.22,0,0,0-2.1.05,2.16,2.16,0,0,0-1.8,1.94c0,.09,0,.17-.06.25h-1.12a1.76,1.76,0,0,1,.08-.88,3.13,3.13,0,0,1,1.83-2.09,5.27,5.27,0,0,1,2.7-.41,6.37,6.37,0,0,1,1.5.29,2.62,2.62,0,0,1,1.86,2.36,7.18,7.18,0,0,1,0,.77c0,1.79,0,3.58,0,5.38a4.91,4.91,0,0,0,0,.65.43.43,0,0,0,.44.44C999.16,36.77,999.38,36.77,999.64,36.78Zm-2.49-4.59h-.07a16.82,16.82,0,0,1-3.3.42,3.38,3.38,0,0,0-2.07.91,1.71,1.71,0,0,0-.54,1,1.86,1.86,0,0,0,1.46,2.25,4.27,4.27,0,0,0,2.78-.26,2.74,2.74,0,0,0,1.72-2.24A17.25,17.25,0,0,0,997.15,32.2Z"/>
    <path class="cls-1" d="M1050,30.25h-1.17c0-.16,0-.29,0-.43a3.16,3.16,0,0,1,2.06-2.61,5.54,5.54,0,0,1,2.56-.36,7,7,0,0,1,.95.13,2.84,2.84,0,0,1,2.45,3c0,1.87,0,3.74,0,5.61,0,.18,0,.36,0,.54,0,.5.16.63.65.66h.51v.9a2.81,2.81,0,0,1-1.68-.07,1.1,1.1,0,0,1-.64-.86c0-.16,0-.33-.08-.55l-.36.33a4.94,4.94,0,0,1-4.65,1.27,2.92,2.92,0,0,1-2.22-3.85,2.62,2.62,0,0,1,1.8-1.8,12.59,12.59,0,0,1,1.91-.41c.67-.11,1.35-.14,2-.24a3.09,3.09,0,0,0,.9-.32,1,1,0,0,0,.59-1,4.55,4.55,0,0,0-.09-.72A1.72,1.72,0,0,0,1054,28a5.2,5.2,0,0,0-2.06,0,2.18,2.18,0,0,0-1.92,2.08A1.33,1.33,0,0,1,1050,30.25Zm5.63,1.91a8.7,8.7,0,0,1-.86.19q-1.24.14-2.48.24a3.67,3.67,0,0,0-2,.82,1.74,1.74,0,0,0-.68,1.16,1.84,1.84,0,0,0,1.47,2.15,4.22,4.22,0,0,0,3-.37,2.7,2.7,0,0,0,1.49-2.11C1055.64,33.57,1055.61,32.89,1055.63,32.16Z"/>
    <path class="cls-1" d="M965.37,36.77v.89a2.84,2.84,0,0,1-1.6,0,1.1,1.1,0,0,1-.72-.88c0-.16-.05-.33-.09-.56l-.29.27a5.1,5.1,0,0,1-2.61,1.38,4.86,4.86,0,0,1-2.39-.12,3,3,0,0,1-1.84-4.06,2.78,2.78,0,0,1,1.65-1.51,8.1,8.1,0,0,1,1.95-.42c.67-.08,1.35-.13,2-.24a3.14,3.14,0,0,0,.9-.32,1,1,0,0,0,.59-1,4.55,4.55,0,0,0-.07-.69A1.74,1.74,0,0,0,961.3,28a5.24,5.24,0,0,0-2.06,0,2.17,2.17,0,0,0-1.88,2s0,.1,0,.17h-1.14a1.69,1.69,0,0,1,.08-.84,3.12,3.12,0,0,1,1.84-2.13,5.51,5.51,0,0,1,2.67-.42,6.72,6.72,0,0,1,.91.12,2.86,2.86,0,0,1,2.52,3c0,1,0,2,0,3s0,1.95,0,2.92c0,.76.14.89.9.88Zm-2.49-4.6a7.69,7.69,0,0,1-.81.18c-.83.09-1.65.17-2.48.24a3.67,3.67,0,0,0-2,.82,1.75,1.75,0,0,0-.67,1.13,1.84,1.84,0,0,0,1.47,2.18,4.23,4.23,0,0,0,3-.36,2.69,2.69,0,0,0,1.52-2.13A18.27,18.27,0,0,0,962.89,32.17Z"/>
    <path class="cls-1" d="M1011.83,30.25h-1.2c0-.29.06-.55.12-.81a3.14,3.14,0,0,1,2.17-2.29,5.92,5.92,0,0,1,3.74,0,2.72,2.72,0,0,1,2,2.72c0,.72,0,1.43,0,2.15,0,1.27,0,2.54,0,3.8a4.43,4.43,0,0,0,0,.57.43.43,0,0,0,.44.4l.7,0v.87a2.73,2.73,0,0,1-1.66,0,1.13,1.13,0,0,1-.68-1c0-.14,0-.27-.05-.47l-.37.34a5,5,0,0,1-4.65,1.27,2.76,2.76,0,0,1-2.26-2.11,2.86,2.86,0,0,1,2-3.6,11.88,11.88,0,0,1,2.49-.43l1.29-.15a2.42,2.42,0,0,0,.44-.12,1.29,1.29,0,0,0,1-1.64,4.11,4.11,0,0,0-.11-.52,1.5,1.5,0,0,0-1-1.07,5.76,5.76,0,0,0-1-.21,4.5,4.5,0,0,0-1.64.12,2.17,2.17,0,0,0-1.76,1.94Zm5.6,2c-.63.1-1.19.22-1.76.28s-1.15.06-1.72.13a3.5,3.5,0,0,0-2,.91,1.66,1.66,0,0,0-.49.77,1.85,1.85,0,0,0,1.41,2.44,4.15,4.15,0,0,0,3-.38,2.75,2.75,0,0,0,1.37-1.63A8.23,8.23,0,0,0,1017.43,32.2Z"/>
    <path class="cls-1" d="M1046.12,34.44h1.19c0,.16,0,.29-.06.43a3.79,3.79,0,0,1-2.68,2.86,5.17,5.17,0,0,1-3,.08,4,4,0,0,1-2.54-2,5.62,5.62,0,0,1-.65-2.11,8.86,8.86,0,0,1,.26-3.65l.06-.18a4.15,4.15,0,0,1,4-3,6,6,0,0,1,1.56.17,3.74,3.74,0,0,1,2.48,2,5.82,5.82,0,0,1,.63,2.36c0,.39,0,.78,0,1.22h-7.82a3.41,3.41,0,0,0,0,1.21,4.11,4.11,0,0,0,.73,1.8,2.92,2.92,0,0,0,2.38,1.27,4.42,4.42,0,0,0,1.22-.11,2.72,2.72,0,0,0,2-2Zm.09-2.81a5.2,5.2,0,0,0-.43-1.93,3.16,3.16,0,0,0-5.43-.46,4.27,4.27,0,0,0-.67,1.7c0,.22-.05.45-.08.7Z"/>
    <path class="cls-1" d="M1068.29,28.62l.19-.23a3.88,3.88,0,0,1,3.58-1.53,4.71,4.71,0,0,1,1.16.24,2.77,2.77,0,0,1,2,2.72c0,.18,0,.36,0,.54q0,3.5,0,7c0,.09,0,.18,0,.29H1074v-.43c0-2,0-4,0-6a11.36,11.36,0,0,0-.15-1.6,1.74,1.74,0,0,0-1.6-1.57,4.09,4.09,0,0,0-1.86.07,3,3,0,0,0-2.15,2.64,6.46,6.46,0,0,0-.06,1c0,1.84,0,3.69,0,5.53,0,.14,0,.27,0,.43H1067c-.08-.27-.12-13.72,0-14.58a9.11,9.11,0,0,1,1.2,0v5.52Z"/>
    <path class="cls-1" d="M985.14,36l3.3-8.88h1.24c-.05.16-.09.29-.14.43l-3.47,9.35c-.34.92-.67,1.85-1,2.77a7.57,7.57,0,0,1-.57,1.17A2.29,2.29,0,0,1,982.59,42a3.15,3.15,0,0,1-1.23-.09V40.81l.38,0a5.23,5.23,0,0,0,.61,0,1.29,1.29,0,0,0,1.11-.64,9.05,9.05,0,0,0,.49-1c.16-.38.28-.77.44-1.15a.76.76,0,0,0,0-.62q-1.5-3.88-3-7.77l-.84-2.18c0-.12-.08-.24-.13-.38h1.28L985.06,36Z"/>
    <path class="cls-1" d="M1000.52,27.13h1.14l0,1.59.25-.3a3.91,3.91,0,0,1,3.64-1.56,4,4,0,0,1,1.66.44,2.65,2.65,0,0,1,1.49,2.22c0,.4.06.79.06,1.19,0,2.19,0,4.38,0,6.57,0,.11,0,.22,0,.36h-1.26c0-.15,0-.3,0-.45,0-2,0-3.94,0-5.92,0-.52-.06-1-.11-1.57a2.65,2.65,0,0,0-.15-.55,1.5,1.5,0,0,0-1-1,3.75,3.75,0,0,0-2.78.08,2.93,2.93,0,0,0-1.69,2.4,6.72,6.72,0,0,0-.07,1c0,1.86,0,3.71,0,5.57v.44h-1.17C1000.47,37.37,1000.44,28,1000.52,27.13Z"/>
    <path class="cls-1" d="M909.92,15.07c.66.09,1.24.18,1.82.23s.94.06,1.42.08c.74,0,1.49,0,2.23.07a4,4,0,0,1,3.76,3.6s0,.09,0,.19c-.55-.49-1.06-1-1.58-1.4a18.9,18.9,0,0,0-1.63-1.22,1.67,1.67,0,0,0,.38.47l.48.5.44.48.42.5.43.54a3.38,3.38,0,0,1,.35.53,64.44,64.44,0,0,0-5.78-2.91c1.65,1.36,3.41,2.57,5.19,3.76a8.79,8.79,0,0,1-1.94-.34c-.63-.16-1.25-.35-1.89-.5a4.82,4.82,0,0,0,.89.5l.95.42,1,.39,1,.37a2.91,2.91,0,0,1-1.2.34,4,4,0,0,1-3.85-1.84,8.9,8.9,0,0,1-.73-1.26,19.41,19.41,0,0,0-2-3.26Z"/>
    <path class="cls-1" d="M932.3,16.68c-1,.48-1.95.94-2.91,1.44s-1.88,1-2.85,1.51a24.3,24.3,0,0,1,2.52-3,24.1,24.1,0,0,0-3.21,2.55,3.83,3.83,0,0,1,1.22-2.64,4.17,4.17,0,0,1,2.48-1.09,16.1,16.1,0,0,1,1.84-.06,17.65,17.65,0,0,0,3.43-.3l.19,0a2.13,2.13,0,0,1-.13.24,18.81,18.81,0,0,0-2,3.23,10.67,10.67,0,0,1-.6,1.07,4.22,4.22,0,0,1-2.81,2,4.07,4.07,0,0,1-2.26-.23s-.06,0-.1-.09A20.22,20.22,0,0,0,931,19.63l-1.89.52a9.65,9.65,0,0,1-1.94.34c1.78-1.2,3.54-2.41,5.21-3.74Z"/>
    <path class="cls-1" d="M1065.83,36.75v1a4.65,4.65,0,0,1-2,.18,1.15,1.15,0,0,1-1-.94,6.4,6.4,0,0,1-.14-1.22c0-2.37,0-4.74,0-7.11v-.51h-1.41v-1h1.39v-3a7.51,7.51,0,0,1,1.23,0v3h1.95v1h-1.91c0,.15,0,.26,0,.37q0,3.67,0,7.34a3,3,0,0,0,.06.61.5.5,0,0,0,.56.47c.37,0,.74-.07,1.1-.11Z"/>
    <path class="cls-1" d="M967.49,37.65h-1.25V27.15l.19,0h1v1.61l.08,0a3.49,3.49,0,0,1,1.33-1.48,3.85,3.85,0,0,1,2-.44v1.25c-.34,0-.66.06-1,.11a2.52,2.52,0,0,0-2,1.61,4.11,4.11,0,0,0-.31,1.46c0,.72,0,1.43,0,2.15,0,1.25,0,2.51,0,3.76Z"/>
    <path class="cls-1" d="M1060.23,37.65h-1.16V23.07h1.16Z"/>
    <path class="cls-1" d="M980.58,46.68H977.9v2.51h-.64c-.08-.26-.1-4.95,0-5.4h.66V46h2.69V43.79h.68v5.39h-.68Z"/>
    <path class="cls-1" d="M1029.85,43.79c.77-.07.77-.07,1,.58l1.56,4.41.13.4h-.75l-.55-1.58h-2l-.55,1.58h-.72Zm-.41,3.14h1.6l-.75-2.25h-.08Z"/>
    <path class="cls-1" d="M1015.64,46.43h-.54a1,1,0,0,1,.51-1,2,2,0,0,1,1.95,0,.8.8,0,0,1,.44.6,3.08,3.08,0,0,1,.06.57c0,.61,0,1.23,0,1.84,0,.34,0,.34.38.42v.44c-.56.19-.81.08-1-.44l-.29.23a1.57,1.57,0,0,1-1.45.29,1,1,0,0,1-.77-.94,1.07,1.07,0,0,1,.59-1.22,4.2,4.2,0,0,1,.85-.23c.2,0,.41-.05.61-.08s.39,0,.44-.29a.62.62,0,0,0-.24-.68A1,1,0,0,0,1015.64,46.43Zm1.75.84-1.3.23a.83.83,0,0,0-.25.1.63.63,0,0,0-.28.66.54.54,0,0,0,.48.47,1.3,1.3,0,0,0,.92-.17.82.82,0,0,0,.42-.61C1017.41,47.73,1017.39,47.5,1017.39,47.27Z"/>
    <path class="cls-1" d="M990.41,48.77v.43c-.56.19-.81.09-1-.44l-.29.23a1.57,1.57,0,0,1-1.45.29,1,1,0,0,1-.77-.95,1.08,1.08,0,0,1,.56-1.2,3.78,3.78,0,0,1,.84-.24c.21,0,.43-.05.65-.08s.39,0,.43-.29a.6.6,0,0,0-.28-.7,1,1,0,0,0-1.48.6l-.25,0-.29,0a1,1,0,0,1,.51-1,2,2,0,0,1,1.95,0,1,1,0,0,1,.5,1c0,.56,0,1.13,0,1.69,0,.1,0,.2,0,.31C990,48.68,990,48.68,990.41,48.77Zm-1.06-1.5-1.33.24a.71.71,0,0,0-.21.09.63.63,0,0,0-.28.66.53.53,0,0,0,.48.47,1.31,1.31,0,0,0,.92-.16.81.81,0,0,0,.42-.61C989.36,47.73,989.35,47.5,989.35,47.27Z"/>
    <path class="cls-1" d="M1064.42,48.77v.43c-.57.18-.79.09-1-.44a2.31,2.31,0,0,1-1,.56,1.19,1.19,0,0,1-1.48-.92,1.16,1.16,0,0,1,.95-1.43c.35-.08.71-.11,1.06-.16s.45-.11.48-.38-.09-.59-.4-.65a2.54,2.54,0,0,0-.87,0c-.32.05-.43.33-.48.63h-.57a1.1,1.1,0,0,1,.59-1.08,2,2,0,0,1,1.85,0,1,1,0,0,1,.53,1c0,.58,0,1.15,0,1.73,0,.12,0,.23,0,.35C1064,48.68,1064.06,48.68,1064.42,48.77Zm-1.07-1.5-1.18.21a1.28,1.28,0,0,0-.33.1.59.59,0,0,0-.3.69.52.52,0,0,0,.49.46,1.3,1.3,0,0,0,.92-.18.77.77,0,0,0,.39-.55A7.33,7.33,0,0,0,1063.35,47.27Z"/>
    <path class="cls-1" d="M985.32,48h.55a1.3,1.3,0,0,1-.36.86,1.65,1.65,0,0,1-2.65-.27,2.76,2.76,0,0,1,0-2.69,1.46,1.46,0,0,1,1.49-.74,1.49,1.49,0,0,1,1.37.94,2.61,2.61,0,0,1,.17,1.35h-2.67A1.12,1.12,0,0,0,984,48.7C984.58,48.86,985,48.64,985.32,48Zm-.07-1.1a1,1,0,0,0-.95-1.14,1,1,0,0,0-1,1.14Z"/>
    <path class="cls-1" d="M1059.94,47.42h-2.62a1.06,1.06,0,0,0,.67,1.27c.59.18,1-.06,1.33-.73h.59a1.51,1.51,0,0,1-.62,1.08,1.64,1.64,0,0,1-2.51-.68,2.93,2.93,0,0,1,0-2.32,1.64,1.64,0,0,1,3,.16A2.45,2.45,0,0,1,1059.94,47.42Zm-.66-.57c0-.75-.34-1.14-1-1.14a1,1,0,0,0-1,1.14Z"/>
    <path class="cls-1" d="M1073,49.2h-.59c0-.13,0-.24,0-.35,0-.68,0-1.36,0-2a2.66,2.66,0,0,0,0-.5.62.62,0,0,0-.69-.57,1,1,0,0,0-1.12,1c0,.66,0,1.33,0,2,0,.14,0,.28,0,.44h-.62v-5.4h.61v1.83c.06,0,.1,0,.11,0a1.49,1.49,0,0,1,1.51-.44,1,1,0,0,1,.88.93C1073.05,47.13,1073,48.14,1073,49.2Z"/>
    <path class="cls-1" d="M1052.89,49.19h-.57c-.09-.28-.1-5,0-5.4h.58v1.88c.07,0,.11,0,.13-.06a1.49,1.49,0,0,1,1.69-.35.93.93,0,0,1,.66.82,4.45,4.45,0,0,1,0,.57c0,.83,0,1.66,0,2.52h-.62c0-.1,0-.21,0-.32,0-.67,0-1.33,0-2,0-.13,0-.26,0-.38a.71.71,0,0,0-.93-.73,1,1,0,0,0-.92,1c0,.66,0,1.33,0,2C1052.89,48.92,1052.89,49,1052.89,49.19Z"/>
    <path class="cls-1" d="M996.59,45.68a1.47,1.47,0,0,1,1.53-.48,1,1,0,0,1,.89.92c0,1,0,2,0,3,0,0,0,0,0,.05h-.55c0-.11,0-.22,0-.33,0-.68,0-1.36,0-2a2.87,2.87,0,0,0-.05-.53.6.6,0,0,0-.63-.55,1.06,1.06,0,0,0-1.2,1.13c0,.63,0,1.25,0,1.88,0,.14,0,.27,0,.43h-.61V43.8h.61v1.84Z"/>
    <path class="cls-1" d="M1045.77,47.32a6.9,6.9,0,0,1-.11.73,1.77,1.77,0,0,1-3.4.05,3,3,0,0,1,0-1.85,1.78,1.78,0,0,1,3.3,0,2.67,2.67,0,0,1,.12.48C1045.75,46.89,1045.75,47.07,1045.77,47.32Zm-.63-.11a5.78,5.78,0,0,0-.19-.85,1,1,0,0,0-1-.64,1,1,0,0,0-1,.63,2.32,2.32,0,0,0,0,1.75,1,1,0,0,0,1.07.64,1,1,0,0,0,1-.69A6.8,6.8,0,0,0,1045.13,47.21Z"/>
    <path class="cls-1" d="M1008.7,47.24a7.63,7.63,0,0,1-.27,1.11,1.57,1.57,0,0,1-1.58,1,1.59,1.59,0,0,1-1.6-1,2.83,2.83,0,0,1,0-2.27,1.57,1.57,0,0,1,1.56-1,1.62,1.62,0,0,1,1.61,1A3.62,3.62,0,0,1,1008.7,47.24Zm-.66,0a6.16,6.16,0,0,0-.2-.86,1,1,0,0,0-1-.64,1,1,0,0,0-1,.6,2.27,2.27,0,0,0,0,1.82,1,1,0,0,0,1,.6,1,1,0,0,0,1-.63A6.37,6.37,0,0,0,1008,47.22Z"/>
    <path class="cls-1" d="M1004.35,43.75v.53c-.63,0-.71.15-.62,1l.61,0v.49l-.64,0v3.37l-.31,0-.34,0V45.81l-.61,0v-.48l.56,0c0-.1,0-.21,0-.32s0-.28,0-.42a.8.8,0,0,1,1-.8Z"/>
    <path class="cls-1" d="M1040.17,45.81l-.61,0v-.49l.55,0c0-.08,0-.16,0-.25a2,2,0,0,0,0-.23c0-.85.41-1.23,1.29-1v.49a2.53,2.53,0,0,0-.54.2c-.12.08-.12.42,0,.8l.59,0v.5l-.63,0c0,1.12,0,2.24,0,3.38h-.63Z"/>
    <path class="cls-1" d="M994.21,45.24l.64,0v.5l-.63,0a2.94,2.94,0,0,0,0,.3c0,.68,0,1.36,0,2,0,.05,0,.1,0,.15,0,.29.09.35.38.37h.28v.52a1.31,1.31,0,0,1-.82.05.53.53,0,0,1-.45-.51,4.94,4.94,0,0,1,0-.57c0-.77,0-1.53,0-2.32l-.54-.06,0-.47.55-.06V44.16h.62Z"/>
    <path class="cls-1" d="M1067.58,45.81l-.54-.05v-.48l.53,0V44.17h.63v1.07l.66,0v.5l-.62,0c0,.11,0,.19,0,.28q0,1,0,2a1.55,1.55,0,0,0,0,.19c0,.27.1.33.36.34h.29v.52a1.16,1.16,0,0,1-.91,0,.63.63,0,0,1-.3-.31,1.27,1.27,0,0,1-.07-.49c0-.73,0-1.46,0-2.19C1067.58,46.08,1067.58,46,1067.58,45.81Z"/>
    <path class="cls-1" d="M1065.46,43.79h.57c.08.28.1,5,0,5.4h-.58Z"/>
    <path class="cls-1" d="M1021.53,43.78h.56c.08.3.09,5,0,5.41l-.29,0-.28,0Z"/>
    <path class="cls-1" d="M1035.5,43.79h.61v5.4h-.61Z"/>
    <path class="cls-1" d="M1009.84,45.27h.56l.06.56a1.07,1.07,0,0,1,1.15-.63v.66l-.17,0a.93.93,0,0,0-1,1c0,.63,0,1.25,0,1.88,0,.12,0,.25,0,.4h-.62Z"/>
    <path class="cls-1" d="M1048.74,45.19v.67l-.27,0a.89.89,0,0,0-.88.89c0,.48,0,1,0,1.46,0,.32,0,.63,0,1h-.62V45.28h.57l0,.5a6,6,0,0,1,.49-.47A.89.89,0,0,1,1048.74,45.19Z"/>
    <path class="cls-1" d="M1034.06,49.2h-.59V43.79h.59Z"/>
    <path class="cls-1" d="M992,49.19h-.57v-5.4H992C992.08,44.07,992.1,48.72,992,49.19Z"/>
    <path class="cls-1" d="M1019.48,49.19v-5.4h.6v5.4l-.3,0Z"/>
    <path class="cls-1" d="M1023.71,48.42h.67v.76h-.67Z"/>
    <path class="cls-1" d="M1075.25,48.43v.75h-.66v-.75Z"/>
  </g>
  <path class="cls-1" d="M32.68,32.47a3,3,0,0,0-1-1.65,3.05,3.05,0,0,0-2-.61,3.24,3.24,0,0,0-2.57,1.12,5.09,5.09,0,0,0-1,3.42A5,5,0,0,0,27,37.82,3.09,3.09,0,0,0,29.66,39a2.78,2.78,0,0,0,2.45-1.24A4.71,4.71,0,0,0,32.78,36H34.2a4.86,4.86,0,0,1-1.26,2.85,4.48,4.48,0,0,1-3.46,1.38,4.56,4.56,0,0,1-3.15-1.14,5.92,5.92,0,0,1-1.68-4.64,5.92,5.92,0,0,1,1.26-3.9,4.6,4.6,0,0,1,3.76-1.66A4.41,4.41,0,0,1,32.85,30a3.8,3.8,0,0,1,1.25,2.45Z"/>
  <path class="cls-1" d="M41.65,39a3.34,3.34,0,0,1-2.86,1.24,3.23,3.23,0,0,1-2.57-1.1,4.32,4.32,0,0,1-1-2.94,4.68,4.68,0,0,1,1-3.15A3.37,3.37,0,0,1,39,31.93a3.55,3.55,0,0,1,2.56,1,4,4,0,0,1,1,3A5.1,5.1,0,0,1,41.65,39Zm-.81-4.89a2,2,0,0,0-1.92-1.08,1.89,1.89,0,0,0-1.76.92,4.28,4.28,0,0,0-.55,2.23,3.72,3.72,0,0,0,.55,2.09,1.93,1.93,0,0,0,1.74.83,1.82,1.82,0,0,0,1.8-1,4.94,4.94,0,0,0,.49-2.21A3.93,3.93,0,0,0,40.85,34.16Z"/>
  <path class="cls-1" d="M45.45,32.16v1.11a4.38,4.38,0,0,1,.85-.84A2.56,2.56,0,0,1,47.77,32a2.33,2.33,0,0,1,1.51.46,2.41,2.41,0,0,1,.59.78,2.84,2.84,0,0,1,1-.93,2.87,2.87,0,0,1,1.33-.3,2.18,2.18,0,0,1,2.15,1.14,3.73,3.73,0,0,1,.31,1.66V40H53.33V34.55a1.27,1.27,0,0,0-.39-1.08,1.55,1.55,0,0,0-1-.29,1.9,1.9,0,0,0-1.34.52,2.29,2.29,0,0,0-.56,1.74V40H48.74V34.88a2.66,2.66,0,0,0-.19-1.16,1.16,1.16,0,0,0-1.12-.55,1.93,1.93,0,0,0-1.36.58,2.84,2.84,0,0,0-.61,2.09V40H44.14V32.16Z"/>
  <path class="cls-1" d="M57.94,32.16v1.11a4.38,4.38,0,0,1,.85-.84A2.56,2.56,0,0,1,60.27,32a2.33,2.33,0,0,1,1.51.46,2.41,2.41,0,0,1,.59.78,2.84,2.84,0,0,1,1-.93,2.87,2.87,0,0,1,1.33-.3,2.18,2.18,0,0,1,2.15,1.14,3.73,3.73,0,0,1,.31,1.66V40H65.82V34.55a1.27,1.27,0,0,0-.39-1.08,1.55,1.55,0,0,0-1-.29,1.9,1.9,0,0,0-1.34.52,2.29,2.29,0,0,0-.56,1.74V40H61.24V34.88A2.66,2.66,0,0,0,61,33.72a1.16,1.16,0,0,0-1.12-.55,1.93,1.93,0,0,0-1.36.58A2.84,2.84,0,0,0,58,35.84V40H56.64V32.16Z"/>
  <path class="cls-1" d="M75.74,34.77a9.06,9.06,0,0,1,.12,1.73H70.11a3.35,3.35,0,0,0,.56,1.92,1.89,1.89,0,0,0,1.63.72A2.11,2.11,0,0,0,74,38.45a2.3,2.3,0,0,0,.5-.92h1.3a2.73,2.73,0,0,1-.34,1,3.43,3.43,0,0,1-.65.87,3.07,3.07,0,0,1-1.49.79,4.52,4.52,0,0,1-1.08.12,3.3,3.3,0,0,1-2.48-1.07,4.15,4.15,0,0,1-1-3,4.51,4.51,0,0,1,1-3.07A3.38,3.38,0,0,1,72.4,32a3.57,3.57,0,0,1,1.62.39,3,3,0,0,1,1.19,1A3.5,3.5,0,0,1,75.74,34.77Zm-1.61-.69a1.91,1.91,0,0,0-1.81-1,2,2,0,0,0-1.52.66,2.48,2.48,0,0,0-.65,1.67H74.5A3.42,3.42,0,0,0,74.13,34.08Z"/>
  <path class="cls-1" d="M78.76,32.16v1.35a3,3,0,0,1,.75-1A2,2,0,0,1,80.9,32H81l.3,0v1.39l-.22,0h-.22a1.88,1.88,0,0,0-1.53.64,2.24,2.24,0,0,0-.53,1.48V40H77.51V32.16Z"/>
  <path class="cls-1" d="M87.37,34.79a2.36,2.36,0,0,0-.53-1.2,1.69,1.69,0,0,0-1.34-.48,1.85,1.85,0,0,0-1.8,1.23,4.89,4.89,0,0,0-.35,2,3.71,3.71,0,0,0,.5,2,1.93,1.93,0,0,0,2.87.3,2.76,2.76,0,0,0,.66-1.37h1.28a3.1,3.1,0,0,1-3.35,3,3,3,0,0,1-2.45-1.12,4.3,4.3,0,0,1-.92-2.81,4.73,4.73,0,0,1,1-3.22,3.24,3.24,0,0,1,2.56-1.15,3.42,3.42,0,0,1,2.16.64,3.09,3.09,0,0,1,1,2.22Z"/>
  <path class="cls-1" d="M91.31,29.24v1.49H90V29.24Zm0,3V40H90V32.19Z"/>
  <path class="cls-1" d="M98.11,34.87a1.16,1.16,0,0,0,.09-.51,1.07,1.07,0,0,0-.48-1,2.57,2.57,0,0,0-1.37-.3,1.75,1.75,0,0,0-1.46.56,1.83,1.83,0,0,0-.31.92H93.34a2.26,2.26,0,0,1,.94-2,3.86,3.86,0,0,1,2.1-.57,4.25,4.25,0,0,1,2.25.53,1.79,1.79,0,0,1,.86,1.64v4.52a.58.58,0,0,0,.08.33.41.41,0,0,0,.36.12h.2l.23,0v1a3.67,3.67,0,0,1-.47.11l-.44,0a1.08,1.08,0,0,1-1-.48,1.87,1.87,0,0,1-.23-.73,3.35,3.35,0,0,1-1.16.92,3.58,3.58,0,0,1-1.66.39,2.47,2.47,0,0,1-1.78-.66,2.2,2.2,0,0,1-.69-1.66,2.14,2.14,0,0,1,.68-1.69,3.24,3.24,0,0,1,1.79-.74l2.1-.26A.72.72,0,0,0,98.11,34.87Zm-1,4a1.81,1.81,0,0,0,1.1-1.75V36a2.26,2.26,0,0,1-.62.26,5.3,5.3,0,0,1-.75.15l-.8.1a3.05,3.05,0,0,0-1.08.3,1.17,1.17,0,0,0-.61,1.1,1.09,1.09,0,0,0,.42.9,1.55,1.55,0,0,0,1,.33A3,3,0,0,0,97.07,38.82Z"/>
  <path class="cls-1" d="M103,29.24V40h-1.32V29.24Z"/>
  <path class="cls-1" d="M114.3,29.24a3.28,3.28,0,0,1,2.31.81,2.94,2.94,0,0,1,.88,2.27,3.3,3.3,0,0,1-.78,2.19,3,3,0,0,1-2.41.93h-3.38V40h-1.46V29.24Zm-.48,1.25h-2.9v3.73h2.9a2.77,2.77,0,0,0,1.59-.42,1.66,1.66,0,0,0,.61-1.47,1.62,1.62,0,0,0-.88-1.61A3.17,3.17,0,0,0,113.82,30.49Z"/>
  <path class="cls-1" d="M124,34.87a1.16,1.16,0,0,0,.09-.51,1.07,1.07,0,0,0-.48-1,2.57,2.57,0,0,0-1.37-.3,1.75,1.75,0,0,0-1.46.56,1.83,1.83,0,0,0-.31.92h-1.23a2.26,2.26,0,0,1,.94-2,3.86,3.86,0,0,1,2.1-.57,4.25,4.25,0,0,1,2.24.53,1.79,1.79,0,0,1,.86,1.64v4.52a.57.57,0,0,0,.08.33.41.41,0,0,0,.35.12h.2l.23,0v1a3.67,3.67,0,0,1-.47.11l-.44,0a1.08,1.08,0,0,1-1-.48,1.87,1.87,0,0,1-.23-.73,3.35,3.35,0,0,1-1.16.92,3.58,3.58,0,0,1-1.66.39,2.47,2.47,0,0,1-1.78-.66,2.2,2.2,0,0,1-.69-1.66,2.14,2.14,0,0,1,.68-1.69,3.24,3.24,0,0,1,1.79-.74l2.1-.26A.72.72,0,0,0,124,34.87Zm-1,4a1.81,1.81,0,0,0,1.1-1.75V36a2.26,2.26,0,0,1-.62.26,5.3,5.3,0,0,1-.75.15l-.8.1a3.05,3.05,0,0,0-1.08.3,1.17,1.17,0,0,0-.61,1.1,1.09,1.09,0,0,0,.42.9,1.55,1.55,0,0,0,1,.33A3,3,0,0,0,122.91,38.82Z"/>
  <path class="cls-1" d="M128.78,32.16v1.35a3,3,0,0,1,.75-1,2,2,0,0,1,1.38-.57H131l.3,0v1.39l-.22,0h-.22a1.88,1.88,0,0,0-1.53.64,2.24,2.24,0,0,0-.53,1.48V40h-1.32V32.16Z"/>
  <path class="cls-1" d="M134.08,30v2.19h1.25v1.08h-1.25v5.12a.55.55,0,0,0,.28.55,1.18,1.18,0,0,0,.51.08h.46v1a3,3,0,0,1-.47.1,4.5,4.5,0,0,1-.53,0,1.43,1.43,0,0,1-1.25-.47,2.1,2.1,0,0,1-.33-1.23V33.23h-1.06V32.16h1.06V30Z"/>
  <path class="cls-1" d="M137.91,32.16v1.11a3.51,3.51,0,0,1,1.18-1,3.14,3.14,0,0,1,1.38-.3,2.28,2.28,0,0,1,2.26,1.16A4.14,4.14,0,0,1,143,35v5h-1.34V35.06a2.68,2.68,0,0,0-.21-1.16,1.29,1.29,0,0,0-1.27-.73,2.59,2.59,0,0,0-.77.1,2,2,0,0,0-1,.64,1.94,1.94,0,0,0-.43.8,5.37,5.37,0,0,0-.1,1.18V40h-1.32V32.16Z"/>
  <path class="cls-1" d="M151.6,34.77a9.06,9.06,0,0,1,.12,1.73H146a3.35,3.35,0,0,0,.56,1.92,1.89,1.89,0,0,0,1.63.72,2.11,2.11,0,0,0,1.65-.68,2.3,2.3,0,0,0,.5-.92h1.3a2.73,2.73,0,0,1-.34,1,3.43,3.43,0,0,1-.65.87,3.07,3.07,0,0,1-1.49.79,4.52,4.52,0,0,1-1.08.12,3.3,3.3,0,0,1-2.48-1.07,4.15,4.15,0,0,1-1-3,4.51,4.51,0,0,1,1-3.07A3.38,3.38,0,0,1,148.26,32a3.57,3.57,0,0,1,1.62.39,3,3,0,0,1,1.19,1A3.5,3.5,0,0,1,151.6,34.77ZM150,34.08a1.91,1.91,0,0,0-1.81-1,2,2,0,0,0-1.52.66,2.48,2.48,0,0,0-.65,1.67h4.36A3.42,3.42,0,0,0,150,34.08Z"/>
  <path class="cls-1" d="M154.63,32.16v1.35a3,3,0,0,1,.75-1,2,2,0,0,1,1.38-.57h.12l.3,0v1.39l-.22,0h-.22a1.88,1.88,0,0,0-1.53.64,2.24,2.24,0,0,0-.53,1.48V40h-1.32V32.16Z"/>
  <path class="cls-1" d="M159.45,38.55a2.07,2.07,0,0,0,1.73.64,2.54,2.54,0,0,0,1.29-.32,1.06,1.06,0,0,0,.56-1,.84.84,0,0,0-.45-.77,5.31,5.31,0,0,0-1.13-.37l-1-.26a5.11,5.11,0,0,1-1.48-.56,1.66,1.66,0,0,1-.85-1.48,2.26,2.26,0,0,1,.8-1.8A3.2,3.2,0,0,1,161,32a3,3,0,0,1,2.56,1,2.25,2.25,0,0,1,.48,1.38v0h-1.25a1.53,1.53,0,0,0-.31-.81,2,2,0,0,0-1.57-.52,1.88,1.88,0,0,0-1.13.29.89.89,0,0,0-.38.75.93.93,0,0,0,.51.82,3,3,0,0,0,.86.32l.87.21a6.74,6.74,0,0,1,1.9.67,1.76,1.76,0,0,1,.77,1.59,2.42,2.42,0,0,1-.79,1.81,3.38,3.38,0,0,1-2.42.76,3.25,3.25,0,0,1-2.48-.79,3,3,0,0,1-.78-2h1.27A1.92,1.92,0,0,0,159.45,38.55Z"/>
  <path class="cls-1" d="M168.06,32.26v1.6h-1.53v-1.6Zm0,6.15V40h-1.53V38.4Z"/>
  <path class="cls-1" d="M493.68,31.47a3,3,0,0,0-1-1.65,3,3,0,0,0-2-.61,3.24,3.24,0,0,0-2.57,1.12,5.09,5.09,0,0,0-1,3.42,5,5,0,0,0,.88,3.07A3.09,3.09,0,0,0,490.66,38a2.78,2.78,0,0,0,2.45-1.24,4.71,4.71,0,0,0,.67-1.71h1.42a4.86,4.86,0,0,1-1.26,2.85,4.49,4.49,0,0,1-3.46,1.38,4.57,4.57,0,0,1-3.15-1.14,5.92,5.92,0,0,1-1.68-4.64,5.92,5.92,0,0,1,1.26-3.9,4.6,4.6,0,0,1,3.76-1.66A4.41,4.41,0,0,1,493.85,29a3.8,3.8,0,0,1,1.25,2.45Z"/>
  <path class="cls-1" d="M498.15,28.24V39h-1.32V28.24Z"/>
  <path class="cls-1" d="M501.47,28.24v1.49h-1.34V28.24Zm0,3V39h-1.34V31.19Z"/>
  <path class="cls-1" d="M504.72,31.16v1.11a3.5,3.5,0,0,1,1.18-1,3.14,3.14,0,0,1,1.38-.3,2.28,2.28,0,0,1,2.26,1.16,4.14,4.14,0,0,1,.32,1.82v5h-1.34V34.06a2.68,2.68,0,0,0-.21-1.16,1.29,1.29,0,0,0-1.27-.73,2.6,2.6,0,0,0-.77.1,2,2,0,0,0-1,.64,1.93,1.93,0,0,0-.43.8,5.38,5.38,0,0,0-.1,1.18V39h-1.32V31.16Z"/>
  <path class="cls-1" d="M513.15,28.24v1.49h-1.34V28.24Zm0,3V39h-1.34V31.19Z"/>
  <path class="cls-1" d="M520,33.79a2.36,2.36,0,0,0-.54-1.2,1.68,1.68,0,0,0-1.34-.48,1.85,1.85,0,0,0-1.8,1.23,4.89,4.89,0,0,0-.35,2,3.71,3.71,0,0,0,.5,2,1.93,1.93,0,0,0,2.87.3,2.76,2.76,0,0,0,.66-1.37h1.28a3.1,3.1,0,0,1-3.35,3,3,3,0,0,1-2.45-1.12,4.31,4.31,0,0,1-.92-2.81,4.74,4.74,0,0,1,1-3.22,3.24,3.24,0,0,1,2.56-1.15,3.42,3.42,0,0,1,2.16.64,3.09,3.09,0,0,1,1,2.22Z"/>
  <path class="cls-1" d="M527.45,33.87a1.16,1.16,0,0,0,.09-.51,1.07,1.07,0,0,0-.48-1,2.57,2.57,0,0,0-1.37-.3,1.75,1.75,0,0,0-1.46.56,1.84,1.84,0,0,0-.31.92h-1.23a2.26,2.26,0,0,1,.94-2,3.86,3.86,0,0,1,2.1-.57,4.25,4.25,0,0,1,2.25.53,1.79,1.79,0,0,1,.86,1.64v4.52a.57.57,0,0,0,.08.33.41.41,0,0,0,.35.12h.2l.23,0v1a3.67,3.67,0,0,1-.47.11l-.44,0a1.09,1.09,0,0,1-1-.48,1.87,1.87,0,0,1-.23-.73,3.35,3.35,0,0,1-1.16.92,3.58,3.58,0,0,1-1.66.39A2.47,2.47,0,0,1,523,38.6a2.2,2.2,0,0,1-.69-1.66,2.14,2.14,0,0,1,.68-1.69,3.24,3.24,0,0,1,1.79-.74l2.1-.26A.72.72,0,0,0,527.45,33.87Zm-1,4a1.81,1.81,0,0,0,1.1-1.75V35a2.24,2.24,0,0,1-.62.26,5.3,5.3,0,0,1-.75.15l-.8.1a3.05,3.05,0,0,0-1.08.3,1.17,1.17,0,0,0-.61,1.1,1.09,1.09,0,0,0,.42.9,1.55,1.55,0,0,0,1,.33A3,3,0,0,0,526.4,37.82Z"/>
  <path class="cls-1" d="M532.34,28.24V39H531V28.24Z"/>
  <path class="cls-1" d="M542.64,28.24a3.28,3.28,0,0,1,2.31.81,2.94,2.94,0,0,1,.88,2.27,3.3,3.3,0,0,1-.78,2.19,3,3,0,0,1-2.41.93h-3.38V39H537.8V28.24Zm-.48,1.25h-2.9v3.73h2.9a2.77,2.77,0,0,0,1.59-.42,1.65,1.65,0,0,0,.61-1.47,1.62,1.62,0,0,0-.88-1.61A3.18,3.18,0,0,0,542.15,29.49Z"/>
  <path class="cls-1" d="M552.3,33.87a1.16,1.16,0,0,0,.09-.51,1.07,1.07,0,0,0-.48-1,2.57,2.57,0,0,0-1.37-.3,1.75,1.75,0,0,0-1.46.56,1.83,1.83,0,0,0-.31.92h-1.23a2.26,2.26,0,0,1,.94-2,3.86,3.86,0,0,1,2.1-.57,4.25,4.25,0,0,1,2.25.53,1.79,1.79,0,0,1,.86,1.64v4.52a.58.58,0,0,0,.08.33.41.41,0,0,0,.36.12h.2l.23,0v1a3.67,3.67,0,0,1-.47.11l-.44,0a1.08,1.08,0,0,1-1-.48,1.85,1.85,0,0,1-.23-.73,3.36,3.36,0,0,1-1.16.92,3.57,3.57,0,0,1-1.66.39,2.47,2.47,0,0,1-1.78-.66,2.2,2.2,0,0,1-.69-1.66,2.14,2.14,0,0,1,.68-1.69,3.25,3.25,0,0,1,1.79-.74l2.1-.26A.72.72,0,0,0,552.3,33.87Zm-1,4a1.81,1.81,0,0,0,1.1-1.75V35a2.26,2.26,0,0,1-.62.26,5.29,5.29,0,0,1-.75.15l-.8.1a3,3,0,0,0-1.08.3,1.17,1.17,0,0,0-.61,1.1,1.09,1.09,0,0,0,.42.9,1.55,1.55,0,0,0,1,.33A3,3,0,0,0,551.25,37.82Z"/>
  <path class="cls-1" d="M557.12,31.16v1.35a3,3,0,0,1,.75-1,2,2,0,0,1,1.38-.57h.13l.3,0v1.39l-.22,0h-.22a1.88,1.88,0,0,0-1.53.64,2.23,2.23,0,0,0-.54,1.48V39h-1.32V31.16Z"/>
  <path class="cls-1" d="M562.42,29v2.19h1.25v1.08h-1.25v5.12a.55.55,0,0,0,.28.55,1.18,1.18,0,0,0,.51.08h.46v1a2.94,2.94,0,0,1-.47.1,4.48,4.48,0,0,1-.53,0,1.43,1.43,0,0,1-1.25-.47,2.1,2.1,0,0,1-.33-1.23V32.23H560V31.16h1.06V29Z"/>
  <path class="cls-1" d="M566.24,31.16v1.11a3.51,3.51,0,0,1,1.18-1,3.14,3.14,0,0,1,1.38-.3,2.28,2.28,0,0,1,2.26,1.16,4.13,4.13,0,0,1,.32,1.82v5H570V34.06a2.66,2.66,0,0,0-.21-1.16,1.29,1.29,0,0,0-1.27-.73,2.6,2.6,0,0,0-.77.1,2,2,0,0,0-1,.64,2,2,0,0,0-.43.8,5.44,5.44,0,0,0-.1,1.18V39H565V31.16Z"/>
  <path class="cls-1" d="M579.94,33.77a9.06,9.06,0,0,1,.12,1.73h-5.75a3.35,3.35,0,0,0,.56,1.92,1.89,1.89,0,0,0,1.63.72,2.11,2.11,0,0,0,1.65-.68,2.3,2.3,0,0,0,.5-.92h1.3a2.72,2.72,0,0,1-.34,1,3.43,3.43,0,0,1-.65.87,3.07,3.07,0,0,1-1.49.79,4.52,4.52,0,0,1-1.08.12,3.3,3.3,0,0,1-2.48-1.07,4.15,4.15,0,0,1-1-3,4.51,4.51,0,0,1,1-3.07A3.38,3.38,0,0,1,576.6,31a3.57,3.57,0,0,1,1.62.39,3,3,0,0,1,1.19,1A3.5,3.5,0,0,1,579.94,33.77Zm-1.61-.69a1.91,1.91,0,0,0-1.81-1,2,2,0,0,0-1.52.66,2.48,2.48,0,0,0-.65,1.67h4.36A3.42,3.42,0,0,0,578.33,33.08Z"/>
  <path class="cls-1" d="M583,31.16v1.35a3,3,0,0,1,.75-1A2,2,0,0,1,585.1,31h.13l.3,0v1.39l-.22,0h-.22a1.88,1.88,0,0,0-1.53.64,2.23,2.23,0,0,0-.53,1.48V39h-1.32V31.16Z"/>
  <path class="cls-1" d="M587.78,37.55a2.07,2.07,0,0,0,1.73.64,2.54,2.54,0,0,0,1.29-.32,1.06,1.06,0,0,0,.56-1,.84.84,0,0,0-.45-.77,5.33,5.33,0,0,0-1.13-.37l-1-.26a5.11,5.11,0,0,1-1.48-.56,1.66,1.66,0,0,1-.85-1.48,2.26,2.26,0,0,1,.8-1.8,3.2,3.2,0,0,1,2.16-.69,3,3,0,0,1,2.56,1,2.25,2.25,0,0,1,.48,1.38v0h-1.25a1.53,1.53,0,0,0-.32-.81,2,2,0,0,0-1.57-.52,1.88,1.88,0,0,0-1.13.29.9.9,0,0,0-.38.75.93.93,0,0,0,.5.82,3,3,0,0,0,.86.32l.87.21a6.74,6.74,0,0,1,1.9.67,1.76,1.76,0,0,1,.77,1.59,2.42,2.42,0,0,1-.79,1.81,3.38,3.38,0,0,1-2.42.76,3.25,3.25,0,0,1-2.48-.79,3,3,0,0,1-.78-2h1.27A1.92,1.92,0,0,0,587.78,37.55Z"/>
  <path class="cls-1" d="M596.4,31.26v1.6h-1.53v-1.6Zm0,6.15V39h-1.53V37.4Z"/>
  <g>
    <path class="cls-1" d="M750.68,39.55h-50V25.32h5V23.6h-12.5v1.77h5V39.52H683.65V23.59h-2.43V39.51H669.93v-16c-.61,0-1.17,0-1.72,0a.69.69,0,0,0-.74.45c-1.52,2.94-3.07,5.87-4.6,8.81-.57,1.09-1.13,2.19-1.73,3.36l-.34-.73q-2.69-5.68-5.38-11.36c-.09-.2-.27-.48-.43-.49-.77-.05-1.54,0-2.39,0V39.51H641.37V23.61h-2.47V39.52H626.18l2.59-1.18-1-1.56c-3.19,1.86-6.5,1.51-8.54-.85a7.26,7.26,0,0,1-.18-8.74,5.44,5.44,0,0,1,3.33-2,7.1,7.1,0,0,1,5.53,1.28l1.07-1.6a21,21,0,0,0-2-1,20.17,20.17,0,0,0-2.11-.6h-2c-.69.16-1.41.27-2.08.5a8.06,8.06,0,0,0-5.6,6.37,2.13,2.13,0,0,1-.12.32v2.16c0,.15.1.3.12.45a7.66,7.66,0,0,0,5.22,6.24l.44.18,0,.15h-5.61v.27c2.62,0,5.25,0,7.87,0h15.91v.87q0,11,0,22a2.94,2.94,0,0,0,.15.64,2.28,2.28,0,0,0,.2-.64q0-11,0-22.07v-.81H750.62l.78,0v-.36Zm-96,0v-12l5.59,12Zm12.84,0h-6.09l6.09-12.12Z"/>
    <path class="cls-1" d="M723.48,60.25a1.38,1.38,0,0,0-1.29,1.08,1.8,1.8,0,0,0,.41,1.89,1.42,1.42,0,0,0,1.77.12c.07,1.05-.48,1.29-1.94.82l-.21.48.63.37h1.2a1.53,1.53,0,0,0,1.1-1.35c0-1.09,0-2.19,0-3.28A12.78,12.78,0,0,0,723.48,60.25Zm.95,1.82a1.61,1.61,0,0,1-.18.52.93.93,0,0,1-.51.36c-.44.11-.77-.28-.85-.93s.23-1.16.71-1.2a.83.83,0,0,1,.83.84C724.43,61.75,724.43,61.83,724.43,62.07Z"/>
    <path class="cls-1" d="M727.28,62.38l-.87-2.16-.73.23.92,2.17a1.2,1.2,0,0,1-1,1.86V65h.72c.24-.21.57-.37.7-.63.64-1.3,1.22-2.62,1.84-4l-.71-.14Z"/>
    <path class="cls-1" d="M717.42,52.44c-.43.88-.91,1.75-1.41,2.7-.46-1-.9-1.78-1.25-2.64a.76.76,0,0,0-1.08-.53v4.28h.69v-2.8c.44.9.79,1.66,1.16,2.4a2.33,2.33,0,0,0,.4.45,2.45,2.45,0,0,0,.42-.45c.4-.73.76-1.47,1.14-2.2l.14,0v2.61h.74V52C717.85,51.78,717.62,52,717.42,52.44Z"/>
    <path class="cls-1" d="M694.68,60.51c-2.18-.18-2.16-.28-2.2.39.73.06.81.17.71,1l-.89-.82a3.7,3.7,0,0,1-.58-.6c-.1-.16-.19-.45-.11-.57s.37-.15.57-.16a1.56,1.56,0,0,1,.47.14l.23-.46a1.38,1.38,0,0,0-1.84,0,.87.87,0,0,0-.3.55,6.74,6.74,0,0,0,.28,1.14c-.74.68-.87,1.32-.37,2s1.55.72,2.7,0c.77.57.77.57,1.31.08a4.34,4.34,0,0,1-.53-.47,1,1,0,0,1-.26-.53,8.5,8.5,0,0,1,.05-1.05Zm-3.28,2.2c-.34-.37-.27-.82.22-1.24l1.2,1.08C692.31,63.05,691.76,63.1,691.4,62.71Z"/>
    <path class="cls-1" d="M687.66,53.21c-.15.06-.38.14-.47.07-.78-.54-1.59.1-2.39-.19v3.17h.74c0-.63,0-1.21,0-1.78,0-.42.12-.78.62-.78s.59.39.59.8c0,.59,0,1.18,0,1.8h.74c0-.62,0-1.17,0-1.73s.09-.87.66-.87.54.45.56.82c0,.59,0,1.18,0,1.81l.77,0c0-.7,0-1.33,0-2C689.41,53.18,688.7,52.77,687.66,53.21Z"/>
    <path class="cls-1" d="M710.93,56.49c.11-1.1,0-2.23,0-3.31a11.57,11.57,0,0,0-1.7-.12A1.42,1.42,0,0,0,708,54.15a1.73,1.73,0,0,0,.42,1.88,1.31,1.31,0,0,0,1.66.15s.1,0,.2,0c-.23,1.47-1.18,1-2.06.8l-.17.48C709.38,58.22,710.8,57.77,710.93,56.49Zm-1.53-.7c-.46,0-.74-.47-.72-1.18s.29-1,.74-1a.92.92,0,0,1,.82,1C710.22,55.34,709.86,55.8,709.39,55.78Z"/>
    <path class="cls-1" d="M691,56.18c.22.07.36.13.51.17A1.51,1.51,0,0,0,693.34,55c.16-1.07-.41-1.93-1.34-1.94a16.15,16.15,0,0,0-1.73.16v4.58H691Zm.82-2.55c.45,0,.73.42.73,1s-.29,1.1-.74,1.11-.82-.4-.81-1S691.34,53.63,691.82,53.63Z"/>
    <path class="cls-1" d="M724.7,53.22c-.25-.07-.44-.13-.63-.16a1.52,1.52,0,0,0-1.69,1.32c-.16,1,.38,1.95,1.23,2a14.92,14.92,0,0,0,1.82-.13v-4.5h-.73Zm-.22,2.21a1,1,0,0,1-.7.33c-.44,0-.7-.64-.61-1.32.06-.48.27-.8.79-.79s.73.43.74,1.15A1.59,1.59,0,0,1,724.49,55.43Z"/>
    <path class="cls-1" d="M647.47,62.26c-.25-.61-.43-1.12-.66-1.61a.63.63,0,0,0-.41-.32c-.1,0-.28.18-.34.31-.23.51-.42,1-.67,1.63l-.7-2-.73.17c.34,1,.64,1.84,1,2.71.06.15.24.35.37.35s.33-.18.39-.33c.24-.52.43-1.07.68-1.7.27.67.48,1.23.72,1.77a.5.5,0,0,0,.33.26.44.44,0,0,0,.37-.19c.36-1,.7-1.93,1.05-2.94l-.7-.11Z"/>
    <path class="cls-1" d="M655.77,61.36a1.09,1.09,0,0,0-1.48-1.09c-.17,0-.34.1-.58.18V58.92H653v4.56h.72c0-.65,0-1.25,0-1.85s.24-.79.72-.79.59.38.59.8c0,.6,0,1.19,0,1.8h.76c0-.21,0-.37,0-.53C655.77,62.4,655.79,61.88,655.77,61.36Z"/>
    <path class="cls-1" d="M707.58,60.32l-.45.13V58.92h-.69v4.54h.7c0-.64,0-1.23,0-1.83a.69.69,0,0,1,.71-.79c.48,0,.61.36.61.79,0,.61,0,1.22,0,1.84l.37,0,.37,0c0-.69,0-1.33,0-2C709.18,60.48,708.57,60,707.58,60.32Z"/>
    <path class="cls-1" d="M647.83,52.81l.3-.46a2.47,2.47,0,0,0-3.31.29,2.34,2.34,0,0,0,0,3.07,2.5,2.5,0,0,0,3.2.19l-.31-.45c-1,.45-1.74.38-2.24-.21a1.87,1.87,0,0,1-.13-2.13C645.84,52.43,646.5,52.35,647.83,52.81Z"/>
    <path class="cls-1" d="M734.34,53c-.57,0-1.13.09-1.71.14v3.07h.72c0-.62,0-1.2,0-1.77s.21-.84.72-.84.59.39.59.8c0,.59,0,1.19,0,1.82h.76c0-.73,0-1.39,0-2S735,53,734.34,53Z"/>
    <path class="cls-1" d="M682.7,60.23a1.68,1.68,0,1,0,1.58,1.67A1.57,1.57,0,0,0,682.7,60.23Zm0,2.75c-.48,0-.76-.41-.76-1.09s.31-1.07.8-1.06.79.46.77,1.1S683.17,63,682.68,63Z"/>
    <path class="cls-1" d="M699.12,54.68a1.58,1.58,0,1,0-1.59,1.71A1.57,1.57,0,0,0,699.12,54.68Zm-2.36,0c0-.64.27-1,.74-1.06s.71.29.79.73c.12.68-.09,1.25-.53,1.39S696.76,55.47,696.76,54.69Z"/>
    <path class="cls-1" d="M668.76,60.23a1.68,1.68,0,1,0,1.57,1.67A1.55,1.55,0,0,0,668.76,60.23Zm0,2.75c-.48,0-.77-.41-.78-1.08s.3-1.07.79-1.07.8.45.79,1.08S669.23,63,668.75,63Z"/>
    <path class="cls-1" d="M715,60.23a1.68,1.68,0,1,0,1.57,1.68A1.58,1.58,0,0,0,715,60.23ZM715,63c-.47,0-.78-.45-.78-1.09s.34-1.07.81-1.06.77.43.76,1.1S715.49,63,715,63Z"/>
    <path class="cls-1" d="M720.11,53.13a1.42,1.42,0,0,0-1,1.34,1.62,1.62,0,0,0,2.51,1.66c.11-.07.1-.36.17-.67-1.08.57-1.83.27-1.84-.59h1.88C722,53.54,721.19,52.75,720.11,53.13Zm1,1.13H720l-.11-.19c.24-.14.48-.38.73-.39s.39.27.59.43Z"/>
    <path class="cls-1" d="M676.82,56.38a1.68,1.68,0,1,0-1.57-1.74A1.61,1.61,0,0,0,676.82,56.38Zm0-2.75c.48,0,.79.42.79,1.07s-.29,1.07-.78,1.08-.79-.42-.78-1.13S676.38,53.63,676.84,53.63Z"/>
    <path class="cls-1" d="M706.54,56.27h.72c0-.77,0-1.51,0-2.25a.93.93,0,0,0-1-1,16.9,16.9,0,0,0-1.83.13v3.08h.73c0-.61,0-1.15,0-1.68s.15-.92.69-.93.64.48.65.94S706.54,55.7,706.54,56.27Z"/>
    <path class="cls-1" d="M675.69,60.33a1.5,1.5,0,0,0-1.7.43l.29.39c.42-.28.83-.59,1.31,0a3.6,3.6,0,0,0-1,.36,2.13,2.13,0,0,0-.79.94,1.19,1.19,0,0,0,.42.95.84.84,0,0,0,1.11-.07l1,.14c0-.7,0-1.29,0-1.89S676.28,60.57,675.69,60.33Zm-.39,2.36c-.11.13-.39.11-.59.16,0-.23-.05-.53.07-.67a2.16,2.16,0,0,1,.71-.38l.15.12A2.88,2.88,0,0,1,675.29,62.69Z"/>
    <path class="cls-1" d="M686.62,60.24c-.55,0-1.11.09-1.7.15V63.5l.72,0c0-.57,0-1.07,0-1.57,0-.72.21-1,.68-1.06s.63.29.64,1.08c0,.51,0,1,0,1.55h.73c0-.77,0-1.51,0-2.24A1,1,0,0,0,686.62,60.24Z"/>
    <path class="cls-1" d="M665.59,60.25a17.58,17.58,0,0,0-1.82.14v3.12l.72,0c0-.66,0-1.25,0-1.85a.7.7,0,0,1,.72-.78c.5,0,.6.39.61.79,0,.61,0,1.22,0,1.84h.73c0-.76,0-1.46,0-2.15A1,1,0,0,0,665.59,60.25Z"/>
    <path class="cls-1" d="M661.83,60.24c-.55,0-1.1.1-1.69.16v3.08h.71c0-.62,0-1.21,0-1.81s.24-.83.76-.82.58.42.59.82c0,.59,0,1.19,0,1.81h.72c0-.81,0-1.55,0-2.28A1,1,0,0,0,661.83,60.24Z"/>
    <path class="cls-1" d="M651.59,54.69a1.57,1.57,0,1,0-3.14,0A1.55,1.55,0,0,0,650,56.39,1.57,1.57,0,0,0,651.59,54.69Zm-2.38,0c0-.59.31-1,.75-1.06s.82.39.84,1-.3,1.13-.8,1.12S649.22,55.34,649.22,54.7Z"/>
    <path class="cls-1" d="M653.66,53.65c.53,0,.61.4.6.85s0,1.18,0,1.81l.75,0c0-.78,0-1.5,0-2.21a1,1,0,0,0-1.09-1c-.55,0-1.1.1-1.68.15v3.08h.71c0-.61,0-1.19,0-1.76S653.15,53.66,653.66,53.65Z"/>
    <path class="cls-1" d="M668.32,56a.94.94,0,0,0,1.31.28.67.67,0,0,1,.38-.07c.25,0,.5.12.79.19,0-.47-.1-.82-.11-1.17s0-.76,0-1.14a.92.92,0,0,0-.8-1,1.5,1.5,0,0,0-1.55.47l.34.38c.75-.44.82-.44,1.25,0a10.79,10.79,0,0,0-1.33.61A1,1,0,0,0,668.32,56Zm.86-1a2.92,2.92,0,0,1,.68-.32l.14.12a3.47,3.47,0,0,1-.3.74.82.82,0,0,1-.49.25c-.06,0-.24-.19-.23-.28A.78.78,0,0,1,669.18,54.93Z"/>
    <path class="cls-1" d="M711.77,60.24c-.57,0-1.14.09-1.71.15v3.09h.7c0-.68,0-1.3,0-1.92a.68.68,0,0,1,.73-.71c.45,0,.59.34.58.74,0,.61,0,1.23,0,1.86h.75c0-.75,0-1.45,0-2.15A1,1,0,0,0,711.77,60.24Z"/>
    <path class="cls-1" d="M661.23,54.71a1.58,1.58,0,1,0-1.62,1.68A1.56,1.56,0,0,0,661.23,54.71Zm-1.55,1.08c-.49,0-.79-.38-.8-1.05s.29-1.08.77-1.1.81.41.81,1.06S660.15,55.77,659.67,55.78Z"/>
    <path class="cls-1" d="M720.09,60.23a1.68,1.68,0,1,0,1.62,1.63A1.59,1.59,0,0,0,720.09,60.23Zm0,2.75c-.48,0-.75-.41-.74-1.11s.28-1,.75-1,.82.4.82,1S720.59,63,720.09,63Z"/>
    <path class="cls-1" d="M736.86,54.87h1.89c.11-.86-.14-1.47-.65-1.72a1.46,1.46,0,0,0-1.61.3,1.89,1.89,0,0,0-.08,2.41,1.69,1.69,0,0,0,2.37.07l-.21-.4C737.47,56,737,55.8,736.86,54.87Zm.66-1.23c.37,0,.55.24.55.64h-1.15A.55.55,0,0,1,737.51,53.65Z"/>
    <path class="cls-1" d="M702.08,60.35a1.47,1.47,0,0,0-1.6.3,2,2,0,0,0-.06,2.42,1.71,1.71,0,0,0,2.37,0l-.23-.38c-1.06.43-1.48.27-1.76-.74h2C702.81,61.29,702.73,60.68,702.08,60.35ZM702,61.42h-1.08l-.09-.16c.21-.15.42-.4.64-.4s.43.24.64.38Z"/>
    <path class="cls-1" d="M700.25,59.14h-3.41v.61h1.3v3.7h.79V59.71h1.32Z"/>
    <path class="cls-1" d="M674.89,52.28c.07,0,.2-.18.22-.29s-.12-.19-.21-.23a1,1,0,0,0-1.26.81c0,.23.05.56-.36.55a2,2,0,0,0,0,.5c.06.19.27.35.28.53,0,.69,0,1.39,0,2.16l.79,0V53.66l.63-.07c.24-.72-.44-.35-.63-.58C674.36,52.65,674.24,52.24,674.89,52.28Z"/>
    <path class="cls-1" d="M672.08,62.39l-.85-2.16-.75.2c.42,1,.8,1.92,1.21,2.82.15.34.52.37.67,0,.44-.95.85-1.91,1.29-2.91l-.69-.15Z"/>
    <path class="cls-1" d="M701.13,56.12c.46-.94.86-1.91,1.3-2.91l-.68-.16-.89,2.14L700,53l-.74.2c.43,1,.81,1.94,1.23,2.85C700.65,56.42,701,56.43,701.13,56.12Z"/>
    <path class="cls-1" d="M705.29,60.9c.16,0,.37-.13.61-.22a1.68,1.68,0,0,0-2.23,0,1.82,1.82,0,0,0-.18,2.26,1.73,1.73,0,0,0,2,.5c.38-.17.42-.37.11-.67l-.21.08a.94.94,0,0,1-1.2-.18,1.17,1.17,0,0,1-.1-1.4A.93.93,0,0,1,705.29,60.9Z"/>
    <path class="cls-1" d="M730,53.71c.14,0,.35-.12.66-.25a1.69,1.69,0,0,0-2.49,2.27,1.69,1.69,0,0,0,2,.52c.41-.17.44-.38.15-.67l-.14,0c-.47.21-.94.29-1.3-.17a1.15,1.15,0,0,1-.1-1.35A.94.94,0,0,1,730,53.71Z"/>
    <path class="cls-1" d="M657.28,54.61c-.16-.15-.36-.26-.51-.41a2.4,2.4,0,0,1-.27-.42c.18,0,.39-.16.52-.1.36.17.51,0,.62-.28a1.23,1.23,0,0,0-1.76,0c-.36.45-.2.92.48,1.43l0,0c.24.19.67.35.43.72s-.59.11-.88-.07c0,0-.08,0-.15,0l-.41.52a7,7,0,0,0,1.19.32,1,1,0,0,0,1-.65A1,1,0,0,0,657.28,54.61Z"/>
    <path class="cls-1" d="M678,62.59c0-.57,0-1.14,0-1.67.29-.2.94.14.7-.59l-.68-.05-.06-1a5.3,5.3,0,0,0-.7.55,2.94,2.94,0,0,0-.43.7c0,.06.07.19.12.29s.27.34.29.53c0,.41,0,.84,0,1.25a1,1,0,0,0,1.3.95c.38-.11.5-.3.2-.62C678.12,63,678,63,678,62.59Z"/>
    <path class="cls-1" d="M665.86,53.6c0-.42,0-.42-.69-.57l0-.81-.16-.11L664,53.17a.23.23,0,0,0-.05.16c0,.09,0,.25.09.25.48.06.32.42.34.69a5.79,5.79,0,0,0,0,1c.08.34.21.81.46.93a2.94,2.94,0,0,0,1.2,0l.06-.29a3.12,3.12,0,0,1-.52-.21c-.17-.1-.43-.25-.44-.39-.05-.57,0-1.14,0-1.71Z"/>
    <path class="cls-1" d="M651.62,62.41c0-.51,0-1,0-1.52.77-.12.77-.12.72-.56l-.69-.06-.07-.89-.67.22.12.11a4.34,4.34,0,0,0-.48.64.66.66,0,0,0,.05.45c.07.18.25.35.26.53,0,.43,0,.88,0,1.31a.94.94,0,0,0,1.24.91c.44-.1.59-.3.23-.68C651.86,63.11,651.63,62.92,651.62,62.41Z"/>
    <path class="cls-1" d="M683.89,51.94h-.71v4.37l.71,0Z"/>
    <path class="cls-1" d="M658.48,63.46h.75V59.13h-.75Z"/>
    <path class="cls-1" d="M661.84,53.06v3.2h.77c0-.69,0-1.33,0-2,0-.32.12-.57.57-.49.17,0,.38-.17.62-.29C663.19,52.7,662.47,53.37,661.84,53.06Z"/>
    <path class="cls-1" d="M694,53.06v3.19h.74c0-.65,0-1.25,0-1.84,0-.36.06-.74.64-.59.14,0,.35-.2.55-.32C695.33,52.7,694.62,53.35,694,53.06Z"/>
    <path class="cls-1" d="M717.23,63.47h.67V58.88l-.67,0Z"/>
    <path class="cls-1" d="M679.07,53.06v3.21h.71c0-.64,0-1.25,0-1.86,0-.32.05-.72.51-.6s.49-.16.62-.41C680.37,52.71,679.68,53.38,679.07,53.06Z"/>
    <path class="cls-1" d="M731.06,56.25h.7V53.14h-.7Z"/>
    <path class="cls-1" d="M649.26,63.48h.67V60.35h-.67Z"/>
    <path class="cls-1" d="M726.39,56.27h.69V53.14h-.69Z"/>
    <path class="cls-1" d="M679.7,63.48h.67V60.34h-.67Z"/>
    <path class="cls-1" d="M667.4,53.13h-.65v3.17l.65,0Z"/>
    <path class="cls-1" d="M703.63,53.14H703v3.13h.68Z"/>
    <path class="cls-1" d="M731,52.19a.63.63,0,0,0,.36.47c.15,0,.35-.17.71-.36-.33-.24-.49-.45-.66-.45S731,52.08,731,52.19Z"/>
    <path class="cls-1" d="M726.73,51.84c-.1,0-.38.23-.39.37s.16.36.35.72c.24-.34.47-.51.45-.67A.64.64,0,0,0,726.73,51.84Z"/>
    <path class="cls-1" d="M679.61,59.43a.65.65,0,0,0,.44.41c.11,0,.39-.23.4-.37s-.18-.35-.38-.69C679.83,59.1,679.59,59.29,679.61,59.43Z"/>
    <path class="cls-1" d="M703.68,52.24c0-.15-.26-.42-.36-.4a.65.65,0,0,0-.46.39c0,.15.19.35.4.69C703.48,52.59,703.68,52.41,703.68,52.24Z"/>
    <path class="cls-1" d="M649.18,59.42a.65.65,0,0,0,.41.43c.15,0,.34-.2.68-.42-.35-.21-.53-.4-.71-.39S649.15,59.32,649.18,59.42Z"/>
    <path class="cls-1" d="M667,52.65a.64.64,0,0,0,.46-.37c0-.15-.18-.35-.39-.71-.23.34-.43.51-.43.67S666.93,52.67,667,52.65Z"/>
    <path class="cls-1" d="M709.09,25.84h.25l0,0v-.61h.1l.09,0,.07,0,.05.08,0,.1.14.34v0l0,0h.3v-.05l0-.07-.13-.3,0-.1-.05-.08-.06-.06-.06,0,.13-.06L710,25a.36.36,0,0,0,.06-.11.48.48,0,0,0,0-.14.45.45,0,0,0,0-.16.35.35,0,0,0-.08-.12.4.4,0,0,0-.13-.08l-.17,0h-.57l-.07,0a.1.1,0,0,0,0,.08v1.42Zm.28-1.3h.28a.19.19,0,0,1,.11.07.23.23,0,0,1,0,.13.23.23,0,0,1,0,.09.19.19,0,0,1-.05.07l-.08,0-.12,0h-.16Z"/>
    <path class="cls-1" d="M709.66,27a2,2,0,1,0-2-2A2,2,0,0,0,709.66,27Zm0-3.62A1.66,1.66,0,1,1,708,25.07,1.66,1.66,0,0,1,709.66,23.41Z"/>
  </g>
</svg>
