<?xml version="1.0" standalone="no"?>
<!DOCTYPE svg PUBLIC "-//W3C//DTD SVG 20010904//EN"
 "http://www.w3.org/TR/2001/REC-SVG-20010904/DTD/svg10.dtd">
<svg version="1.0" xmlns="http://www.w3.org/2000/svg"
 width="112.000000pt" height="112.000000pt" viewBox="0 0 112.000000 112.000000"
 preserveAspectRatio="xMidYMid meet">
<metadata>
Created by potrace 1.11, written by Peter Selinger 2001-2013
</metadata>
<g transform="translate(0.000000,112.000000) scale(0.100000,-0.100000)"
fill="#000000" stroke="none">
<path d="M392 1059 c-109 -21 -243 -131 -295 -241 -25 -53 -49 -153 -39 -163
3 -3 20 -5 38 -5 31 0 33 2 43 50 22 104 102 209 196 258 45 24 63 27 183 30
l132 4 0 -161 c0 -148 1 -161 19 -171 11 -5 86 -10 170 -10 l151 0 0 -65 0
-65 40 0 40 0 0 254 0 255 -26 20 c-26 20 -38 21 -318 20 -160 -1 -310 -5
-334 -10z"/>
<path d="M364 916 c-28 -13 -67 -38 -86 -55 -46 -40 -88 -123 -88 -174 0 -36
2 -38 27 -35 23 2 29 9 34 38 3 19 13 49 22 66 31 59 123 124 177 124 16 0 20
7 20 30 0 26 -4 30 -27 30 -16 0 -51 -11 -79 -24z"/>
<path d="M393 800 c-49 -22 -83 -70 -83 -118 0 -30 3 -33 26 -30 20 2 29 11
38 38 8 27 21 40 54 55 35 16 42 24 42 47 0 34 -17 36 -77 8z"/>
<path d="M52 335 c3 -228 5 -256 21 -272 16 -17 44 -18 340 -18 310 0 324 1
377 22 75 31 159 99 202 165 39 57 78 160 78 203 0 22 -4 25 -39 25 -37 0 -39
-1 -44 -39 -13 -103 -103 -223 -202 -271 -45 -23 -62 -25 -180 -25 l-130 0 -3
162 c-2 159 -3 163 -25 168 -12 3 -87 6 -167 8 l-145 2 -3 63 -3 62 -40 0 -40
0 3 -255z"/>
<path d="M755 431 c-7 -35 -40 -66 -78 -75 -24 -6 -28 -11 -25 -34 3 -24 7
-27 38 -24 61 4 116 59 127 125 5 36 5 37 -25 37 -25 0 -31 -5 -37 -29z"/>
<path d="M877 422 c-14 -86 -103 -175 -191 -189 -30 -5 -36 -10 -36 -30 0 -33
24 -39 85 -19 97 30 188 134 201 229 7 47 7 47 -23 47 -27 0 -31 -4 -36 -38z"/>
</g>
</svg>
