<?xml version="1.0" encoding="utf-8"?>
<!-- Generator: Adobe Illustrator 21.1.0, SVG Export Plug-In . SVG Version: 6.00 Build 0)  -->
<svg version="1.1" id="Layer_1" xmlns="http://www.w3.org/2000/svg" xmlns:xlink="http://www.w3.org/1999/xlink" x="0px" y="0px"
	 viewBox="0 0 216 144" style="enable-background:new 0 0 216 144;" xml:space="preserve">
<style type="text/css">
	.st0{opacity:0.23;fill:#928E8D;}
	.st1{opacity:0.55;fill:none;stroke:#928E8D;stroke-width:1.0755;stroke-miterlimit:10;}
	.st2{opacity:0.44;fill:none;stroke:#928E8D;stroke-width:0.6175;stroke-miterlimit:10;}
	.st3{opacity:0.44;fill:none;stroke:#928E8D;stroke-width:1.235;stroke-miterlimit:10;}
	.st4{fill:none;stroke:#928E8D;stroke-width:1.0755;stroke-miterlimit:10;}
	.st5{fill:none;stroke:#928E8D;stroke-width:0.8053;stroke-miterlimit:10;}
	.st6{fill:none;stroke:#928E8D;stroke-width:0.475;stroke-miterlimit:10;}
	.st7{opacity:0.44;fill:#928E8D;}
	.st8{fill:#928E8D;}
	.st9{fill:#FFFFFF;}
	.st10{opacity:0.9;}
	.st11{fill:none;}
	.st12{display:none;fill:#FFFFFF;}
	.st13{fill:none;stroke:#928E8D;stroke-width:0.4634;stroke-miterlimit:10;}
	.st14{fill:none;stroke:#928E8D;stroke-width:0.1545;stroke-miterlimit:10;}
	.st15{fill:#C2C0C1;}
	.st16{fill:none;stroke:#928E8D;stroke-width:0.75;stroke-linecap:round;stroke-linejoin:round;stroke-miterlimit:10;}
	.st17{fill:none;stroke:#928E8D;stroke-width:0.5;stroke-linecap:round;stroke-linejoin:round;stroke-miterlimit:10;}
	.st18{fill:none;stroke:#928E8D;stroke-miterlimit:10;}
	.st19{display:none;fill:#FAFAFB;stroke:#BAB9C1;stroke-width:0.4463;stroke-miterlimit:10;}
	.st20{fill:#FAFAFB;stroke:#BAB9C1;stroke-width:0.4463;stroke-miterlimit:10;}
	.st21{fill:none;stroke:#928E8D;stroke-width:0.5773;stroke-miterlimit:10;}
	.st22{fill:none;stroke:#928E8D;stroke-width:0.75;stroke-miterlimit:10;}
	.st23{fill:#FAFAFB;stroke:#928E8D;stroke-width:0.5579;stroke-miterlimit:10;}
</style>
<g>
	<g>
		<path class="st8" d="M117.2,59c-0.1-1.4-0.3-2.9-0.9-4.2c-0.2-0.6-0.5-1.3-1-1.6c-0.9-0.6-1.3-1.3-2-2c-0.2-0.3-0.5-0.5-0.7-0.7
			c-2.5-1.8-4.9-3.6-7.3-5.4c-0.3-0.2-0.6-0.4-1-0.4l-5.9-4.4c-0.1-0.4-0.3-0.6-0.6-0.8c-0.5-0.4-1.1-0.8-1.6-1.2
			c-2.2-1.6-4.4-3.2-6.6-4.7c-0.6-0.4-1.2-0.7-1.6-1.3c-0.4-0.6-1.1-0.9-1.8-0.9c-0.5,0-1-0.1-1.5,0c-3.8,0.2-7.2,1.6-10.3,3.9
			c-10.4,7.5-20.7,15-31.1,22.5c-5.2,3.9-10.5,7.6-15.7,11.4c-4.6,3.3-9.1,6.7-13.7,10.1c-2.5,1.9-3.3,4.4-2.8,7.4
			c0.5,3,1.4,5.9,2.6,8.8c0.3,0.7,0.7,1.3,1.3,1.8c2.2,2,4.3,4.1,6.5,6.1c0.2,0.2,0.5,0.5,0.8,0.7c0,1.2-0.7,1.9-1.4,2.5
			c-3.3,2.5-6.6,5.1-9.8,7.6c-0.3,0.2-0.6,0.5-0.7,0.7c-0.2,0.7-0.6,1-1.1,1.3c-0.7,0.4-1.3,0.9-2,1.3c-0.7,0.5-1.6,0.8-2,1.5
			c-0.4,0.7-0.3,1.7-0.5,2.5c-0.2,0.9,0,1.5,0.6,2.2c0.3,0.3,0.5,0.5,0.9,0.5c0.7,0,1.4,0.1,2,0.2c0.6,0.1,1-0.1,1.4-0.5
			c1.1-1.1,2.3-2,3.4-3.1c0.3-0.3,0.6-0.5,1-0.3c0.5,0.2,0.9-0.1,1.3-0.4c3.4-2.9,6.9-5.8,10.4-8.7c0.2-0.2,0.5-0.4,0.8-0.7
			c0.6,0.5,1.1,0.9,1.7,1.3c0.5-0.3,1-0.7,1.5-1c0.3,0.3,0.6,0.5,0.7,1c3.4,3.1,6.9,6.2,10.4,9.3c1.5,1.3,3,2.5,4.5,3.7
			c0.6,0.5,1.3,0.8,2,0.9c1.2,0.2,2.3,0.2,3.5-0.1c1.9-0.4,3.6-1.3,5.1-2.5c1-0.8,2-1.7,3-2.5c10.5-8.7,20.8-17.5,31.3-26.3
			c7.5-6.3,15.1-12.5,22.6-18.7c1.1-0.9,2-2,2.6-3.3c0.3-0.7,0.6-1.3,0.7-2C117.1,66.8,117.5,62.9,117.2,59z M89,33.8
			c2.5,1.8,5,3.6,7.5,5.3c0.6,0.4,1.1,0.9,1.7,1.3c0,0,0.1,0.1,0.2,0.2c0,0,5.5,4.3,5.5,4.3c0.1,0.1,0.7,0.1,0.9,0.2
			c0.3,0.1,0.6,0.3,0.9,0.5c2.4,1.7,4.6,3.4,7,5.2c0.7,0.5,1.2,1.2,1.5,2c-0.2,0.2-0.5,0.4-0.7,0.6c-12.8,10.6-25.7,21.2-38.6,31.8
			c-1.3,1.1-2.6,2-4.3,2.4c-3.2,0.7-6,0.2-8.6-1.8c-4.3-3.3-8.5-6.7-12.7-10.1c-2.3-1.9-3.1-5.4-1.8-8.2c0.5-1.1,1.2-2,2.2-2.8
			C62.3,54.5,75,44.2,87.6,33.9C88.3,33.4,88.3,33.3,89,33.8z M13.6,119.8c-0.4-0.1-0.7,0.2-0.9,0.4c-1.1,1-2.2,2-3.3,3.1
			c-0.4,0.4-0.8,0.6-1.4,0.5c-0.5-0.1-1-0.1-1.5-0.2c-0.8-0.1-1.4-0.8-1.3-1.6c0.1-0.7,0.3-1.5,0.3-2.3c0-0.4,0.3-0.6,0.6-0.8
			c1.3-0.8,2.5-1.7,3.8-2.6c0.4-0.2,0.6-0.6,0.8-1c0.2-0.4,0.6-0.7,0.9-1.2c2.3,1,3.6,2.5,4,4.8C15.1,119.6,14.5,120,13.6,119.8z
			 M18.7,116.4c-0.7,0.7-1.5,1.3-2.3,2c-1.4-3-1.4-3-3.9-4.7c0.1-0.1,0.3-0.3,0.4-0.4c0.7-0.6,1.5-1.1,2.2-1.7
			c2,0.8,3.3,2.2,3.7,4.2C18.9,115.9,18.9,116.3,18.7,116.4z M19.7,115.6c-0.6-2.1-1.9-3.6-3.9-4.6c1.1-0.8,2-1.5,2.9-2.3
			c2,0.9,3.3,2.3,3.8,4.6C21.6,114,20.7,114.8,19.7,115.6z M23.2,112.6c-0.6-2-1.8-3.5-3.7-4.5c1-0.8,1.9-1.5,2.8-2.2
			c0.1-0.1,0.5-0.1,0.7,0c1.4,0.4,2.5,1.2,3,2.6c0.1,0.5,0.4,0.9,0.6,1.4C25.5,110.8,24.4,111.7,23.2,112.6z M28.1,111.3
			c-0.5-0.3-0.7-0.6-1-0.8c0.1-1.5-0.6-2.6-1.3-3.7c-0.7-1.1-2.1-1.4-3.4-1.9c0.2-0.6,0.3-1.3,0.5-2c0.4,0.2,0.8,0.3,1.1,0.6
			c1.7,1.2,3.1,2.6,4.3,4.2c0.2,0.2,0.3,0.6,0.3,0.8C28.4,109.4,28.2,110.3,28.1,111.3z M28.7,111.3c0,0-0.1,0-0.2-0.1
			c0-0.4,0.1-0.9,0.2-1.3c0.4-2,0.4-2-1-3.5c-1.6-1.8-2.9-2.9-4.7-3.9c0.9-0.6,1.6-1.1,2.4-1.7c0.3,0.2,0.6,0.4,0.8,0.7
			c1.4,1.4,2.8,2.8,4.3,4.3c0.4,0.3,0.5,0.7,0.5,1.3c-0.1,0.7-0.1,1.3-0.2,2c0,0.3-0.2,0.7-0.4,0.9
			C29.8,110.3,29.2,110.8,28.7,111.3z M114.8,71.7c-0.5,1.4-1.3,2.5-2.5,3.5c-7.5,6.2-15,12.4-22.4,18.6
			C79.4,102.5,69,111.2,58.6,120c-1,0.8-2,1.8-3.1,2.6c-1.5,1.2-3.1,2.1-5,2.4c-0.9,0.1-1.8,0.1-2.7,0.1c-0.7,0-1.3-0.4-1.9-0.8
			c-1.7-1.4-3.3-2.7-5-4.2c-3.4-3.1-6.8-6.2-10.3-9.2c-0.1,0-0.2-0.1-0.3-0.3c1-0.6,0.8-1.6,1.1-2.6c0.3,0.3,0.6,0.5,0.8,0.7
			c2.8,2.6,5.5,5.1,8.3,7.6c1.2,1.1,2.5,2.1,3.8,3.2c1.8,1.5,3.9,1.7,6,1.1c1.3-0.3,2.5-0.9,3.6-1.6c2.6-1.6,4.9-3.5,7.2-5.4
			c7.8-6.6,15.4-13.1,23.2-19.7c5.7-4.8,11.6-9.3,17.3-14c3.7-3,7.4-5.9,11.1-9c1.1-1,2.1-2.1,3.4-3.3
			C115.6,68.8,115.3,70.3,114.8,71.7z M116.3,65.2c0,0.5-0.3,1-0.5,1.4c-0.9,1.6-2.1,2.8-3.5,3.9c-8.2,6.6-16.4,13.3-24.7,19.9
			c-2,1.6-4,3.2-5.9,4.8c-7.8,6.6-15.5,13.2-23.4,19.7c-1.5,1.3-3.2,2.4-4.8,3.4c-1.2,0.8-2.5,1.4-3.9,1.6c-1.8,0.3-3.5,0.1-4.9-1.1
			c-1.6-1.3-3.3-2.7-4.8-4.1c-2.6-2.4-5.3-4.8-7.9-7.2c-0.4-0.3-0.7-0.7-0.6-1.2c0.1-0.5-0.2-0.8-0.5-1.1c-1.4-1.4-2.8-2.9-4.3-4.3
			c-0.9-0.9-1-0.8-2.2-0.3c-0.2-0.2-0.5-0.4-0.7-0.6c-3.1-2.9-6.2-5.8-9.4-8.7c-0.2-0.2-0.5-0.4-0.8-0.6c0.4,0.5,0.8,1,1.3,1.4
			c2.8,2.6,5.7,5.3,8.6,8c0.2,0.2,0.4,0.4,0.7,0.7c-0.7,0.6-1.3,1.2-1.9,1.8c0,0-0.2-0.1-0.3-0.3c-2.1-2-4.1-4-6.2-5.9
			c-0.6-0.5-0.9-1.1-1.2-1.8c-0.4-1.3-0.9-2.6-1.3-3.9c0-0.2,0-0.4,0-0.6c-0.7-1.2-0.9-2.5-1.2-3.9c-0.1-0.8-0.2-1.8-0.1-2.6
			c0.2-1.6,0.9-3,2.3-4c3-2.2,6-4.5,9.1-6.7c1.6-1.2,3.3-2.4,4.9-3.6c1.5-1.1,3-2.5,4.7-3.3c5.6-4.1,11.3-8.2,16.9-12.3
			C58,48,66.4,41.9,74.8,35.8c2.7-2,5.6-3.2,8.9-3.7c0.7-0.1,1.4-0.1,2.1-0.1c0.7,0,1.3,0.4,1.8,1.2c-2.1,1.7-4.1,3.3-6.1,5
			c-10.7,8.7-21.3,17.4-32,26.1c-2.1,1.7-3.3,3.9-3.1,6.6c0.1,2.1,1,3.9,2.6,5.3c4.1,3.3,8.2,6.6,12.4,9.9c3.2,2.5,6.7,3,10.4,1.6
			c0.9-0.3,1.8-0.9,2.6-1.5c13.1-10.8,26.2-21.6,39.2-32.3c0.2-0.2,0.4-0.3,0.7-0.5c0.7,0.2,1,0.7,1.2,1.3c0.3,1,0.7,2,0.8,3
			C116.7,60.2,116.6,62.7,116.3,65.2z"/>
		<path class="st8" d="M33.5,100.9c-0.7,0.4-1.2,0.7-1.8,0.9c-0.2-0.2-0.5-0.4-0.8-0.8c2.4-1.3,4.7-2.5,7.1-3.7
			c0.3,0.3,0.6,0.6,1,0.9c-1.1,2.4-2.2,4.7-3.3,7.1c-0.9-0.5-1-0.6-0.7-1.3c0.1-0.3,0.3-0.7,0.5-1C34.8,102.3,34.2,101.6,33.5,100.9
			z M36,102c0.6-1.1,1.1-2.1,1.5-3.1c0,0-0.1,0-0.1-0.1c-1,0.6-2,1.1-3,1.7C34.9,101,35.4,101.4,36,102z"/>
		<path class="st8" d="M45.3,114.1c-0.4-0.1-0.7-0.1-1-0.3c-1-0.4-1.4-1.3-1-2.2c0.5-1,1.5-1.3,2.5-0.8c0.5,0.3,0.9,0.7,1.3,1.1
			c0.8-0.7,0.8-1.2,0-1.8c-0.4-0.2-0.7-0.4-1.2-0.7c0.1-0.2,0.2-0.5,0.3-0.7c0.2,0,0.3,0,0.3,0.1c0.6,0.4,1.2,0.7,1.7,1.1
			c0.8,0.7,0.9,1.6,0.1,2.5c-0.5,0.6-1,1-1.4,1.5c-0.2,0.2-0.4,0.5-0.6,0.7c-0.1,0.3-0.2,0.5-0.6,0.5c-0.4,0-0.4-0.3-0.4-0.6
			C45.3,114.4,45.3,114.3,45.3,114.1z M46.5,112.5c-0.3-0.3-0.7-0.6-1-0.8c-0.4-0.3-0.9-0.1-1.2,0.4c-0.2,0.4-0.1,0.8,0.3,1.1
			C45.3,113.4,46,113.6,46.5,112.5z"/>
		<path class="st8" d="M39.3,109.1c-0.2-0.2-0.5-0.5-0.8-0.7c1.3-1.3,2.5-2.6,3.7-3.9c0.7,0.2,0.7,0.7,0.6,1.1
			c0.4,0.1,0.8,0.2,1.2,0.4c1,0.5,1.2,1.4,0.5,2.3c-0.3,0.4-0.7,0.8-1.1,1.2c-0.3,0.3-0.6,0.6-0.8,0.9c-0.2,0.3-0.5,0.6-0.7,0.8
			c-0.9-0.4-1-0.7-0.4-1.3c0.6-0.7,1.2-1.3,1.8-1.9c0.6-0.6,0.6-0.9,0.2-1.3c-0.6-0.5-1.3-0.6-1.7-0.1c-0.7,0.7-1.3,1.3-2,2
			C39.6,108.7,39.4,108.9,39.3,109.1z"/>
		<path class="st8" d="M39.7,101.9c0.3,0.3,0.5,0.4,0.7,0.6c0.5,0.5,0.5,0.9,0.1,1.4c-1,1.1-2,2.1-3.1,3.3c-0.3-0.2-0.5-0.5-0.8-0.7
			c0.5-0.5,1-1,1.4-1.5c0.4-0.4,0.8-0.8,1.2-1.3c0.2-0.2,0.4-0.5,0.3-0.9C39.3,102.6,39.5,102.3,39.7,101.9z"/>
		<path class="st8" d="M42.3,101.6c-0.2,0.4-0.4,0.8-0.8,0.7c-0.3-0.1-0.5-0.4-0.7-0.7c0-0.1,0.2-0.5,0.4-0.6
			C41.9,100.7,42,101.2,42.3,101.6z"/>
		
			<rect x="55.6" y="51.4" transform="matrix(0.7071 -0.7071 0.7071 0.7071 -18.8383 74.6504)" class="st12" width="50.2" height="17.4"/>
		<g>
			<path class="st13" d="M98.2,40.3l-0.4,0.3c-0.2,0.2-0.5,0.4-0.7,0.6c-3.6,2.7-6.9,5.5-10,8.4c0,0.1,0.3,0.4,0.3,0.8
				c0,0.3-0.1,0.6-0.4,0.8l-2.2,1.9c-0.5,0.4-1.3,0.5-1.9,0l-5.2,4.3c0.5,0.5,0.4,1.2-0.1,1.6l-2.2,1.9c-0.5,0.4-1.3,0.5-1.9,0
				l-1.2,1c-0.8,0.7-0.8,1.8,0,2.5l3.3,2.9c0.8,0.7,2,0.7,2.8,0l1.2-1c-0.6-0.5-0.6-1.3,0-1.7l2.3-1.9c0.6-0.5,1.4-0.5,2,0l5.1-4.3
				c-0.6-0.5-0.6-1.3,0-1.7l2.2-1.9c0.6-0.5,1.4-0.5,2,0c3.3-2.9,6.8-5.8,10.4-8.6c0.5-0.4,1-0.8,1.4-1.2"/>
			<path class="st13" d="M89.7,48l5.5,4.4c1,0.8,0.7,2.3-0.2,3.2L71.5,75.9c-1.2,1-3.1,1-4.2,0l-4.9-4.2c-1.2-1-1.2-2.6,0-3.6
				L85.5,48C86.6,47,88.6,47,89.7,48z"/>
			<path class="st8" d="M82.7,56.9c0.4-0.4,1.1-0.4,1.5,0c0.4,0.4,0.4,1,0,1.3c-0.4,0.4-1.1,0.4-1.5,0
				C82.3,57.9,82.3,57.3,82.7,56.9z"/>
			<path class="st14" d="M65.5,73.1c0,0,2.1,1.7,2.1,1.7c1,0.9,2.5,1,3.6,0.2c0.3-0.3,0.7-0.5,1-0.8"/>
			<path class="st14" d="M61.6,70.4c0.1,0,0.3-0.2,0.4-0.3c0.2-0.3,0.1-0.5,0.3-0.9c0-0.1,0.1-0.4,0.4-0.7
				c7.8-6.8,15.5-13.5,23.3-20.3c0.2-0.1,0.5-0.3,0.9-0.5c0.3-0.1,0.7-0.1,0.8-0.1c0.2-0.1,0.4-0.2,0.6-0.3"/>
		</g>
		<path class="st15" d="M25.9,72.8c0,0-1,8.3,17.2,22.5c0,0,16.9,12.5,24.7,9.2c-5.9-2.6-11.6-5.8-17.1-9.3
			c-8.4-5.4-16-12.1-22.5-19.7C27.4,74.7,26.6,73.7,25.9,72.8z"/>
	</g>
	<g>
		<g id="phone_2_">
			<path class="st16" d="M211.7,127.1c0,5.3-4.6,9.7-10.1,9.7h-45.7c-5.6,0-10.1-4.4-10.1-9.7V14.6c0-5.3,4.6-9.7,10.1-9.7h45.7
				c5.6,0,10.1,4.4,10.1,9.7V127.1z"/>
			<g>
				<path class="st8" d="M166,15.5h17.4c0.7,0,1.3-0.3,1.3-0.8s-0.6-0.8-1.3-0.8H166c-0.7,0-1.3,0.3-1.3,0.8S165.3,15.5,166,15.5z"
					/>
			</g>
			<g>
				<circle class="st8" cx="191.5" cy="14.7" r="1.8"/>
			</g>
			<rect x="151.3" y="26.5" class="st17" width="54.9" height="87"/>
			<path class="st18" d="M184.9,128.8h-9.7c-1.3,0-2.4-1.1-2.4-2.4v-1c0-1.3,1.1-2.4,2.4-2.4h9.7c1.3,0,2.4,1.1,2.4,2.4v1
				C187.3,127.7,186.2,128.8,184.9,128.8z"/>
		</g>
		<g>
			<g>
				<circle class="st16" cx="178.9" cy="67.6" r="19.5"/>
				<path class="st16" d="M166.4,73.9c0.3-1.6-0.2-3-1.4-4.2c-0.3-0.3-0.5-0.5-0.7-0.8c-0.6-0.8-0.6-1.9,0-2.6
					c0.3-0.3,0.5-0.6,0.8-0.9c1.1-1.1,1.5-2.4,1.3-3.9c-0.1-0.5-0.1-0.9-0.1-1.4c0-1,0.5-1.7,1.5-1.9c0.6-0.1,1.1-0.3,1.7-0.4
					c1.1-0.2,1.9-0.8,2.5-1.7c0.4-0.5,0.7-1.1,1-1.6c0.6-0.9,1.5-1.2,2.6-0.8c0.3,0.1,0.5,0.2,0.8,0.3c1.6,0.8,3.2,0.8,4.7,0
					c1.9-1,2.9-0.6,3.8,1.3c0.8,1.6,2.1,2.5,3.9,2.8c0.3,0,0.6,0.1,0.9,0.2c0.9,0.2,1.5,1,1.5,1.9c0,0.5-0.1,1-0.1,1.6
					c-0.2,1.5,0.3,2.7,1.3,3.7c0.3,0.3,0.6,0.7,0.9,1c0.6,0.7,0.6,1.8,0,2.5c-0.4,0.5-0.8,0.9-1.2,1.4c-0.8,0.9-1.1,2-1,3.1
					c0,0.5,0.1,1.1,0.1,1.6c0.1,1.2-0.5,1.9-1.6,2.2c-0.6,0.2-1.2,0.3-1.8,0.4c-1.3,0.4-2.2,1.3-2.8,2.5c-1,1.9-2,2.3-3.9,1.3
					c-1.6-0.8-3.2-0.8-4.7,0c-0.6,0.3-1.2,0.6-1.9,0.5c-0.6-0.1-1-0.4-1.3-0.9c-0.1-0.2-0.3-0.4-0.4-0.7c-0.9-1.8-2.3-2.7-4.2-3
					c-0.5-0.1-0.9-0.3-1.3-0.5c-0.6-0.3-0.8-0.9-0.8-1.5C166.3,74.8,166.3,74.4,166.4,73.9z M178.7,57.7c-5.5,0-9.9,4.4-9.9,9.9
					c0,5.4,4.5,9.9,9.9,9.9c5.4,0,9.9-4.5,9.9-9.9C188.6,62.1,184.2,57.7,178.7,57.7z"/>
				<path class="st16" d="M178.7,63.1c1.8,0,3.7,0,5.5,0c1,0,1.3,0.5,0.8,1.3c-1.8,3.2-3.7,6.4-5.5,9.6c-0.5,0.9-1,0.9-1.5,0
					c-1.6-2.8-3.2-5.6-4.8-8.4c-0.3-0.4-0.5-0.9-0.8-1.4c-0.4-0.7-0.1-1.2,0.7-1.2C174.9,63.1,176.8,63.1,178.7,63.1z"/>
			</g>
		</g>
	</g>
</g>
</svg>
