<?xml version="1.0" encoding="utf-8"?>
<!-- Generator: Adobe Illustrator 21.1.0, SVG Export Plug-In . SVG Version: 6.00 Build 0)  -->
<svg version="1.1" id="Layer_1" xmlns="http://www.w3.org/2000/svg" xmlns:xlink="http://www.w3.org/1999/xlink" x="0px" y="0px"
	 viewBox="0 0 216 144" style="enable-background:new 0 0 216 144;" xml:space="preserve">
<style type="text/css">
	.st0{opacity:0.23;fill:#928E8D;}
	.st1{opacity:0.55;fill:none;stroke:#928E8D;stroke-width:1.0755;stroke-miterlimit:10;}
	.st2{opacity:0.44;fill:none;stroke:#928E8D;stroke-width:0.6175;stroke-miterlimit:10;}
	.st3{opacity:0.44;fill:none;stroke:#928E8D;stroke-width:1.235;stroke-miterlimit:10;}
	.st4{fill:none;stroke:#928E8D;stroke-width:1.0755;stroke-miterlimit:10;}
	.st5{fill:none;stroke:#928E8D;stroke-width:0.8053;stroke-miterlimit:10;}
	.st6{fill:none;stroke:#928E8D;stroke-width:0.475;stroke-miterlimit:10;}
	.st7{opacity:0.44;fill:#928E8D;}
	.st8{fill:#928E8D;}
	.st9{fill:#FFFFFF;}
	.st10{opacity:0.9;}
	.st11{fill:none;}
	.st12{display:none;fill:#FFFFFF;}
	.st13{fill:none;stroke:#928E8D;stroke-width:0.4634;stroke-miterlimit:10;}
	.st14{fill:none;stroke:#928E8D;stroke-width:0.1545;stroke-miterlimit:10;}
	.st15{fill:#C2C0C1;}
	.st16{fill:none;stroke:#928E8D;stroke-width:0.75;stroke-linecap:round;stroke-linejoin:round;stroke-miterlimit:10;}
	.st17{fill:none;stroke:#928E8D;stroke-width:0.5;stroke-linecap:round;stroke-linejoin:round;stroke-miterlimit:10;}
	.st18{fill:none;stroke:#928E8D;stroke-miterlimit:10;}
	.st19{display:none;fill:#FAFAFB;stroke:#BAB9C1;stroke-width:0.4463;stroke-miterlimit:10;}
	.st20{fill:#FAFAFB;stroke:#BAB9C1;stroke-width:0.4463;stroke-miterlimit:10;}
	.st21{fill:none;stroke:#928E8D;stroke-width:0.5773;stroke-miterlimit:10;}
	.st22{fill:none;stroke:#928E8D;stroke-width:0.75;stroke-miterlimit:10;}
	.st23{fill:#FAFAFB;stroke:#928E8D;stroke-width:0.5579;stroke-miterlimit:10;}
</style>
<g>
	<g id="scale_3_">
		<rect x="46.6" y="53.5" class="st19" width="122.8" height="6.4"/>
		<rect x="46.6" y="63.3" class="st20" width="122.8" height="6.4"/>
		<rect x="46.6" y="73" class="st20" width="122.8" height="6.4"/>
		<rect x="46.6" y="82.7" class="st20" width="122.8" height="6.4"/>
		<rect x="46.6" y="92.4" class="st20" width="122.8" height="6.4"/>
		<rect x="46.6" y="102.1" class="st20" width="122.8" height="6.4"/>
		<rect x="46.6" y="111.8" class="st20" width="122.8" height="6.4"/>
		<rect x="46.6" y="121.5" class="st20" width="122.8" height="6.4"/>
		<path class="st21" d="M121.8,35.5h-27c-1.7,0-3.1-1.4-3.1-3.1v-9.8c0-1.7,1.4-3.1,3.6-3.1h27c0.2,0,2.6,1.4,2.6,3.1v9.8
			C124.9,34.1,123.5,35.5,121.8,35.5z"/>
		<path class="st22" d="M157,133.3H58.8c-6.7,0-12.2-5.5-12.2-12.2V22.9c0-6.7,5.5-12.2,12.2-12.2H157c6.7,0,12.2,5.5,12.2,12.2
			v98.2C169.2,127.8,163.7,133.3,157,133.3z"/>
	</g>
	<g>
		<path class="st15" d="M124.1,56.8c0.6,0,1.1-0.4,1.5-1c0.5-0.7,0.7-1.5,0.8-2.9c0-1-0.5-2.1-1.1-2.9c-0.4-0.5-1-0.7-1.5-0.7
			c0,0,0,0,0,0c-0.5,0-1.1,0.3-1.5,0.8c-1.3,1.5-1.2,4.5,0.2,6C122.9,56.6,123.5,56.9,124.1,56.8z"/>
		<path class="st15" d="M131.1,56.3c0.5,0,1-0.3,1.3-0.7c0.5-0.6,0.8-1.4,0.8-2.4c0-0.9-0.3-1.7-0.8-2.3c-0.4-0.4-0.8-0.6-1.2-0.6
			c0,0,0,0-0.1,0c-0.4,0-0.9,0.2-1.2,0.5c-1.2,1.2-1.3,3.6-0.2,4.8C130.1,56,130.6,56.3,131.1,56.3z"/>
		<path class="st15" d="M135.1,56.2c0.3,0.4,0.6,0.7,1.1,0.8c0.5,0.1,0.9-0.1,1.3-0.5c1-1,1.2-2.8,0.5-3.9c-0.3-0.5-0.7-0.7-1.1-0.8
			c-0.5,0-0.9,0.1-1.3,0.5c-0.6,0.6-0.9,1.3-0.9,2.3l0,0.1l-0.1,0c0,0.1,0.1,0.2,0.1,0.4C134.8,55.5,134.9,55.9,135.1,56.2z"/>
		<path class="st15" d="M139.7,57.7c0.1,0.6,0.3,1,0.8,1.2c0.5,0.2,1,0.1,1.4-0.3c0.8-0.7,1.1-1.6,1-2.6c-0.1-0.6-0.4-1-0.8-1.1
			c-0.5-0.2-0.9,0-1.4,0.4c-0.6,0.5-0.9,1.2-0.9,2.1l0,0.1C139.6,57.5,139.6,57.6,139.7,57.7z"/>
		<path class="st15" d="M146.4,59.6c-0.1-0.4-0.3-0.6-0.5-0.8c-0.1-0.1-0.3-0.1-0.5-0.1c-0.2,0-0.3,0-0.5,0.1
			c-0.8,0.3-1.4,1.2-1.4,2.1c0,0.5,0.1,0.8,0.4,1c0.2,0.2,0.6,0.2,1,0.1C145.8,61.8,146.6,60.5,146.4,59.6z"/>
		<path class="st15" d="M143.6,65.7c-1.1-2.2-3-4-5.2-5c-2.3-1-4.8-1.2-7.3-1.3l-0.1,0c-0.5,0-1.1,0-1.6,0c-1.9,0-3.9,0.2-5.4,1.3
			c-4.3,3.3-1.3,9.6,0.7,13.8c0.2,0.5,0.5,1,0.7,1.4c1.3,2.9,2,6.1,1.9,9.5c-0.1,4.3-0.9,9-2.6,13.9c-0.2,0.6-0.4,1.3-0.6,2v0
			c-0.6,2.2-0.9,4.7,1.3,6.8c1.1,1,2.3,1.6,3.5,1.8c2.6,0.4,4.9-1.4,6.4-2.9c1.3-1.4,2.4-3.2,3.2-5.3c0.9-2.5,1.3-5.2,1.8-7.8
			c0.3-1.9,0.6-3.9,1.2-5.8c1.2-4.3,1.8-8.8,2.4-13.2l0.3-2C144.4,70.4,144.7,67.9,143.6,65.7z"/>
	</g>
	<g>
		<path class="st15" d="M93,56.8c-0.6,0-1.1-0.4-1.5-1c-0.5-0.7-0.7-1.5-0.8-2.9c0-1,0.5-2.1,1.1-2.9c0.4-0.5,1-0.7,1.5-0.7
			c0,0,0,0,0,0c0.5,0,1.1,0.3,1.5,0.8c1.3,1.5,1.2,4.5-0.2,6C94.1,56.6,93.5,56.9,93,56.8z"/>
		<path class="st15" d="M86,56.3c-0.5,0-1-0.3-1.3-0.7c-0.5-0.6-0.8-1.4-0.8-2.4c0-0.9,0.3-1.7,0.8-2.3c0.4-0.4,0.8-0.6,1.2-0.6
			c0,0,0,0,0.1,0c0.4,0,0.9,0.2,1.2,0.5c1.2,1.2,1.3,3.6,0.2,4.8C86.9,56,86.5,56.3,86,56.3z"/>
		<path class="st15" d="M81.9,56.2c-0.3,0.4-0.6,0.7-1.1,0.8c-0.5,0.1-0.9-0.1-1.3-0.5c-1-1-1.2-2.8-0.5-3.9
			c0.3-0.5,0.7-0.7,1.1-0.8c0.5,0,0.9,0.1,1.3,0.5c0.6,0.6,0.9,1.3,0.9,2.3l0,0.1l0.1,0c0,0.1-0.1,0.2-0.1,0.4
			C82.2,55.5,82.1,55.9,81.9,56.2z"/>
		<path class="st15" d="M77.4,57.7c-0.1,0.6-0.3,1-0.8,1.2c-0.5,0.2-1,0.1-1.4-0.3c-0.8-0.7-1.1-1.6-1-2.6c0.1-0.6,0.4-1,0.8-1.1
			c0.5-0.2,0.9,0,1.4,0.4c0.6,0.5,0.9,1.2,0.9,2.1l0,0.1C77.4,57.5,77.4,57.6,77.4,57.7z"/>
		<path class="st15" d="M70.6,59.6c0.1-0.4,0.3-0.6,0.5-0.8c0.1-0.1,0.3-0.1,0.5-0.1c0.2,0,0.3,0,0.5,0.1c0.8,0.3,1.4,1.2,1.4,2.1
			c0,0.5-0.1,0.8-0.4,1c-0.2,0.2-0.6,0.2-1,0.1C71.2,61.8,70.4,60.5,70.6,59.6z"/>
		<path class="st15" d="M73.4,65.7c1.1-2.2,3-4,5.2-5c2.3-1,4.8-1.2,7.3-1.3l0.1,0c0.5,0,1.1,0,1.6,0c1.9,0,3.9,0.2,5.4,1.3
			c4.3,3.3,1.3,9.6-0.7,13.8c-0.2,0.5-0.5,1-0.7,1.4c-1.3,2.9-2,6.1-1.9,9.5c0.1,4.3,0.9,9,2.6,13.9c0.2,0.6,0.4,1.3,0.6,2v0
			c0.6,2.2,0.9,4.7-1.3,6.8c-1.1,1-2.3,1.6-3.5,1.8c-2.6,0.4-4.9-1.4-6.4-2.9c-1.3-1.4-2.4-3.2-3.2-5.3c-0.9-2.5-1.3-5.2-1.8-7.8
			c-0.3-1.9-0.6-3.9-1.2-5.8c-1.2-4.3-1.8-8.8-2.4-13.2l-0.3-2C72.7,70.4,72.3,67.9,73.4,65.7z"/>
	</g>
	<path class="st23" d="M108,49.5c-1,0-1.9,0.9-1.9,1.9V126c0,1,0.9,1.9,1.9,1.9s1.9-0.9,1.9-1.9V51.4C109.9,50.3,109,49.5,108,49.5z
		"/>
</g>
</svg>
