<?xml version="1.0" encoding="utf-8"?>
<!-- Generator: Adobe Illustrator 21.1.0, SVG Export Plug-In . SVG Version: 6.00 Build 0)  -->
<svg version="1.1" id="Layer_1" xmlns="http://www.w3.org/2000/svg" xmlns:xlink="http://www.w3.org/1999/xlink" x="0px" y="0px"
	 viewBox="0 0 216 144" style="enable-background:new 0 0 216 144;" xml:space="preserve">
<style type="text/css">
	.st0{opacity:0.23;fill:#928E8D;}
	.st1{opacity:0.55;fill:none;stroke:#928E8D;stroke-width:1.0755;stroke-miterlimit:10;}
	.st2{opacity:0.44;fill:none;stroke:#928E8D;stroke-width:0.6175;stroke-miterlimit:10;}
	.st3{opacity:0.44;fill:none;stroke:#928E8D;stroke-width:1.235;stroke-miterlimit:10;}
	.st4{fill:none;stroke:#928E8D;stroke-width:1.0755;stroke-miterlimit:10;}
	.st5{fill:none;stroke:#928E8D;stroke-width:0.8053;stroke-miterlimit:10;}
	.st6{fill:none;stroke:#928E8D;stroke-width:0.475;stroke-miterlimit:10;}
	.st7{opacity:0.44;fill:#928E8D;}
	.st8{fill:#928E8D;}
	.st9{fill:#FFFFFF;}
	.st10{opacity:0.9;}
	.st11{fill:none;}
	.st12{display:none;fill:#FFFFFF;}
	.st13{fill:none;stroke:#928E8D;stroke-width:0.4634;stroke-miterlimit:10;}
	.st14{fill:none;stroke:#928E8D;stroke-width:0.1545;stroke-miterlimit:10;}
	.st15{fill:#C2C0C1;}
	.st16{fill:none;stroke:#928E8D;stroke-width:0.75;stroke-linecap:round;stroke-linejoin:round;stroke-miterlimit:10;}
	.st17{fill:none;stroke:#928E8D;stroke-width:0.5;stroke-linecap:round;stroke-linejoin:round;stroke-miterlimit:10;}
	.st18{fill:none;stroke:#928E8D;stroke-miterlimit:10;}
	.st19{display:none;fill:#FAFAFB;stroke:#BAB9C1;stroke-width:0.4463;stroke-miterlimit:10;}
	.st20{fill:#FAFAFB;stroke:#BAB9C1;stroke-width:0.4463;stroke-miterlimit:10;}
	.st21{fill:none;stroke:#928E8D;stroke-width:0.5773;stroke-miterlimit:10;}
	.st22{fill:none;stroke:#928E8D;stroke-width:0.75;stroke-miterlimit:10;}
	.st23{fill:#FAFAFB;stroke:#928E8D;stroke-width:0.5579;stroke-miterlimit:10;}
</style>
<g>
	<g id="cardiomem_1_">
		<path class="st0" d="M168.3,49.3c-0.3-0.5-0.7-0.9-0.7-0.9c-1-1.1-2-2.2-3.1-3.2c-0.8-0.7-1.4-1.1-2.5-1c-1,0.1-2,0.6-2.8,1.1
			c0,0-3.6,2.2-3.6,2.2c-1.4,0.8-2.8,1.6-4.3,2.4c-2.6,1.3-5.2,2.7-7.9,4c-1,0.5-2.1,1-3.2,1.6c-0.9,0.4-1.7,0.8-2.6,1.3
			c-2,1-4.1,2-5.9,3.4c-0.1,0.1-0.3,0.2-0.4,0.3c-0.4,0.3-0.5,0.6-0.6,0.8l-0.2,0.4c0.1-0.1,0.3-0.1,0.4-0.2c1-0.6,1.9-1.1,2.9-1.7
			c1.5-0.9,3-1.6,4.6-2.4c1.6-0.8,3.1-1.6,4.7-2.3l8.3-4.3l8.3-4.6c1-0.5,2.4-0.8,3.3,0.1c1,1.1,2,2.3,3.1,3.4
			c0.6,0.5,1.9,1.3,1.2,2.3l0.2-0.2C169.1,50.2,168.3,49.3,168.3,49.3z"/>
		<path class="st2" d="M152.5,52.5c1.1,1.3,2.2,2.7,3.2,4"/>
		<path class="st2" d="M143.1,57.4c1.1,1.4,2.2,2.8,3.2,4.2"/>
		<path class="st3" d="M161.8,46.8c0,0,0.2-0.5,0.4-1.1"/>
		<path class="st3" d="M164,51.6c0,0-0.9,1.6,0.4,2.2"/>
		<path class="st4" d="M162.5,44.2c0.2-0.4,0.4-0.8,0.6-1.2c1.2-2.6,2.4-5.3,3.6-7.9c1.3-2.9,2.6-5.2,5.7-6.4
			c1.1-0.4,2.3-0.7,3.4-0.8c5-0.1,9.7,2.1,13.5,5.2c3.9,3.3,7.9,8.9,5.5,14.1c-0.7,1.6-2,2.9-3.5,3.9c-1.8,1.2-4.2,1.7-6.3,2.1
			c-2.6,0.5-5.1,0.8-7.7,1.2c-1.6,0.3-3.2,0.5-4.9,0.7c-1.4,0.2-2.8,0.3-4.2,0.3c-1,0-2.1,0-3.1-0.4"/>
		<path class="st4" d="M134.2,71.3c0,0-12.1,17.8-17.6,23.4c-5.5,5.5-12.9,9.5-25.4,3.3c-3.2-1.6-5.7-5.3-6.9-8.6
			c-1.1-3.2-1.4-6.8-0.6-10.1c1.9-8,9.8-10.9,17.3-10.8c7,0.1,13.9,0.1,20.9,0c1.6,0,3-0.1,4.6-0.4c1-0.2,2.9-0.6,3.4-1.6"/>
		<path class="st3" d="M136.8,66.6c-0.2,0.2-0.1,0.8-1.1,1.7"/>
		<path class="st3" d="M134.2,63.1c0,0-1,0.6-2.2,0.8"/>
		<path class="st5" d="M168,51.3c-0.4,0.8-1,1.5-1.5,2.2c-0.5,0.6-0.9,1.2-1.4,1.8c-0.2,0.2-0.3,0.3-0.6,0.5c-0.5,0.3-1,0.6-1.5,0.9
			c-1.4,0.8-2.7,1.6-4.1,2.4c-0.5,0.3-1.1,0.6-1.6,0.9l-18.9,10.3c-1.3,0.6-3.6,1.7-5,0.8c-0.5-0.3-0.8-1-1.2-1.5
			c-1-1.3-1.9-2.6-2.9-3.8c0,0-0.5-0.8,0.1-1.8c0.5-0.8,0.9-1.6,1.3-2.4"/>
		<path class="st0" d="M158.7,55.1c0.7-0.4,1.4-1,1.4-2c-0.1-1-0.8-2-1.7-2.5c-1.2-0.7-2.8-0.9-4-0.2c-4.2,2.2-8.4,4.5-12.6,6.6
			c-0.9,0.4-1.6,0.9-1.8,2c-0.1,0.5,0,0.9,0.2,1.4l-0.1-0.2c0,0-0.2-1.3,3.7-3.2c3.9-1.9,8.5-4.3,8.5-4.3s2.6-1.7,4-1.6
			c1.8,0.2,3.5,2.2,2.5,3.9L158.7,55.1z"/>
		<path class="st6" d="M145.2,62.2l4.4-2.3c0,0,7.2-3.8,8.7-4.6c0.9-0.5,1.9-1.1,1.8-2.2c-0.1-1-0.8-2-1.7-2.5
			c-1.2-0.7-2.8-0.9-4-0.2c-4.2,2.2-8.3,4.5-12.6,6.6c-0.9,0.4-1.6,0.9-1.8,2C139.8,61.4,143.1,63.3,145.2,62.2z"/>
		<polygon class="st7" points="154.4,54.9 154.2,54.6 152.6,55.5 152.3,55.1 146.2,58.4 146.5,58.8 144.8,59.7 145,60 146.7,59.1 
			147,59.4 153.2,56.2 152.8,55.8 		"/>
		<path class="st8" d="M134.7,62.5c-0.2,0-0.4-0.1-0.6-0.2c-0.1,0.1-0.1,0.1-0.2,0.2c-0.1,0.1-0.2,0.2-0.3,0.3
			c-0.1,0.1-0.1,0.1-0.1,0.1c0,0,0,0.1,0,0.1c0.1,0.1,0.1,0.1,0.2,0.2c0.1,0.1,0.2,0.1,0.4,0.2c0.1,0,0.2,0,0.3,0
			c0.1,0,0.1-0.1,0.1-0.2c0-0.1,0.1-0.2,0.1-0.3C134.7,62.8,134.8,62.7,134.7,62.5C134.8,62.5,134.8,62.5,134.7,62.5z"/>
		
			<ellipse transform="matrix(6.560132e-02 -0.9978 0.9978 6.560132e-02 64.511 192.2115)" class="st8" cx="134.9" cy="61.7" rx="1" ry="1.2"/>
		<path class="st8" d="M137.4,66c-0.2,0-0.4-0.1-0.6-0.2c-0.1,0.1-0.1,0.1-0.2,0.2c-0.1,0.1-0.2,0.2-0.3,0.3
			c-0.1,0.1-0.1,0.1-0.1,0.1c0,0,0,0.1,0,0.1c0.1,0.1,0.1,0.1,0.2,0.2c0.1,0.1,0.2,0.1,0.4,0.2c0.1,0,0.2,0,0.3,0
			c0.1,0,0.1-0.1,0.1-0.2c0-0.1,0.1-0.2,0.1-0.3C137.4,66.3,137.4,66.2,137.4,66C137.4,66,137.4,66,137.4,66z"/>
		
			<ellipse transform="matrix(6.560132e-02 -0.9978 0.9978 6.560132e-02 63.4596 198.1496)" class="st8" cx="137.5" cy="65.2" rx="1" ry="1.2"/>
		<path class="st8" d="M161.8,47.9c-0.2,0-0.4-0.1-0.6-0.2c-0.1,0.1-0.1,0.1-0.2,0.2c-0.1,0.1-0.2,0.2-0.3,0.3
			c-0.1,0.1-0.1,0.1-0.1,0.1c0,0,0,0.1,0,0.1c0.1,0.1,0.1,0.1,0.2,0.2c0.1,0.1,0.2,0.1,0.4,0.2c0.1,0,0.2,0,0.3,0
			c0.1,0,0.1-0.1,0.1-0.2c0-0.1,0.1-0.2,0.1-0.3C161.8,48.1,161.8,48,161.8,47.9C161.8,47.9,161.8,47.9,161.8,47.9z"/>
		
			<ellipse transform="matrix(0.4393 -0.8983 0.8983 0.4393 48.4226 171.8372)" class="st8" cx="161.9" cy="47.1" rx="0.9" ry="1.2"/>
		<path class="st8" d="M164.7,51.1c-0.2,0-0.4-0.1-0.6-0.2c-0.1,0.1-0.1,0.1-0.2,0.2c-0.1,0.1-0.2,0.2-0.3,0.3
			c-0.1,0.1-0.1,0.1-0.1,0.1c0,0,0,0.1,0,0.1c0.1,0.1,0.1,0.1,0.2,0.2c0.1,0.1,0.2,0.1,0.4,0.2c0.1,0,0.2,0,0.3,0
			c0.1,0,0.1-0.1,0.1-0.2c0-0.1,0.1-0.2,0.1-0.3C164.7,51.3,164.7,51.2,164.7,51.1C164.7,51.1,164.7,51.1,164.7,51.1z"/>
		
			<ellipse transform="matrix(0.4393 -0.8983 0.8983 0.4393 47.1657 176.2639)" class="st8" cx="164.8" cy="50.3" rx="0.9" ry="1.2"/>
		<path class="st5" d="M137.7,56.8c0.8-0.4,1.7-0.9,2.6-1.3c1.1-0.5,2.1-1,3.2-1.6c2.6-1.3,5.2-2.7,7.9-4c1.5-0.7,2.9-1.5,4.3-2.4
			c0,0,3.6-2.2,3.6-2.2c0.8-0.5,1.8-1,2.8-1.1c1.1-0.1,1.8,0.3,2.5,1c1.1,1,2.1,2.1,3.1,3.2c0,0,0.4,0.4,0.7,0.9
			c0,0,1.5,1.7-3.4,4.3s-12.7,7-12.7,7L141.6,66l-3.9,1.9c0,0-2.2,1.3-3.4-0.7c-1.2-1.9-3.1-4.4-3.1-4.4s-1.3-1.2,0.2-2.3
			c0.1-0.1,0.3-0.2,0.4-0.3C133.6,58.8,135.7,57.8,137.7,56.8z"/>
	</g>
	<g id="heart_1_">
		<circle class="st9" cx="64" cy="97.8" r="10"/>
		<g id="heart" class="st10">
			<g>
				<path class="st8" d="M59,67.4c-0.1,0.1-0.3-0.1-0.3-0.2c0-0.1,0-0.3,0-0.4c0-0.3,0-0.6,0.1-0.8c0.1-0.5,0.2-1.1,0.4-1.6
					c0.3-1,0.7-2,1.2-3l0,0.1c0,0.1,0,0,0,0c0,0-0.1-0.1-0.1-0.1c-0.1-0.1-0.2-0.2-0.4-0.3c-0.3-0.2-0.5-0.4-0.8-0.5
					c-0.6-0.3-1.2-0.6-1.9-0.8l0.2-0.1c-0.2,0.5-0.5,1-0.7,1.5c0.1-0.5,0.3-1.1,0.4-1.6c0-0.1,0.1-0.1,0.2-0.1l0,0
					c0.7,0.2,1.3,0.4,2,0.6c0.3,0.1,0.7,0.3,1,0.5c0.2,0.1,0.3,0.2,0.5,0.4c0.1,0.1,0.1,0.2,0.2,0.2c0.1,0.1,0.1,0.2,0.2,0.5
					c0,0,0,0.1,0,0.1l0,0l-1.3,2.9c-0.2,0.5-0.4,1-0.6,1.5c-0.1,0.2-0.2,0.5-0.2,0.8c0,0.1-0.1,0.3-0.1,0.4
					C58.8,67.3,58.9,67.4,59,67.4z"/>
			</g>
			<g>
				<path class="st8" d="M60.6,61.5c0.6,0.2,1.2,0.5,1.7,0.8l0.8,0.4l0.4,0.3c0.1,0,0.1,0.1,0.2,0.1c0.1,0.1,0.2,0.1,0.2,0.3
					c0,0,0,0,0,0.1l0,0c-0.7,1.4-1.3,2.7-2,4c-0.8,1.2-0.7,2.7-0.6,4.2c0.1,1.5,0.1,3,0.1,4.5l0,1.1c0,0.4,0.1,0.7-0.1,1.2
					c-0.3,0.4-0.6,0.5-1,0.7c-0.4,0.1-0.7,0.2-1.1,0.4c0.3-0.2,0.7-0.3,1-0.5c0.3-0.2,0.7-0.4,0.8-0.7c0-0.3,0-0.7,0-1.1L61,76.3
					c-0.1-1.5-0.2-3-0.3-4.5c-0.1-0.7-0.1-1.5-0.1-2.3c0-0.4,0.1-0.8,0.2-1.2c0.1-0.4,0.3-0.8,0.5-1.1c0.7-1.3,1.5-2.6,2.3-3.9
					l0,0.1c0,0.1,0,0-0.1,0c-0.1,0-0.1-0.1-0.2-0.1L63,63l-0.8-0.5L60.6,61.5z"/>
			</g>
			<g>
				<path class="st8" d="M43.7,78c0.5-1.2,1.2-2.4,2.2-3.3c1-0.9,2.2-1.7,3.6-1.9c1.4-0.2,2.8,0.1,4,0.7c0.6,0.3,1.1,0.9,1.4,1.5
					c0.2,0.7,0.2,1.4,0,2c0.2-1.3-0.5-2.6-1.6-3c-1.1-0.5-2.4-0.7-3.6-0.5c-1.2,0.2-2.3,0.8-3.3,1.6C45.3,75.9,44.4,76.9,43.7,78z"
					/>
			</g>
			<g>
				<path class="st8" d="M35.1,63.8C34,63,33,62.2,31.9,61.4c-1.1-0.8-2.1-1.6-3.1-2.5L29,59c-0.4,0-0.8,0.1-1.1,0.3
					c-0.4,0.2-0.7,0.4-1,0.6c-0.3,0.3-0.5,0.5-0.7,0.9c-0.2,0.3-0.3,0.7-0.4,1.1l-0.1-0.4c1.1,0.8,2.2,1.6,3.3,2.4
					c1.1,0.8,2.2,1.7,3.3,2.5c-1.2-0.7-2.4-1.4-3.5-2.2c-1.2-0.7-2.3-1.5-3.4-2.2l0,0c-0.1-0.1-0.2-0.2-0.1-0.3
					c0.1-0.4,0.2-0.9,0.5-1.3c0.2-0.4,0.5-0.8,0.9-1.1c0.3-0.3,0.7-0.5,1.2-0.7c0.4-0.2,0.9-0.3,1.3-0.3c0.1,0,0.2,0,0.2,0.1
					c1,0.9,2,1.7,3,2.6C33.2,62,34.2,62.9,35.1,63.8z"/>
			</g>
			<g>
				<path class="st8" d="M36.2,69.9c0.4,0,0.7,0.1,0.9,0.3c0.2,0.2,0.4,0.4,0.4,0.8c-0.4,0-0.7-0.1-0.9-0.3
					C36.5,70.5,36.3,70.3,36.2,69.9z"/>
			</g>
			<g>
				<path class="st8" d="M49.8,73.2c0.1,0.4,0.4,0.6,0.7,0.9c0.3,0.3,0.6,0.5,0.9,0.7c0.6,0.4,1.2,0.9,1.8,1.3
					c1.2,0.8,2.5,1.6,3.8,2.3c2.6,1.5,5,3.2,7.2,5.4c1,1.1,2,2.3,2.6,3.8c0.3,0.7,0.5,1.5,0.5,2.3c0,0.8-0.2,1.6-0.4,2.3
					c-0.5,1.4-1.3,2.8-2.1,4c-0.8,1.3-1.7,2.5-2.7,3.6l0-0.1l-0.8,3.4l0.5-3.4c0,0,0,0,0,0l0,0c1.7-2.4,3.4-4.9,4.3-7.6
					c0.2-0.7,0.4-1.4,0.4-2.1c0-0.7-0.2-1.4-0.5-2c-0.6-1.3-1.5-2.5-2.5-3.5c-2-2.1-4.5-3.8-6.9-5.4c-1.2-0.8-2.5-1.6-3.7-2.5
					c-0.6-0.4-1.2-0.9-1.8-1.4C50.7,74.4,50.1,73.9,49.8,73.2z"/>
			</g>
			<g>
				<path class="st8" d="M58.2,100.7c0.7-0.8,1.1-1.7,1.6-2.6c0.4-0.9,0.9-1.8,1.4-2.7c0.5-0.9,0.9-1.8,1.2-2.7
					c0.1-0.5,0.2-0.9,0.2-1.5c0-0.5,0-1-0.3-1.4c0.4,0.3,0.6,0.9,0.7,1.4c0.1,0.5,0.1,1.1,0,1.6c-0.2,1.1-0.6,2-1.1,2.9
					c-0.5,0.9-1,1.8-1.5,2.6C59.7,99.3,59.1,100.1,58.2,100.7z"/>
			</g>
			<g>
				<path class="st8" d="M61.3,88.1c-1.5-1.9-3.3-3.5-5.2-4.9c-1.9-1.4-4-2.6-6.1-3.7l0,0c-0.5-0.2-1.2-0.2-1.6,0.2
					c-0.2,0.2-0.4,0.4-0.5,0.7c-0.1,0.2-0.1,0.6-0.2,0.9L47.7,81c1.4,1.1,2.3,2.6,2.9,4.1c0.6,1.6,0.9,3.3,1,4.9
					c0.1,1.7,0,3.4-0.2,5c-0.2,1.7-0.4,3.3-0.7,4.9c-0.6,3.3-1.4,6.5-2.6,9.6c-0.6,1.6-1.3,3.1-2.2,4.5c-0.9,1.4-2,2.8-3.7,3.5
					c-1.7,0.6-3.5,0.5-5.1,0c-1.6-0.4-3.2-1.1-4.6-2c-2.9-1.6-5.5-3.7-7.9-6c-2.4-2.3-4.6-4.9-5.9-8c-0.7-1.5-1.2-3.1-1.6-4.7
					c-0.2-0.8-0.4-1.6-0.6-2.4L16,92.2l0.5,2.4c0.2,0.8,0.4,1.6,0.6,2.4c0.4,1.6,1,3.2,1.7,4.6c1.4,3,3.6,5.5,6,7.8
					c1.2,1.1,2.4,2.2,3.8,3.2c1.3,1,2.7,1.9,4.1,2.7c1.4,0.8,2.9,1.5,4.5,1.9c1.5,0.4,3.2,0.5,4.7,0c1.4-0.6,2.5-1.9,3.3-3.3
					c0.9-1.4,1.5-2.9,2.1-4.4c1.2-3.1,2-6.3,2.7-9.5c0.3-1.6,0.6-3.2,0.8-4.9c0.2-1.6,0.3-3.3,0.2-4.9c-0.1-1.6-0.3-3.2-0.9-4.8
					c-0.6-1.5-1.4-3-2.7-3.9l0,0c-0.1-0.1-0.1-0.2-0.1-0.3c0.1-0.2,0.1-0.6,0.2-0.9c0.1-0.3,0.4-0.6,0.6-0.8c0.6-0.4,1.4-0.5,2-0.2
					l0,0C54.5,81.4,58.4,84.3,61.3,88.1z"/>
			</g>
			<g>
				<path class="st8" d="M59,101.9c0.3-0.5,0.7-0.8,1.1-1.1l-0.1,0.2l0,0l0,0l0,0c1.4,0.2,0.4,0.1,0.7,0.1l0,0l0,0l0,0l0,0l0,0.1
					l0,0.1l0,0.2c0,0.1-0.1,0.3-0.1,0.4c-0.1,0.3-0.2,0.5-0.4,0.8c-0.1-0.3-0.2-0.6-0.2-0.9c0-0.1,0-0.3,0-0.4l0-0.2l0-0.1l0-0.1
					l0,0l0,0l0,0l0,0c0.3,0-0.7-0.1,0.7,0.1l0,0l0,0l0,0l0,0c0,0.1-0.1,0.2-0.1,0.2C60.1,101.7,59.6,101.9,59,101.9z"/>
			</g>
			<g>
				<path class="st8" d="M65,100.8c-0.5-0.5-0.8-1.1-1-1.7c-0.2-0.6-0.2-1.3,0-1.9c0.3,0.6,0.5,1.2,0.7,1.7
					C64.8,99.5,65,100.1,65,100.8z"/>
			</g>
			<g>
				<path class="st8" d="M62.8,98.8c0.4,0.5,0.7,0.9,0.9,1.5c0.2,0.5,0.4,1.2,0.2,1.8c-0.3-0.5-0.6-1-0.9-1.5
					C62.9,100,62.7,99.4,62.8,98.8z"/>
			</g>
			<g>
				<path class="st8" d="M60.2,88.8c0.5-0.3,0.9-0.7,1.5-0.8c0.3-0.1,0.6-0.2,0.9-0.1c0.4,0,0.7,0.3,0.9,0.7
					c0.1,0.1,0.1,0.3,0.2,0.5c0,0.2,0,0.5-0.2,0.7c-0.3,0.2-0.5,0.1-0.6,0.2c-0.1,0-0.3,0-0.4,0c-0.5,0-1.1,0.1-1.7,0
					c0.5-0.2,1-0.4,1.6-0.6c0.2-0.1,0.8-0.1,0.6-0.1c0,0,0,0,0-0.1c0-0.1-0.1-0.2-0.1-0.3c-0.1-0.3-0.5-0.4-1.1-0.3
					C61.3,88.6,60.8,88.7,60.2,88.8z"/>
			</g>
			<g>
				<path class="st8" d="M66.4,87.2c0.4-0.3,0.8-0.4,1.2-0.5c0.4,0,0.8-0.1,1.3,0.1c-0.3,0.4-0.8,0.5-1.2,0.6
					C67.3,87.4,66.9,87.4,66.4,87.2z"/>
			</g>
			<g>
				<path class="st8" d="M66.9,88.5c0.4-0.3,0.7-0.5,1.1-0.6c0.4-0.1,0.7-0.2,1.2-0.2c-0.2,0.5-0.6,0.7-1,0.8
					C67.8,88.7,67.3,88.7,66.9,88.5z"/>
			</g>
			<g>
				<path class="st8" d="M67,89.3c0.6-0.2,1.1-0.1,1.6,0c0.5,0.1,1,0.2,1.5,0.5C69.6,90,69.1,90,68.5,90C68,89.9,67.5,89.7,67,89.3z
					"/>
			</g>
			<g>
				<path class="st8" d="M67,90.8c0.6-0.2,1.1-0.2,1.6-0.2c0.5,0,1,0,1.6,0.2c-0.5,0.4-1,0.5-1.6,0.5C68.1,91.2,67.5,91.1,67,90.8z"
					/>
			</g>
			<g>
				<path class="st8" d="M48.7,81.6c1,0.4,1.8,1.2,2.4,2.1c0.6,0.9,1.1,1.8,1.4,2.8c0.3,1,0.5,2.1,0.4,3.2c-0.1,1.1-0.5,2.2-1.4,2.8
					c0.7-0.8,0.9-1.8,0.8-2.8c0-1-0.3-2-0.6-2.9c-0.3-1-0.7-1.9-1.2-2.8C50.1,83.1,49.6,82.2,48.7,81.6z"/>
			</g>
			<g>
				<path class="st8" d="M43.8,79.2c0.2,0.6,0.4,1.2,0.3,1.8c-0.1,0.6-0.4,1.2-0.8,1.7c-0.7,1-1.6,1.9-2.6,2.6
					c-1,0.7-2.1,1.3-2.9,2.1c-0.8,0.8-1.4,1.9-1.3,3c0,1.2,0.4,2.3,0.7,3.5c0.3,1.2,0.6,2.3,0.9,3.5c0.6,2.3,1.2,4.7,2.7,6.6
					c-0.4-0.5-0.8-0.9-1.1-1.4c-0.3-0.5-0.6-1.1-0.8-1.6c-0.5-1.1-0.8-2.3-1.1-3.5c-0.3-1.2-0.7-2.3-1-3.5c-0.3-1.2-0.7-2.3-0.7-3.6
					c0-0.6,0.1-1.3,0.4-1.9c0.3-0.6,0.7-1.1,1.1-1.5c0.9-0.9,2-1.4,3-2.1c1-0.6,1.9-1.5,2.6-2.4c0.4-0.4,0.7-0.9,0.8-1.5
					C44.1,80.4,44,79.8,43.8,79.2z"/>
			</g>
			<g>
				<path class="st8" d="M24,100.2c0.3-0.1,0.7-0.2,1-0.4c0.3-0.2,0.4-0.6,0.6-0.9c0.3-0.6,0.6-1.3,0.9-2c0.6-1.3,1.3-2.7,2.2-3.9
					c0.5-0.6,1.1-1.1,1.7-1.5c0.7-0.4,1.4-0.7,2-0.9c0.7-0.3,1.4-0.5,1.9-1l0.9-0.6c0.3-0.2,0.6-0.5,1-0.4c-0.4,0-0.6,0.3-0.9,0.5
					l-0.9,0.7c-0.5,0.5-1.3,0.8-1.9,1.1c-0.7,0.3-1.3,0.6-1.9,0.9c-0.6,0.4-1.1,0.9-1.6,1.4c-0.9,1.1-1.6,2.4-2.2,3.7
					c-0.3,0.6-0.7,1.3-1.1,1.9c-0.2,0.3-0.4,0.7-0.7,0.9C24.7,100.1,24.4,100.1,24,100.2z"/>
			</g>
			<g>
				<path class="st8" d="M29,92.9c-0.4,0-0.8,0.2-1.2,0.4c-0.4,0.2-0.7,0.4-1,0.7c-0.7,0.5-1.3,1.1-1.9,1.7
					c-0.6,0.6-1.1,1.3-1.7,1.9c-0.3,0.3-0.8,0.5-1.3,0.4c-0.5-0.1-0.9-0.3-1.2-0.5c0.8,0.3,1.7,0.4,2.2-0.2c0.5-0.6,1-1.4,1.6-2
					c0.6-0.6,1.3-1.2,2-1.6c0.4-0.2,0.8-0.4,1.2-0.6C28.2,92.9,28.6,92.8,29,92.9z"/>
			</g>
			<g>
				<path class="st8" d="M35.4,90.1c-0.7,0.8-0.7,1.9-0.5,2.9c0.2,1,0.5,2,0.7,3c0.2,1.1,0,2.1,0.2,3.1c0.1,0.5,0.2,0.9,0.4,1.4
					l0.6,1.5c0.4,1,0.7,1.9,1.3,2.8c0.6,0.8,1.3,1.5,2,2.3c1.3,1.5,3.6,2.1,4.8,3.9c0,0,0,0,0,0c0,0,0,0,0,0l0,0l-0.1-0.2L45,111
					l0,0c-1.3-1.6-3.5-2.1-5-3.6c-0.8-0.7-1.5-1.4-2.2-2.3c-0.6-0.9-1-1.9-1.4-2.9l-0.5-1.5c-0.2-0.5-0.4-1-0.5-1.5
					c-0.2-1.1,0-2.1-0.1-3.1c-0.1-1-0.4-2-0.6-3.1C34.6,92.1,34.7,90.9,35.4,90.1z"/>
			</g>
			<g>
				<path class="st8" d="M37.4,104.4c0.2,0.8,0.2,1.6,0.2,2.3c0,0.8-0.2,1.5,0,2.2c0.1,0.7,0.5,1.4,0.8,2.2c0.1,0.4,0.2,0.8,0.2,1.2
					c-0.1,0.4-0.1,0.8-0.2,1.2c0-0.4-0.1-0.8-0.1-1.2c-0.1-0.4-0.2-0.7-0.3-1.1c-0.3-0.7-0.7-1.4-0.9-2.2c-0.2-0.8,0-1.7,0.1-2.4
					C37.3,106,37.3,105.2,37.4,104.4z"/>
			</g>
			<g>
				<path class="st8" d="M37,108.5c-0.4,0.3-0.8,0.7-1.1,1.1c-0.3,0.4-0.6,0.9-0.9,1.3c-0.3,0.4-0.8,0.8-1.3,1
					c-0.5,0.2-1.2,0.2-1.6-0.2c0.5,0.2,1,0,1.4-0.2c0.4-0.2,0.8-0.6,1.1-1c0.3-0.4,0.6-0.8,1-1.2C36,108.9,36.5,108.6,37,108.5z"/>
			</g>
			<g>
				<path class="st8" d="M22.7,73.2c-1.2,0.2-2.3,0.8-3.1,1.6c-0.9,0.8-1.6,1.8-2.1,2.8c-0.6,1-1.1,2.1-1.4,3.2
					c-0.4,1.1-0.7,2.2-0.8,3.4c-0.1,1.2,0,2.3,0.1,3.5c0.1,0.6,0.2,1.2,0.2,1.8c0.1,0.6,0.1,1.2,0.2,1.7c0.3,1.1,1.5,1.3,2.6,1.4
					c1.1,0,2.3-0.1,3.4-0.4c2.3-0.6,4.3-1.7,6.3-3c1-0.6,2-1.3,2.5-2.2c0.1-0.2,0.2-0.5,0.3-0.7l0.1-0.4l0-0.2l0-0.1l0,0
					c0,0,0.1-0.3,0.2-0.3c0.1,0,0,0,0.1,0c0.6-0.2,1.1-0.3,1.7-0.5c1.1-0.3,2.2-0.8,3.1-1.4c1-0.6,1.8-1.4,2.2-2.5
					c0.2-0.5,0.4-1.1,0.5-1.6c0.2-0.5-0.1-1-0.5-1.4c-0.8-0.8-1.9-1.2-3-1.6c0,0,0,0,0,0c-0.7-0.8-1.7-1.4-2.8-1.6
					c-1.1-0.2-2.2-0.2-3.3-0.4c-1.1-0.1-2.2-0.3-3.3-0.6C24.9,73.2,23.8,73.1,22.7,73.2z M22.7,73.2c1.1-0.2,2.2-0.1,3.3,0.2
					c1.1,0.3,2.2,0.4,3.3,0.5c1.1,0.1,2.2,0.2,3.3,0.3c1.1,0.1,2.1,0.8,2.9,1.6l0,0c1.1,0.4,2.3,0.7,3.2,1.6
					c0.2,0.2,0.4,0.5,0.5,0.8c0.1,0.3,0.2,0.7,0.1,1c-0.1,0.6-0.3,1.2-0.5,1.7c-0.4,1.2-1.3,2.1-2.3,2.8c-1,0.7-2.1,1.2-3.3,1.5
					l-1.7,0.5c0,0-0.1,0,0,0c0.1,0,0.2-0.3,0.1-0.3l0,0.1l0,0.1l0,0.2c0,0.2,0,0.3-0.1,0.5c-0.1,0.3-0.2,0.6-0.4,0.9
					c-0.7,1.1-1.7,1.8-2.7,2.5c-2,1.3-4.1,2.5-6.5,3c-1.2,0.3-2.4,0.4-3.6,0.4c-0.6,0-1.2-0.1-1.8-0.4c-0.6-0.2-1.1-0.8-1.3-1.4
					c-0.2-0.6-0.2-1.2-0.2-1.8c0-0.6-0.1-1.2-0.2-1.8c-0.1-1.2-0.1-2.4,0-3.6c0.1-1.2,0.5-2.3,0.9-3.4c0.4-1.1,0.9-2.2,1.5-3.2
					c0.6-1,1.3-2,2.2-2.8C20.5,74,21.6,73.4,22.7,73.2z"/>
			</g>
			<g>
				<path class="st8" d="M22.1,73.4c2.6-2,5.3-4,8-5.8l2-1.4c0.7-0.5,1.4-0.9,2-1.4c1.2-1.1,2.3-2.3,3.4-3.5l0,0.2
					c-0.7-0.9-1.4-1.8-2-2.7c0.8,0.8,1.6,1.6,2.3,2.5c0.1,0.1,0.1,0.2,0,0.2l0,0c-1,1.3-2,2.6-3.2,3.8c-0.6,0.6-1.3,1.1-2,1.5
					l-2,1.4C27.7,69.9,24.9,71.7,22.1,73.4z"/>
			</g>
			<g>
				<path class="st8" d="M42.8,58.7c-0.1,0.6-0.1,1.3,0.1,1.9c0.1,0.3,0.3,0.6,0.5,0.7c0.2,0.2,0.6,0.2,0.9,0.3
					c1.3,0.2,2.5,0,3.8-0.2c1.3-0.1,2.6-0.4,3.8-0.6c1.3-0.3,2.5-0.6,3.8-0.8l-0.1,0c0.4-0.2,0.7,0.1,0.8,0.2
					c0.2,0.2,0.2,0.3,0.3,0.5c0.1,0.3,0.3,0.6,0.4,1c0.2,0.7,0.3,1.4,0.3,2.1c0,0.1,0,0.1,0,0.2c0,0.1-0.1,0.2-0.1,0.2
					c-0.1,0.1-0.2,0.2-0.3,0.2c-0.2,0.1-0.3,0.2-0.5,0.2c-0.3,0.1-0.6,0.2-1,0.3c-0.6,0.2-1.3,0.3-2,0.5c-2.6,0.5-5.3,0.5-7.9,0.8
					c-2.6,0.4-5.2,1.1-7.5,2.3C37,69.2,36,70,35.1,71c-0.9,1-1.6,2.1-2,3.4c0.6-2.6,2.6-4.8,4.9-6.1c2.3-1.4,4.9-2.2,7.6-2.6
					c2.7-0.3,5.3-0.4,7.9-0.9c0.6-0.1,1.3-0.3,1.9-0.4c0.3-0.1,0.7-0.2,0.9-0.3c0.3-0.1,0.6-0.3,0.5-0.3c0.1-0.6,0-1.2-0.2-1.8
					c-0.1-0.3-0.2-0.6-0.3-0.9c-0.1-0.1-0.1-0.3-0.2-0.3c-0.1-0.1-0.2-0.1-0.1-0.1l0,0l0,0l0,0l-0.1,0c-2.5,0.5-5.1,1.1-7.7,1.2
					c-1.3,0.1-2.6,0.3-3.9,0c-0.3-0.1-0.7-0.2-0.9-0.4c-0.3-0.2-0.5-0.5-0.6-0.8C42.6,60,42.6,59.3,42.8,58.7z"/>
			</g>
			<g>
				<path class="st8" d="M34.4,74.9c1-2.2,2.6-3.9,4.4-5.4c0.9-0.7,1.9-1.4,2.9-2c1-0.6,2.1-1,3.2-1.4c-1,0.6-2,1.2-2.9,1.9
					c-1,0.6-1.9,1.3-2.8,2c-0.9,0.7-1.7,1.5-2.6,2.3C35.9,73.2,35.1,74,34.4,74.9z"/>
			</g>
			<g>
				<path class="st8" d="M51.5,61c0.1-0.5,0.3-1.1,0.4-1.6L52,59c0-0.1,0-0.1,0.1-0.3c0.1-0.1,0.2-0.1,0.3-0.2
					c0.3-0.1,0.6-0.2,0.8-0.2c1.1-0.2,2.2-0.2,3.3,0.1l0,0c0.1,0,0.2,0.1,0.2,0.3l0,0c-0.2,0.6-0.5,1-0.8,1.5
					c0.1-0.5,0.3-1.1,0.3-1.6l0.2,0.3c-1-0.1-2.1,0-3.1,0.1c-0.3,0-0.5,0.1-0.7,0.1c0,0-0.1,0-0.1,0c0-0.1,0,0,0,0.1l-0.2,0.4
					C52.1,60.1,51.8,60.5,51.5,61z"/>
			</g>
		</g>
	</g>
	<g>
		<path class="st8" d="M201,48.4c-3,2.7-6,5.2-9.1,7.8c-3.1,2.5-6.3,4.9-9.6,7.2c-3.2,2.3-6.6,4.5-9.9,6.7
			c-3.4,2.1-6.8,4.2-10.1,6.4c-6.6,4.4-12.9,9.4-17.3,16c-2.2,3.3-4,6.9-5.3,10.6c-1.4,3.7-2.4,7.6-3,11.5c0.5-4,1.3-7.9,2.6-11.7
			c1.3-3.8,3-7.5,5.2-10.8c2.2-3.4,4.9-6.4,7.9-9.1c3-2.7,6.2-5.1,9.5-7.3c3.3-2.2,6.8-4.3,10.1-6.4c3.4-2.1,6.7-4.3,10-6.6
			c3.3-2.2,6.5-4.6,9.7-7C194.8,53.4,197.9,50.9,201,48.4z"/>
	</g>
	<g>
		<path class="st8" d="M175.4,22.5l-11.5,8.1c-3.9,2.7-7.8,5.3-11.7,7.8c-7.9,5.1-16.2,9.6-24.6,13.6c-8.5,4-17.1,7.7-25.8,11.2
			l-13.1,5.2l-13.1,5.1l12.9-5.5l13-5.4c8.6-3.7,17.3-7.3,25.7-11.4c4.2-2,8.4-4.1,12.5-6.3c4.1-2.2,8.1-4.6,12.1-7.1
			c4-2.4,7.9-5,11.8-7.6L175.4,22.5z"/>
	</g>
	<g>
		<path class="st8" d="M115.9,119.1c-0.3-3,0-6.1-0.8-9c-0.4-1.4-1-2.8-2.1-3.8c-1.1-1-2.5-1.5-3.9-1.7c-1.5-0.1-2.9,0.2-4.3,0.6
			l-4.2,1.6l-8.5,3.2c-5.7,2.1-11.5,4.1-17.2,6c-5.8,1.9-11.6,3.7-17.4,5.5c5.7-2.1,11.4-4.2,17.2-6.2c5.7-2,11.5-4,17.1-6.2
			l8.6-3.1l4.3-1.6c1.5-0.5,3.1-0.7,4.7-0.6c1.6,0.2,3.1,0.8,4.3,1.9c1.2,1.1,1.8,2.6,2.2,4.1C116.2,113,115.8,116.1,115.9,119.1z"
			/>
	</g>
</g>
</svg>
