<?xml version="1.0" encoding="utf-8"?>
<!-- Generator: Adobe Illustrator 21.1.0, SVG Export Plug-In . SVG Version: 6.00 Build 0)  -->
<svg version="1.1" id="Layer_1" xmlns="http://www.w3.org/2000/svg" xmlns:xlink="http://www.w3.org/1999/xlink" x="0px" y="0px"
	 viewBox="0 0 72 72" style="enable-background:new 0 0 72 72;" xml:space="preserve">
<style type="text/css">
	.st0{fill:#F3F3F3;}
	.st1{fill:#FFFFFF;stroke:#F3F3F3;stroke-width:0.75;stroke-miterlimit:10;}
</style>
<g transform="translate(0,-952.36218)">
	<path class="st0" d="M36.1,965.2c0.2,0,0.4,0.1,0.5,0.3c7.9,8.7,15.4,19,15.4,28.7c0,9.6-7.1,17.5-16,17.5c-8.9,0-16-7.9-16-17.5
		c0-9.6,7.5-20,15.4-28.7C35.6,965.2,35.9,965.1,36.1,965.2z M36,967.2c-7.6,8.5-14.4,18.3-14.4,26.9c0,8.8,6.5,15.9,14.4,15.9
		c7.9,0,14.4-7.1,14.4-15.9C50.4,985.5,43.6,975.7,36,967.2z M45.5,993.1c0.5,4.5-2.5,9.7-6.8,12c-0.4,0.2-0.9,0-1.1-0.3
		c-0.2-0.4,0-0.9,0.3-1.1c3.6-2,6.4-6.8,5.9-10.4c-0.1-0.5,0.4-0.9,0.9-0.9C45.3,992.4,45.5,992.8,45.5,993.1L45.5,993.1z"/>
</g>
</svg>
