<?xml version="1.0" encoding="utf-8"?>
<!-- Generator: Adobe Illustrator 21.1.0, SVG Export Plug-In . SVG Version: 6.00 Build 0)  -->
<svg version="1.1" id="Layer_1" xmlns="http://www.w3.org/2000/svg" xmlns:xlink="http://www.w3.org/1999/xlink" x="0px" y="0px"
	 viewBox="0 0 72 72" style="enable-background:new 0 0 72 72;" xml:space="preserve">
<style type="text/css">
	.st0{fill:#F3F3F3;}
	.st1{fill:none;stroke:#F3F3F3;stroke-width:0.75;stroke-miterlimit:10;}
</style>
<g>
	
		<rect x="28.6" y="5.1" transform="matrix(0.9183 0.3959 -0.3959 0.9183 17.1934 -11.3108)" class="st1" width="14.8" height="61.7"/>
	<rect x="26.1" y="40.9" transform="matrix(0.9183 0.3959 -0.3959 0.9183 19.3342 -9.8127)" class="st0" width="14.8" height="2"/>
	<rect x="20.1" y="54.6" transform="matrix(0.9183 0.3959 -0.3959 0.9183 24.2789 -6.3527)" class="st0" width="14.8" height="2"/>
	<g>
		
			<rect x="28.2" y="43.8" transform="matrix(0.9183 0.3959 -0.3959 0.9183 20.8886 -7.5204)" class="st0" width="0.9" height="6.2"/>
		<polygon class="st0" points="26.1,49.1 28.9,50.3 26.6,51.6 		"/>
	</g>
	<g>
		
			<rect x="32.5" y="45.6" transform="matrix(0.9183 0.3959 -0.3959 0.9183 21.9587 -9.0497)" class="st0" width="0.9" height="6.2"/>
		<polygon class="st0" points="30.4,50.9 33.1,52.1 30.8,53.5 		"/>
	</g>
</g>
</svg>
