<?xml version="1.0" encoding="utf-8"?>
<!-- Generator: Adobe Illustrator 21.1.0, SVG Export Plug-In . SVG Version: 6.00 Build 0)  -->
<svg version="1.1" id="Layer_1" xmlns="http://www.w3.org/2000/svg" xmlns:xlink="http://www.w3.org/1999/xlink" x="0px" y="0px"
	 viewBox="0 0 72 72" style="enable-background:new 0 0 72 72;" xml:space="preserve">
<style type="text/css">
	.st0{fill:#F3F3F3;}
	.st1{fill:#FFFFFF;stroke:#F3F3F3;stroke-width:0.75;stroke-miterlimit:10;}
</style>
<g transform="translate(0,-952.36218)">
	<path class="st0" d="M25.8,957.7c-3.3,0-6,3.2-6,7.1v47.1c0,3.9,2.7,7.1,6,7.1h20.5c3.3,0,6-3.2,6-7.1v-47.1c0-3.9-2.7-7.1-6-7.1
		H25.8z M25.8,959.1h20.5c2.7,0,4.8,2.5,4.8,5.7H21C21,961.7,23.1,959.1,25.8,959.1z M21,966.3H51v41.4H21V966.3z M21,1009H51v2.9
		c0,3.2-2.1,5.7-4.8,5.7H25.8c-2.7,0-4.8-2.5-4.8-5.7V1009z M31.8,1012.6c-0.3,0-0.6,0.3-0.6,0.7c0,0.4,0.3,0.7,0.6,0.7h8.4
		c0.3,0,0.6-0.3,0.6-0.7c0-0.4-0.3-0.7-0.6-0.7H31.8z"/>
</g>
</svg>
