<?xml version="1.0" encoding="utf-8"?>
<!-- Generator: Adobe Illustrator 21.1.0, SVG Export Plug-In . SVG Version: 6.00 Build 0)  -->
<svg version="1.1" id="Layer_3" xmlns="http://www.w3.org/2000/svg" xmlns:xlink="http://www.w3.org/1999/xlink" x="0px" y="0px"
	 viewBox="0 0 130.6 39.9" style="enable-background:new 0 0 130.6 39.9;" xml:space="preserve">
<style type="text/css">
	.st0{display:none;fill:#6D6D6D;}
	.st1{display:none;fill:#434343;}
	.st2{fill:#F3F3F3;}
	.st3{clip-path:url(#SVGID_2_);}
	.st4{fill:#FFFFFF;}
	.st5{fill:none;}
	.st6{clip-path:url(#SVGID_4_);}
	.st7{clip-path:url(#SVGID_6_);fill:#1D1D1B;}
	.st8{clip-path:url(#SVGID_6_);fill:none;stroke:#1D1D1B;stroke-width:0.355;}
	.st9{clip-path:url(#SVGID_6_);fill:#0072BB;}
	.st10{clip-path:url(#SVGID_8_);}
	.st11{clip-path:url(#SVGID_10_);fill:#1D1D1B;}
	.st12{clip-path:url(#SVGID_10_);fill:none;stroke:#1D1D1B;stroke-width:0.355;}
	.st13{clip-path:url(#SVGID_10_);fill:#0072BB;}
	.st14{clip-path:url(#SVGID_12_);fill:#F3F3F3;}
	.st15{clip-path:url(#SVGID_12_);fill:none;stroke:#F3F3F3;stroke-width:0.355;}
</style>
<rect x="-1" y="-2.1" class="st0" width="131.6" height="43.5"/>
<g>
	<defs>
		<rect id="SVGID_3_" x="-261" y="-403.1" width="595.3" height="841.9"/>
	</defs>
	<clipPath id="SVGID_2_">
		<use xlink:href="#SVGID_3_"  style="overflow:visible;"/>
	</clipPath>
</g>
<g>
	<defs>
		<rect id="SVGID_7_" x="-261" y="-403.1" width="595.3" height="841.9"/>
	</defs>
	<clipPath id="SVGID_4_">
		<use xlink:href="#SVGID_7_"  style="overflow:visible;"/>
	</clipPath>
</g>
<g>
	<defs>
		<rect id="SVGID_11_" x="7.7" y="4.7" width="115.3" height="29.5"/>
	</defs>
	<clipPath id="SVGID_6_">
		<use xlink:href="#SVGID_11_"  style="overflow:visible;"/>
	</clipPath>
	<path style="clip-path:url(#SVGID_6_);fill:#F3F3F3;" d="M36.8,26.9h1.9c1.1,0,2,0.4,2,1.6c0,1.2-1,1.6-2,1.6h-1.1v2.5h-0.8V26.9z
		 M38.9,29.4c0.1,0,1,0,1-0.9c0-1-0.9-0.9-1-0.9h-1.3v1.9H38.9z"/>
	<path style="clip-path:url(#SVGID_6_);fill:#F3F3F3;" d="M42.5,32.7h-0.8v-4h0.8v0.8h0c0.1-0.6,0.6-0.8,1.2-0.8c0.1,0,0.2,0,0.3,0
		v0.7c-0.1,0-0.2,0-0.3,0c-1,0-1.1,0.5-1.1,1.4V32.7z"/>
	<path style="clip-path:url(#SVGID_6_);fill:#F3F3F3;" d="M45.3,30.8c-0.1,0.7,0.2,1.4,1,1.4c0.6,0,0.9-0.2,1-0.8h0.8
		c-0.1,0.9-0.8,1.4-1.8,1.4c-1.3,0-1.8-0.9-1.8-2.1c0-1.2,0.6-2.2,1.9-2.2c1.2,0,1.8,0.8,1.8,1.9v0.4H45.3z M47.3,30.3
		c0-0.7-0.3-1.2-1-1.2c-0.6,0-1,0.5-1,1.2H47.3z"/>
	<path style="clip-path:url(#SVGID_6_);fill:#F3F3F3;" d="M51.5,29.9c0-0.5-0.3-0.9-0.8-0.9c-0.7,0-1,0.6-1,1.6c0,0.9,0.3,1.6,1,1.6
		c0.5,0,0.8-0.3,0.9-0.9h0.8c-0.1,0.9-0.7,1.5-1.6,1.5c-1.3,0-1.8-0.9-1.8-2.1c0-1.2,0.6-2.2,1.9-2.2c0.8,0,1.5,0.5,1.5,1.4H51.5z"
		/>
	<path style="clip-path:url(#SVGID_6_);fill:#F3F3F3;" d="M53.2,26.9h0.9v0.8h-0.9V26.9z M53.3,28.7H54v4h-0.8V28.7z"/>
	<path style="clip-path:url(#SVGID_6_);fill:#F3F3F3;" d="M56.7,28.5c0.8,0,1.6,0.3,1.6,1.2h-0.8c0-0.5-0.4-0.7-0.8-0.7
		c-0.4,0-0.7,0.2-0.7,0.6c0,0.4,0.7,0.5,1,0.6c0.7,0.2,1.5,0.3,1.5,1.2c0,1-1,1.3-1.8,1.3c-0.8,0-1.5-0.4-1.5-1.3h0.8
		c0,0.5,0.4,0.8,0.8,0.8c0.4,0,0.9-0.2,0.9-0.7c0-0.9-2.4-0.2-2.4-1.8C55.2,28.9,56,28.5,56.7,28.5"/>
	<path style="clip-path:url(#SVGID_6_);fill:#F3F3F3;" d="M60,30.8c-0.1,0.7,0.2,1.4,1,1.4c0.6,0,0.9-0.2,1-0.8h0.8
		c-0.1,0.9-0.8,1.4-1.8,1.4c-1.3,0-1.8-0.9-1.8-2.1c0-1.2,0.6-2.2,1.9-2.2c1.2,0,1.8,0.8,1.8,1.9v0.4H60z M62,30.3
		c0-0.7-0.3-1.2-1-1.2c-0.6,0-1,0.5-1,1.2H62z"/>
	<rect x="63.9" y="26.9" style="clip-path:url(#SVGID_6_);fill:#F3F3F3;" width="0.8" height="5.8"/>
	<polygon style="clip-path:url(#SVGID_6_);fill:#F3F3F3;" points="67.4,34.2 66.6,34.2 67.2,32.6 65.5,28.7 66.4,28.7 67.6,31.8 
		68.9,28.7 69.7,28.7 	"/>
	<path style="clip-path:url(#SVGID_6_);fill:#F3F3F3;" d="M73.6,30.1v2.6h-0.8v-5.8h2.1c1,0,2,0.3,2,1.4c0,0.7-0.4,1.2-1.1,1.4v0
		c0.7,0.2,0.8,0.5,0.9,1.2c0.1,0.6,0.2,1.2,0.4,1.7h-0.9c-0.1-0.3-0.2-0.7-0.2-1.1c-0.1-0.5-0.1-1-0.3-1.3c-0.2-0.3-0.6-0.2-0.9-0.3
		H73.6z M73.5,29.4h1.3c0.9,0,1.1-0.4,1.1-0.9c0-0.5-0.2-0.9-1.1-0.9h-1.3V29.4z"/>
	<path style="clip-path:url(#SVGID_6_);fill:#F3F3F3;" d="M78.1,26.9H79v0.8h-0.9V26.9z M78.1,28.7h0.8v4h-0.8V28.7z"/>
	<path style="clip-path:url(#SVGID_6_);fill:#F3F3F3;" d="M83.1,28.7h0.8c0,0.2,0,0.5,0,0.7v2.8c0,1.5-0.6,2.1-2.1,2.1
		c-0.9,0-1.5-0.4-1.5-1.3H81c0,0.5,0.4,0.7,0.9,0.7c1.1,0,1.1-0.9,1.1-1.8h0c-0.2,0.5-0.8,0.7-1.3,0.7c-1.2,0-1.7-0.9-1.7-2
		c0-1.2,0.6-2.1,1.9-2.1c0.4,0,0.8,0.2,1.1,0.5c0,0,0.1,0.2,0.1,0.2L83.1,28.7z M81.9,32c0.8,0,1.1-0.7,1.1-1.5
		c0-0.8-0.3-1.5-1.1-1.5c-0.9,0-1.1,0.8-1.1,1.5C80.8,31.2,81.1,32,81.9,32"/>
	<path style="clip-path:url(#SVGID_6_);fill:#F3F3F3;" d="M85.2,32.7v-5.8H86v2.3h0c0.3-0.4,0.7-0.7,1.3-0.7c1,0,1.4,0.7,1.4,1.4
		v2.7h-0.8v-2.4c0-0.7-0.2-1.2-0.9-1.2c-0.3,0-0.8,0.2-0.9,0.6c-0.2,0.4-0.1,0.7-0.1,0.9v2.1H85.2z"/>
	<path style="clip-path:url(#SVGID_6_);fill:#F3F3F3;" d="M90.1,28.7v-0.9l0.8-0.2v1.1l0.9,0v0.6l-0.9,0v2.6c0,0.3,0.2,0.4,0.5,0.4
		c0.1,0,0.3,0,0.4,0v0.6c-0.2,0-0.3,0-0.5,0c-0.2,0-0.3,0-0.5,0c-0.1,0-0.3-0.1-0.4-0.3c-0.1-0.2-0.2-0.2-0.2-0.7v-2.5l-0.7,0v-0.6
		L90.1,28.7z"/>
	<rect x="92.7" y="31.7" style="clip-path:url(#SVGID_6_);fill:#F3F3F3;" width="0.9" height="1"/>
	<polygon style="clip-path:url(#SVGID_6_);fill:#F3F3F3;" points="36.2,12.6 43.1,12.6 43.1,14 40.6,14 40.6,21.1 38.8,21.1 
		38.8,14 36.2,14 	"/>
	<path style="clip-path:url(#SVGID_6_);fill:#F3F3F3;" d="M51.9,12.6v5.3c0,2.3-1.6,3.4-3.7,3.4c-2.1,0-3.7-1.1-3.7-3.4v-5.3h1.8
		v4.6c0,1.4,0.1,2.7,1.9,2.7c1.8,0,1.9-1.3,1.9-2.7v-4.6H51.9z M46.5,10h1.2v1.4h-1.2V10z M48.6,10h1.2v1.4h-1.2V10z"/>
	<polygon style="clip-path:url(#SVGID_6_);fill:#F3F3F3;" points="53.2,12.6 55.2,12.6 57.4,19.3 57.4,19.3 59.7,12.6 61.5,12.6 
		58.3,21.1 56.3,21.1 	"/>
	<path style="clip-path:url(#SVGID_6_);fill:#F3F3F3;" d="M64.2,17.3v3.8H63v-8.5h3c1.4,0,2.9,0.4,2.9,2.1c0,1-0.6,1.8-1.6,2.1v0
		c1,0.2,1.2,0.8,1.3,1.7c0.1,0.8,0.2,1.8,0.5,2.6h-1.3c-0.1-0.5-0.2-1.1-0.3-1.6c-0.1-0.8-0.1-1.5-0.5-1.9c-0.3-0.4-0.8-0.4-1.3-0.4
		H64.2z M64.2,16.3h1.9c1.3-0.1,1.6-0.6,1.6-1.3c0-0.7-0.3-1.3-1.6-1.3h-1.9V16.3z"/>
	<path style="clip-path:url(#SVGID_6_);fill:#F3F3F3;" d="M70.9,21.1v-8.5H72V16h0c0.4-0.7,1.1-1,1.9-1c1.5,0,2,1,2,2.1v4h-1.1v-3.5
		c0-1-0.3-1.7-1.3-1.7c-0.4,0-1.1,0.3-1.3,0.8c-0.3,0.6-0.2,1-0.2,1.4v3H70.9z"/>
	<path style="clip-path:url(#SVGID_6_);fill:#F3F3F3;" d="M78.6,18.4c-0.1,1,0.3,2.1,1.5,2.1c0.9,0,1.3-0.3,1.4-1.2h1.2
		c-0.2,1.3-1.2,2-2.6,2c-1.9,0-2.7-1.3-2.7-3.1c0-1.7,0.9-3.2,2.7-3.2c1.8,0,2.6,1.2,2.6,2.8v0.6H78.6z M81.6,17.6
		c0-1-0.4-1.8-1.5-1.8c-0.9,0-1.5,0.8-1.5,1.8H81.6z"/>
	<rect x="84.3" y="12.9" style="clip-path:url(#SVGID_6_);fill:#F3F3F3;" width="1.3" height="1.2"/>
	<rect x="84.4" y="15.2" style="clip-path:url(#SVGID_6_);fill:#F3F3F3;" width="1.1" height="5.9"/>
	<path style="clip-path:url(#SVGID_6_);fill:#F3F3F3;" d="M88.5,16.1L88.5,16.1c0.4-0.7,1.2-1.1,1.8-1.1c0.4,0,2.2,0.1,2.2,2v4.1
		h-1.1v-3.7c0-1-0.4-1.5-1.4-1.5c0,0-0.6,0-1.1,0.4c-0.2,0.2-0.5,0.4-0.5,1.6v3.2h-1.1v-5.9h1.1V16.1z"/>
	<rect x="94.5" y="12.6" style="clip-path:url(#SVGID_6_);fill:#F3F3F3;" width="1.1" height="8.5"/>
	<path style="clip-path:url(#SVGID_6_);fill:#F3F3F3;" d="M101,17.5c0-1-0.1-1.6-1.3-1.6c-0.6,0-1.1,0.3-1.1,0.9h-1.2
		c0.1-1.3,1.1-1.8,2.2-1.8c1.2,0,2.4,0.4,2.4,2v2.8c0,0.3,0,0.8,0,1.3h-0.8c-0.1,0-0.3,0.1-0.3-0.1c0-0.3,0-0.5-0.1-0.8h0
		c-0.4,0.7-1,1.1-1.8,1.1c-1,0-2.1-0.5-2.1-1.7c0-1.7,1.5-2.1,2.9-2.1H101z M99.9,18.2c-0.7,0-1.6,0.3-1.6,1.1
		c0,0.7,0.5,1.1,1.2,1.1c1.3,0,1.6-1.1,1.5-2.2H99.9z"/>
	<path style="clip-path:url(#SVGID_6_);fill:#F3F3F3;" d="M105.1,16.1L105.1,16.1c0.4-0.7,1.2-1.1,1.8-1.1c0.4,0,2.2,0.1,2.2,2v4.1
		H108v-3.7c0-1-0.4-1.5-1.4-1.5c0,0-0.6,0-1.1,0.4c-0.2,0.2-0.5,0.4-0.5,1.6v3.2H104v-5.9h1.1V16.1z"/>
	<path style="clip-path:url(#SVGID_6_);fill:#F3F3F3;" d="M115.1,12.6h1.1v7.5c0,0.4,0,0.7,0.1,1.1h-1.1l0-0.9v-0.1h0
		c-0.4,0.8-1.2,1.1-2,1.1c-1.8,0-2.5-1.6-2.5-3.1c0-1.6,0.8-3.1,2.7-3.1c0.8,0,1.5,0.3,1.8,1h0V12.6z M113.4,20.6
		c1.4,0,1.7-1.3,1.7-2.4c0-1.1-0.4-2.3-1.7-2.3c-1.3,0-1.7,1.2-1.7,2.3C111.8,19.3,112.2,20.6,113.4,20.6"/>
	<circle style="clip-path:url(#SVGID_6_);fill:none;stroke:#F3F3F3;stroke-width:0.355;" cx="120.6" cy="13.9" r="2.2"/>
	<path style="clip-path:url(#SVGID_6_);fill:#F3F3F3;" d="M120.1,14v1.2h-0.4v-2.6h0.9c0.4,0,0.9,0.1,0.9,0.6c0,0.3-0.2,0.6-0.5,0.6
		v0c0.3,0.1,0.4,0.2,0.4,0.5c0,0.3,0.1,0.5,0.2,0.8h-0.4c0-0.2-0.1-0.3-0.1-0.5c0-0.2,0-0.4-0.1-0.6c-0.1-0.1-0.2-0.1-0.4-0.1H120.1
		z M120.1,13.7h0.6c0.4,0,0.5-0.2,0.5-0.4c0-0.2-0.1-0.4-0.5-0.4h-0.6V13.7z"/>
	<path style="clip-path:url(#SVGID_6_);fill:#F3F3F3;" d="M30.4,24.2L29,21.8c-1.3-0.2-2.7-0.4-4.2-0.4c-2,0-3.9,0.2-5.7,0.7
		c-1.8,0.5-3.7,0.7-5.7,0.7c-0.7,0-1.4,0-2.1-0.1l7.8-13.4l4.7,8.1c-1.6,0.1-3.2,0.3-4.7,0.7c-1.1,0.3-2.2,0.5-3.4,0.6l-1.4,2.4
		c1.6-0.1,3.3-0.3,4.8-0.7c1.8-0.5,3.7-0.7,5.7-0.7c1,0,2.1,0.1,3.1,0.2l-1.5-2.6l-3.8-6.7l-3.5-6L7.7,24.5c1.8,0.5,3.7,0.7,5.7,0.7
		c2,0,3.9-0.2,5.7-0.7c1.8-0.5,3.7-0.7,5.7-0.7c2,0,3.9,0.3,5.7,0.7L30.4,24.2z"/>
</g>
</svg>
