<?xml version="1.0" encoding="utf-8"?>
<!-- Generator: Adobe Illustrator 21.1.0, SVG Export Plug-In . SVG Version: 6.00 Build 0)  -->
<svg version="1.1" id="Layer_3" xmlns="http://www.w3.org/2000/svg" xmlns:xlink="http://www.w3.org/1999/xlink" x="0px" y="0px"
	 viewBox="0 0 80 80" style="enable-background:new 0 0 80 80;" xml:space="preserve">
<style type="text/css">
	.st0{display:none;fill:#6D6D6D;}
	.st1{display:none;fill:#434343;}
	.st2{fill:#F3F3F3;}
	.st3{clip-path:url(#SVGID_2_);}
	.st4{fill:#FFFFFF;}
	.st5{fill:none;}
	.st6{clip-path:url(#SVGID_4_);}
	.st7{clip-path:url(#SVGID_6_);fill:#1D1D1B;}
	.st8{clip-path:url(#SVGID_6_);fill:none;stroke:#1D1D1B;stroke-width:0.355;}
	.st9{clip-path:url(#SVGID_6_);fill:#0072BB;}
	.st10{clip-path:url(#SVGID_8_);}
	.st11{clip-path:url(#SVGID_10_);fill:#1D1D1B;}
	.st12{clip-path:url(#SVGID_10_);fill:none;stroke:#1D1D1B;stroke-width:0.355;}
	.st13{clip-path:url(#SVGID_10_);fill:#0072BB;}
	.st14{clip-path:url(#SVGID_12_);fill:#F3F3F3;}
	.st15{clip-path:url(#SVGID_12_);fill:none;stroke:#F3F3F3;stroke-width:0.355;}
</style>
<rect x="2.7" y="1.5" class="st1" width="75.6" height="76.6"/>
<g>
	<defs>
		<rect id="SVGID_1_" x="24.2" y="43.1" width="31.3" height="6.1"/>
	</defs>
	<clipPath id="SVGID_2_">
		<use xlink:href="#SVGID_1_"  style="overflow:visible;"/>
	</clipPath>
</g>
<path class="st5" d="M40,61.8c12.6,0,22.7-10.2,22.8-22.7c0-12.6-10.2-22.8-22.8-22.8c-12.6,0-22.7,10.2-22.8,22.7
	C17.2,51.6,27.4,61.8,40,61.8z M39.6,17.2c12.2-0.2,22.1,9.4,22.3,21.5c0.2,12.2-9.5,22-21.4,22.2c-12.1,0.2-22-9.4-22.2-21.4
	C18,27.3,27.6,17.4,39.6,17.2z"/>
<path class="st5" d="M26,61.4c-0.6-0.4-1.3-0.3-1.9,0.3c-0.7,0.6-1.1,1.3-1.3,2.2c-0.2,1,0.6,1.8,1.5,1.8c0.2-0.1,0.5-0.1,0.7-0.2
	c0.9-0.5,1.4-1.3,1.6-2.3C26.8,62.4,26.6,61.7,26,61.4z"/>
<path class="st5" d="M31.6,38.8c-0.2,0-0.4-0.1-0.6-0.1c-0.6-0.1-0.8-0.3-0.8-0.9c0-2.3,0-4.7,0-7c0-0.5,0.2-0.7,0.7-0.8
	c0.2,0,0.4-0.1,0.7-0.1c0-0.4,0-0.8,0-1.2c-2,0-3.9,0-5.9,0c0,0.4,0,0.8,0,1.2c0.2,0,0.4,0.1,0.6,0.1c0.6,0.1,0.7,0.3,0.7,0.8
	c0,2.4,0,4.7,0,7.1c0,0.5-0.2,0.7-0.7,0.8c-0.2,0-0.4,0.1-0.6,0.1c0,0.4,0,0.8,0,1.2c2,0,3.9,0,5.9,0C31.6,39.6,31.6,39.2,31.6,38.8
	z"/>
<path class="st5" d="M30.6,11.1c0.1-0.3-0.1-0.8-0.5-1c-0.6-0.3-1.1,0-1.7,0.3c0.2,0.6,0.5,1.2,0.7,1.8C29.8,12,30.5,11.9,30.6,11.1
	z"/>
<path class="st5" d="M39.4,38.5c-0.7,0.1-1.5,0.1-2.2,0.1c-1.6-0.2-2.7-1-2.9-2.5c0-0.1-0.2-0.2-0.2-0.2c-0.3,0-0.6,0.1-0.9,0.1
	c-0.3,0-0.3,0.1-0.3,0.4c0,1.2,0,2.3,0,3.5c0,0.1,0,0.2,0,0.3c0.4,0,0.7,0,1,0c0.1,0,0.2,0,0.2,0c0.1,0,0.1,0,0.2-0.1
	c0.6-0.6,0.6-0.6,1.3-0.3c1.5,0.7,3,0.8,4.6,0.4c1.8-0.4,2.8-1.7,2.8-3.4c0-1.7-0.8-2.9-2.6-3.5c-0.8-0.2-1.7-0.4-2.5-0.6
	c-0.7-0.2-1.4-0.3-2.1-0.6c-0.6-0.3-0.8-0.9-0.4-1.4c0.2-0.2,0.5-0.5,0.7-0.5c0.7-0.1,1.4-0.1,2.1-0.1c1.4,0.1,2.3,0.9,2.6,2.3
	c0,0.1,0.1,0.2,0.2,0.2c0.4,0,0.8-0.1,1.2-0.1c0-1.3,0-2.6,0-3.9c-0.3,0-0.7,0-1,0c-0.1,0-0.3,0.1-0.4,0.2c-0.3,0.4-0.6,0.5-1.1,0.3
	c-1.2-0.6-2.4-0.8-3.7-0.7c-2,0.1-3.3,1.3-3.4,3.2c-0.1,1.8,0.6,2.9,2.3,3.5c0.7,0.3,1.5,0.4,2.3,0.6c0.8,0.2,1.6,0.3,2.4,0.6
	c0.8,0.3,0.9,1.4,0.3,1.9C39.9,38.3,39.6,38.5,39.4,38.5z"/>
<path class="st5" d="M41.4,65.4c-0.1,0-0.2,0-0.2,0c-0.4,0-0.6,0.1-0.5,0.5c0.1,0.4,0.1,0.7,0.1,1.1c0,0.6,0,0.6,0.6,0.6
	c0.1,0,0.2,0,0.2,0c0.7-0.2,1.1-0.6,1-1.3C42.5,65.7,42.1,65.4,41.4,65.4z"/>
<path class="st5" d="M60.3,21c1-0.2,1.9-1.2,2.1-2.1c0.1-0.7-0.5-1.7-1.3-2.2c-1.1,1-2.2,2.1-3.2,3.1C58.6,20.7,59.5,21.2,60.3,21z"
	/>
<path class="st5" d="M47.4,40c1.3,0.4,2.7,0.4,4,0.2c1.8-0.3,3.2-1.3,3.9-3c0.4-0.9,0.5-1.9,0.5-2.9c-0.1-0.6-0.1-1.3-0.2-1.9
	c-0.4-2.1-1.7-3.4-3.7-3.9c-1.1-0.2-2.2-0.3-3.4-0.1c-2.1,0.3-3.6,1.4-4.2,3.5c-0.4,1.5-0.5,3.1-0.1,4.7
	C44.8,38.3,45.7,39.4,47.4,40z M47.5,31.9c0.4-1.7,2.2-2.5,3.8-1.7c0.5,0.2,0.8,0.6,1,1.1c0.1,0.3,0.2,0.6,0.3,1
	c0.1,0.7,0.1,1.4,0.2,2.1c-0.1,0.7-0.1,1.4-0.3,2.1c-0.3,1.5-1.3,2.1-2.9,2c-1,0-1.7-0.6-1.9-1.6C47.2,35.3,47.1,33.6,47.5,31.9z"/>
<path class="st5" d="M40.2,4.5C21,4.4,5.5,19.8,5.5,38.9C5.4,58,20.8,73.5,40,73.5c19.1,0,34.5-15.4,34.6-34.5
	C74.5,20,59.1,4.5,40.2,4.5z M63.8,18.5c0.1,0.4,0.1,0.9,0,1.4c-0.6,2.2-3.3,3.3-5.2,2.1c-1-0.6-1.8-1.5-2.5-2.5
	c1.6-1.6,3.2-3.1,4.9-4.7C62.1,15.9,63.4,16.8,63.8,18.5z M58.5,12.9c-0.2,0.3-0.4,0.7-0.6,1.1c-0.8-0.5-1.5-0.9-2.3-1.4
	c-0.3,0.4-0.5,0.8-0.8,1.3c0.7,0.5,1.4,0.9,2.2,1.3c-0.2,0.4-0.4,0.7-0.6,1c-0.7-0.4-1.4-0.9-2.2-1.3c-0.3,0.5-0.6,0.9-0.9,1.4
	c0.8,0.5,1.6,1,2.4,1.5c-0.2,0.4-0.4,0.7-0.6,1c-1.2-0.8-2.5-1.5-3.7-2.3c1.2-2,2.4-3.9,3.6-5.9C56.1,11.5,57.3,12.2,58.5,12.9z
	 M52.6,9.7c-0.8,2.1-1.7,4.2-2.5,6.4c-0.5-0.2-0.9-0.4-1.4-0.6c0.9-2.1,1.7-4.2,2.5-6.4C51.7,9.3,52.1,9.5,52.6,9.7z M44.8,7.4
	c1.4,0.3,2.7,0.6,4.1,0.9c-0.1,0.4-0.2,0.8-0.3,1.2C47.7,9.3,46.9,9.2,46,9c-0.1,0.5-0.2,1-0.3,1.6c0.8,0.2,1.6,0.4,2.4,0.5
	c-0.1,0.4-0.2,0.8-0.2,1.2c-0.8-0.2-1.6-0.3-2.4-0.5c-0.2,0.9-0.4,1.8-0.6,2.7c-0.5-0.1-1-0.2-1.5-0.3C43.8,11.9,44.3,9.7,44.8,7.4z
	 M40.8,7.1c0.5,0,1,0.1,1.5,0.1c-0.1,2.3-0.2,4.5-0.3,6.8c-0.5,0-1,0-1.5-0.1C40.5,11.7,40.6,9.4,40.8,7.1z M63.5,39.1
	c0,13-10.6,23.5-23.5,23.5C27,62.5,16.5,52,16.5,39c0-13,10.6-23.5,23.5-23.4C53,15.6,63.5,26.2,63.5,39.1z M38.7,7.1
	c0.1,0.4,0.1,0.8,0.1,1.2c-0.6,0.1-1.2,0.2-1.9,0.3c0.2,1.8,0.4,3.7,0.7,5.5c-0.5,0.1-1,0.1-1.5,0.2c-0.2-1.9-0.5-3.7-0.7-5.5
	c-0.6,0.1-1.2,0.1-1.8,0.2c-0.1-0.4-0.1-0.8-0.2-1.2C35.3,7.5,37,7.3,38.7,7.1z M27.1,9.8c0.9-0.3,1.8-0.7,2.7-1
	c0.8-0.2,1.6,0.1,2,0.8c0.4,0.7,0.4,1.5-0.2,2.2c0,0-0.1,0.1-0.2,0.2c0.6,0.1,1,0.5,1.3,0.9c0.4,0.5,0.7,1,1.2,1.6
	c-0.4,0.2-0.9,0.4-1.3,0.5c-0.1,0-0.2-0.1-0.3-0.2c-0.3-0.4-0.6-0.8-0.9-1.2c-0.5-0.8-1-0.9-1.9-0.4c0.3,0.8,0.6,1.6,0.9,2.5
	c-0.5,0.2-0.9,0.3-1.4,0.5C29,16.2,29,16.1,28.9,16c-0.7-1.9-1.4-3.7-2.1-5.6C26.7,10.1,26.8,9.9,27.1,9.8z M24.1,11.3
	c0.2,0.3,0.4,0.7,0.7,1c-0.7,0.5-1.5,1-2.2,1.5c0.3,0.4,0.5,0.8,0.8,1.2c0.7-0.5,1.4-0.9,2.1-1.4c0.2,0.3,0.4,0.7,0.7,1
	c-0.7,0.5-1.4,0.9-2.1,1.4c0.3,0.5,0.6,0.9,0.9,1.4c0.8-0.5,1.6-1,2.4-1.6c0.2,0.3,0.4,0.7,0.7,1c-1.2,0.8-2.4,1.6-3.6,2.4
	c-1.3-1.9-2.5-3.8-3.8-5.7C21.8,12.9,22.9,12.1,24.1,11.3z M16.5,17.8c0.4-1.1,1.2-1.9,2.2-2.4c0.2,0.4,0.4,0.7,0.7,1
	c-1.1,0.7-2.1,1.5-1.6,3c0.3,1,1.1,1.6,2.1,1.7c1.3,0.1,1.9-0.8,2.5-1.8c0.3,0.2,0.7,0.4,1,0.6c-0.8,1.4-1.7,2.5-3.3,2.8
	c-0.6,0.1-1.2-0.1-1.7-0.4c-1.2-0.7-2-1.7-2.1-3.2C16.2,18.7,16.3,18.2,16.5,17.8z M19.7,57.2c-1,0.2-1.8,0.9-2,1.9
	c-0.3,1.4,0.6,2.1,1.6,2.8c-0.1,0.2-0.3,0.4-0.4,0.6c-0.3,0.4-0.3,0.5-0.7,0.1c-0.5-0.5-1.1-0.9-1.5-1.5c-1-1.5-0.7-3.2,0.7-4.5
	c1.7-1.4,3.8-1.2,5.3,0.6c0.3,0.4,0.5,0.8,0.8,1.2c-0.4,0.2-0.8,0.4-1.1,0.6C21.7,58,21,57,19.7,57.2z M27.9,64.4
	c-0.5,1.1-1.2,2-2.4,2.4c-1.2,0.4-2.4,0-3.3-0.9c-0.9-0.8-1.2-1.9-0.8-3.1c0.4-1.5,1.3-2.5,2.8-2.9c0.2-0.1,0.4-0.1,0.6-0.1
	C27.3,59.9,28.9,62.2,27.9,64.4z M36.1,71.1C36.1,71.1,36.1,71.1,36.1,71.1c-0.5,0-0.9-0.1-1.4-0.3c0.4-1.8,0.7-3.5,1.1-5.3
	c0,0,0,0-0.1,0c-0.1,0.1-0.1,0.2-0.2,0.3c-0.8,1.4-1.6,2.8-2.5,4.2c-0.1,0.2-0.2,0.2-0.4,0.2c-0.3-0.1-0.6-0.1-0.9-0.2
	c0-1.8,0-3.6,0-5.4c0,0-0.1,0-0.1,0c-0.5,1.7-1,3.4-1.5,5.1c-0.4-0.1-0.9-0.2-1.4-0.3c0.7-2.2,1.4-4.4,2.1-6.6
	c0.6,0.1,1.2,0.3,1.8,0.4c0.3,0.1,0.2,0.2,0.2,0.4c0,1.4,0.1,2.8,0.1,4.2c0,0.1,0,0.2,0,0.4c0.1-0.2,0.2-0.3,0.3-0.4
	c0.7-1.2,1.4-2.4,2.1-3.6c0.1-0.2,0.2-0.3,0.5-0.2c0.5,0.1,0.9,0.2,1.4,0.4c0.1,0,0.2,0.2,0.2,0.3C36.9,66.8,36.5,68.9,36.1,71.1z
	 M43.2,68.2c-0.5,0.3-1.1,0.4-1.6,0.5c-0.2,0.1-0.5,0-0.7,0c0,0.8,0.1,1.6,0.1,2.5c-0.5,0-1,0.1-1.5,0.1c-0.1-2.3-0.2-4.5-0.4-6.8
	c1.2-0.2,2.4-0.4,3.5-0.1c0.9,0.2,1.4,0.8,1.5,1.7C44.2,67,43.9,67.8,43.2,68.2z M50.6,69.5c-0.1,0-0.3-0.1-0.3-0.2
	c-0.3-0.4-0.5-0.7-0.7-1.1c-0.1-0.2-0.2-0.2-0.4-0.2c-0.5,0.1-0.9,0.3-1.4,0.4c-0.2,0.1-0.3,0.2-0.3,0.4c0,0.4,0,0.8,0,1.3
	c0,0.2-0.1,0.3-0.3,0.3c-0.4,0.1-0.8,0.2-1.2,0.3c0-0.1,0-0.2,0-0.2c0-2.2,0.1-4.4,0.1-6.6c0-0.3,0.1-0.4,0.4-0.5
	c0.4-0.1,0.9-0.3,1.3-0.4c0.1,0,0.3,0,0.4,0.1c1.3,1.9,2.5,3.8,3.7,5.7c0,0,0,0.1,0,0.1C51.4,69.2,51,69.4,50.6,69.5z M58.3,65.6
	c-0.1,0-0.2,0-0.3-0.1c-1.5-0.9-3-1.7-4.5-2.6c-0.1,0-0.1-0.1-0.3-0.1c0.9,1.5,1.8,2.9,2.7,4.3c-0.4,0.3-0.8,0.5-1.2,0.7
	c-1.2-1.9-2.4-3.9-3.6-5.8c0.5-0.3,0.9-0.6,1.4-0.9c0.1-0.1,0.3,0,0.4,0.1c1.4,0.8,2.9,1.7,4.3,2.5c0,0,0.1,0,0.1,0.1
	c-0.9-1.4-1.8-2.7-2.6-4c0.4-0.3,0.8-0.5,1.2-0.8c1.2,1.9,2.4,3.9,3.6,5.8C59.1,65.1,58.7,65.3,58.3,65.6z M62.9,61.7
	c-0.4-0.4-0.8-0.7-1.2-1.1c-0.6-0.6-1.2-0.9-2-1.1c-1.1-0.2-2.1-0.6-3.3-0.9c0.4-0.4,0.7-0.8,1.1-1.1c0.1-0.1,0.3-0.1,0.4,0
	c0.8,0.3,1.6,0.6,2.3,0.9c0.1,0,0.2,0.1,0.4,0.2c-0.2-0.4-0.3-0.7-0.5-1.1c-0.2-0.5-0.5-1.1-0.7-1.6c-0.1-0.2-0.1-0.3,0.1-0.5
	c0.3-0.3,0.6-0.6,1-1c0.1,0.3,0.2,0.5,0.2,0.7c0.4,1.1,0.7,2.3,1.1,3.4c0.1,0.2,0.2,0.3,0.3,0.4c0.6,0.6,1.2,1.2,1.9,1.8
	C63.6,60.9,63.3,61.3,62.9,61.7z"/>
<path class="st5" d="M47.3,67.4c0.5-0.2,1-0.3,1.5-0.4c-0.5-0.8-1-1.6-1.5-2.4C47.3,65.5,47.3,66.4,47.3,67.4z"/>
<path class="st2" d="M40.1,2.8C20.1,2.8,3.8,19,3.8,39c0,20,16.2,36.2,36.1,36.2c20,0,36.3-16.2,36.3-36.2
	C76.2,19.1,60,2.8,40.1,2.8z M40,73.5C20.8,73.5,5.4,58,5.5,38.9c0-19,15.6-34.4,34.7-34.4c19,0,34.4,15.5,34.3,34.6
	C74.5,58.1,59.1,73.5,40,73.5z"/>
<path class="st2" d="M16.5,39C16.5,52,27,62.5,40,62.6c12.9,0,23.5-10.5,23.5-23.5C63.5,26.2,53,15.6,40,15.6
	C27.1,15.5,16.6,26,16.5,39z M40,16.2c12.6,0,22.8,10.2,22.8,22.8c0,12.6-10.2,22.7-22.8,22.7c-12.6,0-22.8-10.2-22.8-22.8
	C17.2,26.4,27.4,16.2,40,16.2z"/>
<path class="st2" d="M37.1,64.4c-0.5-0.1-0.9-0.2-1.4-0.4c-0.2-0.1-0.4,0-0.5,0.2c-0.7,1.2-1.4,2.4-2.1,3.6
	c-0.1,0.1-0.1,0.2-0.3,0.4c0-0.2,0-0.3,0-0.4c0-1.4-0.1-2.8-0.1-4.2c0-0.2,0-0.4-0.2-0.4c-0.6-0.1-1.2-0.3-1.8-0.4
	c-0.7,2.2-1.4,4.4-2.1,6.6c0.5,0.1,0.9,0.2,1.4,0.3c0.5-1.7,1-3.4,1.5-5.1c0,0,0.1,0,0.1,0c0,1.8,0,3.6,0,5.4
	c0.3,0.1,0.6,0.1,0.9,0.2c0.2,0.1,0.3,0,0.4-0.2c0.8-1.4,1.6-2.8,2.5-4.2c0.1-0.1,0.1-0.2,0.2-0.3c0,0,0,0,0.1,0
	c-0.4,1.7-0.7,3.5-1.1,5.3c0.5,0.1,1,0.2,1.4,0.3c0,0,0-0.1,0-0.1c0.4-2.1,0.8-4.3,1.2-6.4C37.3,64.6,37.2,64.4,37.1,64.4z"/>
<path class="st2" d="M54.7,59.7c0.9,1.4,1.8,2.7,2.6,4c-0.1,0-0.1,0-0.1-0.1c-1.4-0.8-2.9-1.7-4.3-2.5c-0.1-0.1-0.3-0.1-0.4-0.1
	c-0.5,0.3-0.9,0.6-1.4,0.9c1.2,2,2.4,3.9,3.6,5.8c0.4-0.3,0.8-0.5,1.2-0.7c-0.9-1.4-1.8-2.8-2.7-4.3c0.2,0.1,0.2,0.1,0.3,0.1
	c1.5,0.9,3,1.7,4.5,2.6c0.1,0.1,0.3,0.1,0.3,0.1c0.4-0.2,0.8-0.5,1.3-0.8c-1.2-2-2.4-3.9-3.6-5.8C55.5,59.2,55.1,59.5,54.7,59.7z"/>
<path class="st2" d="M58.6,22c2,1.2,4.6,0.1,5.2-2.1c0.1-0.4,0.1-0.9,0-1.4c-0.4-1.7-1.7-2.6-2.9-3.7c-1.6,1.6-3.2,3.1-4.9,4.7
	C56.8,20.4,57.5,21.3,58.6,22z M61.1,16.7c0.8,0.5,1.4,1.5,1.3,2.2c-0.1,0.9-1.1,1.9-2.1,2.1c-0.8,0.2-1.8-0.3-2.4-1.2
	C59,18.8,60.1,17.7,61.1,16.7z"/>
<path class="st2" d="M24.9,59.9c-0.2,0-0.4,0-0.6,0.1c-1.5,0.4-2.4,1.5-2.8,2.9c-0.3,1.2-0.1,2.2,0.8,3.1c0.9,0.9,2,1.2,3.3,0.9
	c1.2-0.4,1.9-1.3,2.4-2.4C28.9,62.2,27.3,59.9,24.9,59.9z M26.7,63.2c-0.2,1-0.7,1.8-1.6,2.3c-0.2,0.1-0.5,0.2-0.7,0.2
	c-0.9,0-1.7-0.9-1.5-1.8c0.1-0.9,0.6-1.6,1.3-2.2c0.6-0.5,1.3-0.6,1.9-0.3C26.6,61.7,26.8,62.4,26.7,63.2z"/>
<path class="st2" d="M28.9,16c0,0.1,0.1,0.2,0.2,0.4c0.5-0.2,0.9-0.3,1.4-0.5c-0.3-0.9-0.6-1.7-0.9-2.5c0.8-0.5,1.3-0.4,1.9,0.4
	c0.3,0.4,0.6,0.8,0.9,1.2c0.1,0.1,0.2,0.2,0.3,0.2c0.4-0.1,0.9-0.3,1.3-0.5c-0.4-0.6-0.8-1.1-1.2-1.6c-0.3-0.4-0.7-0.8-1.3-0.9
	c0.1-0.1,0.1-0.2,0.2-0.2c0.6-0.7,0.6-1.5,0.2-2.2c-0.4-0.7-1.1-1-2-0.8c-0.9,0.3-1.8,0.6-2.7,1c-0.3,0.1-0.4,0.3-0.2,0.6
	C27.5,12.3,28.2,14.1,28.9,16z M30.2,10.2c0.3,0.2,0.5,0.6,0.5,1c-0.2,0.8-0.8,0.9-1.5,1.2c-0.2-0.6-0.5-1.2-0.7-1.8
	C29,10.2,29.5,9.8,30.2,10.2z"/>
<path class="st2" d="M48.1,63.3c-0.1-0.1-0.3-0.1-0.4-0.1c-0.4,0.1-0.9,0.3-1.3,0.4C46.1,63.6,46,63.7,46,64c0,2.2-0.1,4.4-0.1,6.6
	c0,0.1,0,0.1,0,0.2c0.4-0.1,0.8-0.2,1.2-0.3c0.2,0,0.3-0.2,0.3-0.3c0-0.4,0-0.8,0-1.3c0-0.2,0.1-0.3,0.3-0.4
	c0.5-0.1,0.9-0.3,1.4-0.4c0.2-0.1,0.3,0,0.4,0.2c0.2,0.4,0.5,0.7,0.7,1.1c0.1,0.1,0.2,0.2,0.3,0.2c0.4-0.1,0.9-0.2,1.3-0.4
	c0-0.1,0-0.1,0-0.1C50.6,67.1,49.4,65.2,48.1,63.3z M47.3,67.4c0-1,0-1.9,0-2.9c0.5,0.8,1,1.6,1.5,2.4
	C48.3,67.1,47.9,67.2,47.3,67.4z"/>
<path class="st2" d="M28.1,17c-0.2-0.4-0.5-0.7-0.7-1c-0.8,0.5-1.6,1-2.4,1.6c-0.3-0.5-0.6-0.9-0.9-1.4c0.7-0.5,1.4-1,2.1-1.4
	c-0.2-0.4-0.5-0.7-0.7-1c-0.7,0.5-1.4,0.9-2.1,1.4c-0.3-0.4-0.6-0.8-0.8-1.2c0.8-0.5,1.5-1,2.2-1.5c-0.2-0.4-0.5-0.7-0.7-1
	c-1.2,0.8-2.3,1.6-3.5,2.4c1.3,1.9,2.5,3.8,3.8,5.7C25.7,18.6,26.9,17.8,28.1,17z"/>
<path class="st2" d="M55.1,18.9c0.2-0.4,0.4-0.7,0.6-1c-0.8-0.5-1.6-1-2.4-1.5c0.3-0.5,0.6-1,0.9-1.4c0.7,0.5,1.5,0.9,2.2,1.3
	c0.2-0.4,0.4-0.7,0.6-1c-0.7-0.4-1.4-0.9-2.2-1.3c0.3-0.4,0.5-0.8,0.8-1.3c0.8,0.5,1.5,0.9,2.3,1.4c0.2-0.4,0.4-0.7,0.6-1.1
	c-1.2-0.7-2.4-1.5-3.6-2.2c-1.2,2-2.4,3.9-3.6,5.9C52.6,17.4,53.8,18.1,55.1,18.9z"/>
<path class="st2" d="M42.6,64.4c-1.2-0.3-2.3-0.1-3.5,0.1c0.1,2.3,0.2,4.5,0.4,6.8c0.5,0,1-0.1,1.5-0.1c0-0.8-0.1-1.6-0.1-2.5
	c0.3,0,0.5,0,0.7,0c0.6-0.1,1.1-0.2,1.6-0.5c0.8-0.4,1-1.2,0.9-2.1C44,65.3,43.5,64.6,42.6,64.4z M41.6,67.6c-0.1,0-0.2,0-0.2,0
	c-0.6,0-0.6,0-0.6-0.6c0-0.4,0-0.7-0.1-1.1c-0.1-0.4,0.1-0.5,0.5-0.5c0.1,0,0.2,0,0.2,0c0.7,0,1.2,0.3,1.2,0.9
	C42.7,67,42.3,67.4,41.6,67.6z"/>
<path class="st2" d="M22.3,59.1c0.4-0.2,0.7-0.4,1.1-0.6c-0.3-0.4-0.5-0.9-0.8-1.2c-1.5-1.7-3.6-2-5.3-0.6c-1.4,1.2-1.7,3-0.7,4.5
	c0.4,0.6,0.9,1,1.5,1.5c0.4,0.3,0.4,0.3,0.7-0.1c0.1-0.2,0.3-0.4,0.4-0.6c-1-0.7-1.9-1.4-1.6-2.8c0.2-1,1-1.7,2-1.9
	C21,57,21.7,58,22.3,59.1z"/>
<path class="st2" d="M18.4,22.3c0.5,0.3,1.1,0.4,1.7,0.4c1.6-0.3,2.6-1.4,3.3-2.8c-0.4-0.2-0.7-0.4-1-0.6c-0.6,1-1.2,1.9-2.5,1.8
	c-1-0.1-1.8-0.7-2.1-1.7c-0.5-1.5,0.5-2.3,1.6-3c-0.2-0.3-0.4-0.7-0.7-1c-1,0.6-1.8,1.3-2.2,2.4c-0.2,0.4-0.3,0.9-0.2,1.3
	C16.3,20.6,17.1,21.6,18.4,22.3z"/>
<path class="st2" d="M45.4,11.8c0.8,0.2,1.6,0.3,2.4,0.5c0.1-0.4,0.2-0.8,0.2-1.2c-0.8-0.2-1.6-0.4-2.4-0.5c0.1-0.5,0.2-1,0.3-1.6
	c0.9,0.2,1.7,0.4,2.6,0.5c0.1-0.4,0.2-0.8,0.3-1.2c-1.4-0.3-2.7-0.6-4.1-0.9c-0.5,2.3-1,4.5-1.4,6.7c0.5,0.1,1,0.2,1.5,0.3
	C45,13.6,45.2,12.7,45.4,11.8z"/>
<path class="st2" d="M61.8,58.3c-0.4-1.1-0.7-2.3-1.1-3.4c-0.1-0.2-0.1-0.4-0.2-0.7c-0.3,0.4-0.6,0.7-1,1c-0.2,0.2-0.2,0.3-0.1,0.5
	c0.3,0.5,0.5,1.1,0.7,1.6c0.1,0.3,0.3,0.7,0.5,1.1c-0.2-0.1-0.3-0.1-0.4-0.2c-0.8-0.3-1.6-0.6-2.3-0.9c-0.1,0-0.3,0-0.4,0
	c-0.4,0.4-0.7,0.7-1.1,1.1c1.1,0.3,2.2,0.6,3.3,0.9c0.8,0.2,1.5,0.5,2,1.1c0.4,0.4,0.8,0.7,1.2,1.1c0.4-0.4,0.7-0.7,1-1.1
	c-0.6-0.6-1.3-1.2-1.9-1.8C62,58.7,61.9,58.5,61.8,58.3z"/>
<path class="st2" d="M35.5,8.7c0.2,1.9,0.5,3.7,0.7,5.5c0.5-0.1,1-0.1,1.5-0.2c-0.2-1.9-0.5-3.7-0.7-5.5c0.6-0.1,1.2-0.2,1.9-0.3
	c-0.1-0.4-0.1-0.8-0.1-1.2c-1.8,0.2-3.5,0.4-5.2,0.6c0.1,0.4,0.1,0.8,0.2,1.2C34.3,8.9,34.9,8.8,35.5,8.7z"/>
<path class="st2" d="M50,16.1c0.9-2.1,1.7-4.3,2.5-6.4c-0.5-0.2-0.9-0.4-1.4-0.6c-0.9,2.1-1.7,4.2-2.5,6.4
	C49.1,15.7,49.5,15.9,50,16.1z"/>
<path class="st2" d="M42.3,7.2c-0.5,0-1-0.1-1.5-0.1c-0.1,2.3-0.2,4.6-0.3,6.9c0.5,0,1,0,1.5,0.1C42.1,11.7,42.2,9.5,42.3,7.2z"/>
<path class="st2" d="M49.6,38.5c1.6,0.1,2.5-0.4,2.9-2c0.2-0.7,0.2-1.4,0.3-2.1c-0.1-0.8-0.1-1.5-0.2-2.1c0-0.3-0.2-0.6-0.3-1
	c-0.2-0.5-0.5-0.9-1-1.1c-1.6-0.7-3.4,0.1-3.8,1.7c-0.4,1.7-0.3,3.3,0.1,5C47.9,37.9,48.6,38.5,49.6,38.5z"/>
<g>
	<defs>
		<rect id="SVGID_3_" x="-60.7" y="-383" width="595.3" height="841.9"/>
	</defs>
	<clipPath id="SVGID_4_">
		<use xlink:href="#SVGID_3_"  style="overflow:visible;"/>
	</clipPath>
</g>
<g>
	<defs>
		<rect id="SVGID_7_" x="-60.7" y="-383" width="595.3" height="841.9"/>
	</defs>
	<clipPath id="SVGID_6_">
		<use xlink:href="#SVGID_7_"  style="overflow:visible;"/>
	</clipPath>
</g>
<g>
	<path class="st2" d="M32.8,46.5l-0.7,1.1l0,0h1.1v-1.1c0-0.2,0-0.4,0-0.7h0C33,46.1,32.9,46.3,32.8,46.5z"/>
	<path class="st2" d="M47.1,45.7c-0.4,0-0.7,0.5-0.7,1.5c0,0.9,0.3,1.4,0.7,1.4c0.4,0,0.7-0.5,0.7-1.5
		C47.8,46.3,47.6,45.7,47.1,45.7z"/>
	<path class="st2" d="M36.1,46.8c0.3-0.1,0.5-0.3,0.5-0.6c0-0.3-0.2-0.6-0.6-0.6c-0.4,0-0.6,0.2-0.6,0.5
		C35.5,46.5,35.8,46.7,36.1,46.8z"/>
	<path class="st2" d="M36,47.4c-0.4,0.1-0.6,0.4-0.6,0.7c0,0.3,0.2,0.6,0.7,0.6c0.4,0,0.6-0.2,0.6-0.6C36.7,47.7,36.4,47.5,36,47.4z
		"/>
	<path class="st2" d="M39.6,17.2c-12,0.2-21.6,10.1-21.4,22.2c0.3,12,10.1,21.6,22.2,21.4c12-0.2,21.6-10,21.4-22.2
		C61.7,26.6,51.8,17,39.6,17.2z M25.7,38.8c0.2,0,0.4-0.1,0.6-0.1c0.5-0.1,0.7-0.3,0.7-0.8c0-2.4,0-4.7,0-7.1c0-0.5-0.2-0.7-0.7-0.8
		c-0.2,0-0.4-0.1-0.6-0.1c0-0.4,0-0.8,0-1.2c2,0,3.9,0,5.9,0c0,0.4,0,0.8,0,1.2c-0.2,0-0.4,0.1-0.7,0.1c-0.5,0.1-0.7,0.3-0.7,0.8
		c0,2.3,0,4.7,0,7c0,0.6,0.2,0.8,0.8,0.9c0.2,0,0.4,0.1,0.6,0.1c0,0.4,0,0.8,0,1.2c-2,0-3.9,0-5.9,0C25.7,39.6,25.7,39.2,25.7,38.8z
		 M26.9,49.1h-0.7v-3.2h0l-0.7,0.4l-0.1-0.6l0.9-0.5h0.6V49.1z M29.4,49.2c-0.5,0-0.9-0.1-1.1-0.3l0.2-0.6c0.1,0.1,0.5,0.2,0.9,0.2
		c0.6,0,0.8-0.3,0.8-0.6c0-0.5-0.4-0.7-0.9-0.7h-0.3v-0.5h0.3c0.3,0,0.8-0.2,0.8-0.5c0-0.3-0.2-0.5-0.6-0.5c-0.3,0-0.6,0.1-0.8,0.2
		l-0.2-0.5c0.2-0.2,0.7-0.3,1.1-0.3c0.8,0,1.2,0.4,1.2,1c0,0.4-0.2,0.7-0.7,0.9v0c0.5,0.1,0.9,0.4,0.9,1
		C30.9,48.7,30.3,49.2,29.4,49.2z M34.3,48.1h-0.5v1h-0.7v-1h-1.8v-0.5l1.6-2.4h0.9v2.4h0.5V48.1z M34.3,40c0,0.1-0.1,0.1-0.2,0.1
		c-0.1,0-0.2,0-0.2,0c-0.3,0-0.7,0-1,0c0-0.1,0-0.2,0-0.3c0-1.2,0-2.3,0-3.5c0-0.3,0.1-0.4,0.3-0.4c0.3,0,0.6-0.1,0.9-0.1
		c0.1,0,0.2,0.1,0.2,0.2c0.2,1.5,1.4,2.3,2.9,2.5c0.7,0.1,1.5,0,2.2-0.1c0.3,0,0.5-0.2,0.7-0.4c0.7-0.6,0.5-1.7-0.3-1.9
		c-0.8-0.3-1.6-0.4-2.4-0.6c-0.8-0.2-1.5-0.3-2.3-0.6c-1.7-0.6-2.4-1.7-2.3-3.5c0.1-1.9,1.4-3.1,3.4-3.2c1.3-0.1,2.6,0.1,3.7,0.7
		c0.5,0.2,0.7,0.1,1.1-0.3c0.1-0.1,0.3-0.2,0.4-0.2c0.3,0,0.6,0,1,0c0,1.3,0,2.6,0,3.9c-0.4,0-0.8,0.1-1.2,0.1
		c-0.1,0-0.2-0.1-0.2-0.2c-0.4-1.4-1.2-2.1-2.6-2.3c-0.7-0.1-1.4,0-2.1,0.1c-0.3,0-0.6,0.3-0.7,0.5c-0.4,0.5-0.2,1.2,0.4,1.4
		c0.7,0.3,1.4,0.4,2.1,0.6c0.8,0.2,1.7,0.3,2.5,0.6c1.8,0.5,2.7,1.7,2.6,3.5c0,1.8-1.1,3-2.8,3.4c-1.6,0.4-3.1,0.3-4.6-0.4
		C34.9,39.3,34.9,39.3,34.3,40z M36.1,49.2c-0.9,0-1.4-0.5-1.4-1.1c0-0.5,0.3-0.8,0.7-1v0c-0.4-0.2-0.6-0.5-0.6-0.9
		c0-0.6,0.6-1.1,1.3-1.1c0.8,0,1.2,0.5,1.2,1c0,0.3-0.2,0.7-0.6,0.9v0c0.4,0.2,0.7,0.5,0.7,1C37.5,48.7,36.9,49.2,36.1,49.2z
		 M39,49.2c-0.4,0-0.8-0.1-1-0.2l0.1-0.6c0.2,0.1,0.5,0.2,0.9,0.2c0.4,0,0.8-0.2,0.8-0.7c0-0.4-0.3-0.7-1.1-0.7c-0.2,0-0.4,0-0.5,0
		l0.3-2h2v0.6h-1.5l-0.1,0.8c0.1,0,0.2,0,0.3,0c0.3,0,0.7,0.1,0.9,0.3c0.3,0.2,0.5,0.5,0.5,1C40.5,48.6,39.9,49.2,39,49.2z
		 M41.7,49.2c-0.3,0-0.5-0.2-0.5-0.5c0-0.3,0.2-0.5,0.5-0.5c0.3,0,0.4,0.2,0.5,0.5C42.1,49,41.9,49.2,41.7,49.2z M41.7,47.2
		c-0.3,0-0.5-0.2-0.5-0.5c0-0.3,0.2-0.5,0.5-0.5c0.3,0,0.4,0.2,0.5,0.5C42.1,47,41.9,47.2,41.7,47.2z M45.2,49.1h-2.6v-0.5l0.5-0.4
		c0.9-0.9,1.3-1.3,1.4-1.8c0-0.3-0.2-0.7-0.7-0.7c-0.3,0-0.6,0.2-0.8,0.3l-0.2-0.5c0.3-0.2,0.7-0.4,1.2-0.4c0.9,0,1.3,0.5,1.3,1.2
		c0,0.7-0.5,1.2-1.2,1.9l-0.3,0.3v0h1.6V49.1z M47.1,49.2c-0.9,0-1.4-0.8-1.4-2c0-1.2,0.5-2,1.4-2c0.9,0,1.4,0.8,1.4,2
		C48.5,48.4,48.1,49.2,47.1,49.2z M50.9,49.1h-0.7v-3.2h0l-0.7,0.4l-0.1-0.6l0.9-0.5h0.6V49.1z M54.2,49h-2.6v-0.4l0.5-0.4
		c0.9-0.8,1.3-1.3,1.3-1.8c0-0.3-0.2-0.6-0.7-0.6c-0.3,0-0.6,0.2-0.8,0.3l-0.2-0.5c0.3-0.2,0.7-0.4,1.2-0.4c0.8,0,1.3,0.5,1.3,1.2
		c0,0.7-0.5,1.2-1.1,1.8l-0.3,0.3v0h1.6V49z M55.4,37.1c-0.7,1.8-2.1,2.7-3.9,3c-1.4,0.2-2.7,0.2-4-0.2c-1.6-0.5-2.6-1.7-3-3.3
		C44,35.1,44,33.5,44.4,32c0.6-2.1,2.1-3.2,4.2-3.5c1.1-0.2,2.2-0.2,3.4,0.1c2,0.4,3.3,1.8,3.7,3.9c0.1,0.6,0.1,1.3,0.2,1.9
		C55.9,35.3,55.7,36.2,55.4,37.1z"/>
</g>
</svg>
