<?xml version="1.0" encoding="utf-8"?>
<!-- Generator: Adobe Illustrator 21.1.0, SVG Export Plug-In . SVG Version: 6.00 Build 0)  -->
<svg version="1.1" id="Layer_3" xmlns="http://www.w3.org/2000/svg" xmlns:xlink="http://www.w3.org/1999/xlink" x="0px" y="0px"
	 viewBox="0 0 80 80" style="enable-background:new 0 0 80 80;" xml:space="preserve">
<style type="text/css">
	.st0{display:none;fill:#6D6D6D;}
	.st1{display:none;fill:#434343;}
	.st2{fill:#F3F3F3;}
	.st3{clip-path:url(#SVGID_2_);}
	.st4{fill:#FFFFFF;}
	.st5{fill:none;}
	.st6{clip-path:url(#SVGID_4_);}
	.st7{clip-path:url(#SVGID_6_);fill:#1D1D1B;}
	.st8{clip-path:url(#SVGID_6_);fill:none;stroke:#1D1D1B;stroke-width:0.355;}
	.st9{clip-path:url(#SVGID_6_);fill:#0072BB;}
	.st10{clip-path:url(#SVGID_8_);}
	.st11{clip-path:url(#SVGID_10_);fill:#1D1D1B;}
	.st12{clip-path:url(#SVGID_10_);fill:none;stroke:#1D1D1B;stroke-width:0.355;}
	.st13{clip-path:url(#SVGID_10_);fill:#0072BB;}
	.st14{clip-path:url(#SVGID_12_);fill:#F3F3F3;}
	.st15{clip-path:url(#SVGID_12_);fill:none;stroke:#F3F3F3;stroke-width:0.355;}
</style>
<rect x="1.6" y="1.5" class="st0" width="76.6" height="76.6"/>
<path class="st2" d="M40.1,3.8C20.1,3.8,3.8,20,3.8,40c0,20,16.2,36.2,36.1,36.2c20,0,36.3-16.2,36.3-36.2
	C76.2,20.1,60,3.8,40.1,3.8z M40,74.5C20.8,74.5,5.4,59,5.5,39.9c0-19,15.6-34.4,34.7-34.4c19,0,34.4,15.5,34.3,34.6
	C74.5,59.1,59.1,74.5,40,74.5z"/>
<path class="st2" d="M16.5,40C16.5,53,27,63.5,40,63.6c12.9,0,23.5-10.5,23.5-23.5C63.5,27.2,53,16.6,40,16.6
	C27.1,16.5,16.6,27,16.5,40z M40,17.2c12.6,0,22.8,10.2,22.8,22.8c0,12.6-10.2,22.7-22.8,22.7c-12.6,0-22.8-10.2-22.8-22.8
	C17.2,27.4,27.4,17.2,40,17.2z"/>
<path class="st2" d="M37.1,65.4c-0.5-0.1-0.9-0.2-1.4-0.4c-0.2-0.1-0.4,0-0.5,0.2c-0.7,1.2-1.4,2.4-2.1,3.6
	c-0.1,0.1-0.1,0.2-0.3,0.4c0-0.2,0-0.3,0-0.4c0-1.4-0.1-2.8-0.1-4.2c0-0.2,0-0.4-0.2-0.4c-0.6-0.1-1.2-0.3-1.8-0.4
	c-0.7,2.2-1.4,4.4-2.1,6.6c0.5,0.1,0.9,0.2,1.4,0.3c0.5-1.7,1-3.4,1.5-5.1c0,0,0.1,0,0.1,0c0,1.8,0,3.6,0,5.4
	c0.3,0.1,0.6,0.1,0.9,0.2c0.2,0.1,0.3,0,0.4-0.2c0.8-1.4,1.6-2.8,2.5-4.2c0.1-0.1,0.1-0.2,0.2-0.3c0,0,0,0,0.1,0
	c-0.4,1.7-0.7,3.5-1.1,5.3c0.5,0.1,1,0.2,1.4,0.3c0,0,0-0.1,0-0.1c0.4-2.1,0.8-4.3,1.2-6.4C37.3,65.6,37.2,65.4,37.1,65.4z"/>
<path class="st2" d="M54.7,60.7c0.9,1.4,1.8,2.7,2.6,4c-0.1,0-0.1,0-0.1-0.1c-1.4-0.8-2.9-1.7-4.3-2.5c-0.1-0.1-0.3-0.1-0.4-0.1
	c-0.5,0.3-0.9,0.6-1.4,0.9c1.2,2,2.4,3.9,3.6,5.8c0.4-0.3,0.8-0.5,1.2-0.7c-0.9-1.4-1.8-2.8-2.7-4.3c0.2,0.1,0.2,0.1,0.3,0.1
	c1.5,0.9,3,1.7,4.5,2.6c0.1,0.1,0.3,0.1,0.3,0.1c0.4-0.2,0.8-0.5,1.3-0.8c-1.2-2-2.4-3.9-3.6-5.8C55.5,60.2,55.1,60.5,54.7,60.7z"/>
<path class="st2" d="M58.8,23c1.9,1.1,4.4,0.1,5-2c0.1-0.4,0.1-0.9,0-1.3c-0.4-1.6-1.6-2.5-2.8-3.5c-1.6,1.5-3.1,3-4.6,4.5
	C57.1,21.5,57.9,22.4,58.8,23z M61.3,18c0.8,0.4,1.3,1.4,1.2,2.1c-0.1,0.9-1.1,1.8-2,2c-0.8,0.2-1.7-0.3-2.3-1.2
	C59.2,19.9,60.3,19,61.3,18z"/>
<path class="st2" d="M24.9,60.9c-0.2,0-0.4,0-0.6,0.1c-1.5,0.4-2.4,1.5-2.8,2.9c-0.3,1.2-0.1,2.2,0.8,3.1c0.9,0.9,2,1.2,3.3,0.9
	c1.2-0.4,1.9-1.3,2.4-2.4C28.9,63.2,27.3,60.9,24.9,60.9z M26.7,64.2c-0.2,1-0.7,1.8-1.6,2.3c-0.2,0.1-0.5,0.2-0.7,0.2
	c-0.9,0-1.7-0.9-1.5-1.8c0.1-0.9,0.6-1.6,1.3-2.2c0.6-0.5,1.3-0.6,1.9-0.3C26.6,62.7,26.8,63.4,26.7,64.2z"/>
<path class="st2" d="M28.9,17c0,0.1,0.1,0.2,0.2,0.4c0.5-0.2,0.9-0.3,1.4-0.5c-0.3-0.9-0.6-1.7-0.9-2.5c0.8-0.5,1.3-0.4,1.9,0.4
	c0.3,0.4,0.6,0.8,0.9,1.2c0.1,0.1,0.2,0.2,0.3,0.2c0.4-0.1,0.9-0.3,1.3-0.5c-0.4-0.6-0.8-1.1-1.2-1.6c-0.3-0.4-0.7-0.8-1.3-0.9
	c0.1-0.1,0.1-0.2,0.2-0.2c0.6-0.7,0.6-1.5,0.2-2.2c-0.4-0.7-1.1-1-2-0.8c-0.9,0.3-1.8,0.6-2.7,1c-0.3,0.1-0.4,0.3-0.2,0.6
	C27.5,13.3,28.2,15.1,28.9,17z M30.2,11.2c0.3,0.2,0.5,0.6,0.5,1c-0.2,0.8-0.8,0.9-1.5,1.2c-0.2-0.6-0.5-1.2-0.7-1.8
	C29,11.2,29.5,10.8,30.2,11.2z"/>
<path class="st2" d="M48.1,64.3c-0.1-0.1-0.3-0.1-0.4-0.1c-0.4,0.1-0.9,0.3-1.3,0.4C46.1,64.6,46,64.7,46,65c0,2.2-0.1,4.4-0.1,6.6
	c0,0.1,0,0.1,0,0.2c0.4-0.1,0.8-0.2,1.2-0.3c0.2,0,0.3-0.2,0.3-0.3c0-0.4,0-0.8,0-1.3c0-0.2,0.1-0.3,0.3-0.4
	c0.5-0.1,0.9-0.3,1.4-0.4c0.2-0.1,0.3,0,0.4,0.2c0.2,0.4,0.5,0.7,0.7,1.1c0.1,0.1,0.2,0.2,0.3,0.2c0.4-0.1,0.9-0.2,1.3-0.4
	c0-0.1,0-0.1,0-0.1C50.6,68.1,49.4,66.2,48.1,64.3z M47.3,68.4c0-1,0-1.9,0-2.9c0.5,0.8,1,1.6,1.5,2.4
	C48.3,68.1,47.9,68.2,47.3,68.4z"/>
<path class="st2" d="M28.1,18c-0.2-0.4-0.5-0.7-0.7-1c-0.8,0.5-1.6,1-2.4,1.6c-0.3-0.5-0.6-0.9-0.9-1.4c0.7-0.5,1.4-1,2.1-1.4
	c-0.2-0.4-0.5-0.7-0.7-1c-0.7,0.5-1.4,0.9-2.1,1.4c-0.3-0.4-0.6-0.8-0.8-1.2c0.8-0.5,1.5-1,2.2-1.5c-0.2-0.4-0.5-0.7-0.7-1
	c-1.2,0.8-2.3,1.6-3.5,2.4c1.3,1.9,2.5,3.8,3.8,5.7C25.7,19.6,26.9,18.8,28.1,18z"/>
<path class="st2" d="M55.5,20.1c0.2-0.3,0.4-0.7,0.6-1c-0.8-0.5-1.5-0.9-2.3-1.4c0.3-0.5,0.6-0.9,0.8-1.4c0.7,0.4,1.4,0.8,2.1,1.3
	c0.2-0.3,0.4-0.7,0.6-1c-0.7-0.4-1.3-0.8-2.1-1.3c0.3-0.4,0.5-0.8,0.7-1.2c0.7,0.5,1.5,0.9,2.2,1.3c0.2-0.4,0.4-0.7,0.6-1
	c-1.2-0.7-2.3-1.4-3.4-2.1c-1.1,1.9-2.3,3.7-3.4,5.6C53.2,18.6,54.3,19.3,55.5,20.1z"/>
<path class="st2" d="M42.6,65.4c-1.2-0.3-2.3-0.1-3.5,0.1c0.1,2.3,0.2,4.5,0.4,6.8c0.5,0,1-0.1,1.5-0.1c0-0.8-0.1-1.6-0.1-2.5
	c0.3,0,0.5,0,0.7,0c0.6-0.1,1.1-0.2,1.6-0.5c0.8-0.4,1-1.2,0.9-2.1C44,66.3,43.5,65.6,42.6,65.4z M41.6,68.6c-0.1,0-0.2,0-0.2,0
	c-0.6,0-0.6,0-0.6-0.6c0-0.4,0-0.7-0.1-1.1c-0.1-0.4,0.1-0.5,0.5-0.5c0.1,0,0.2,0,0.2,0c0.7,0,1.2,0.3,1.2,0.9
	C42.7,68,42.3,68.4,41.6,68.6z"/>
<path class="st2" d="M22.3,60.1c0.4-0.2,0.7-0.4,1.1-0.6c-0.3-0.4-0.5-0.9-0.8-1.2c-1.5-1.7-3.6-2-5.3-0.6c-1.4,1.2-1.7,3-0.7,4.5
	c0.4,0.6,0.9,1,1.5,1.5c0.4,0.3,0.4,0.3,0.7-0.1c0.1-0.2,0.3-0.4,0.4-0.6c-1-0.7-1.9-1.4-1.6-2.8c0.2-1,1-1.7,2-1.9
	C21,58,21.7,59,22.3,60.1z"/>
<path class="st2" d="M18.4,23.3c0.5,0.3,1.1,0.4,1.7,0.4c1.6-0.3,2.6-1.4,3.3-2.8c-0.4-0.2-0.7-0.4-1-0.6c-0.6,1-1.2,1.9-2.5,1.8
	c-1-0.1-1.8-0.7-2.1-1.7c-0.5-1.5,0.5-2.3,1.6-3c-0.2-0.3-0.4-0.7-0.7-1c-1,0.6-1.8,1.3-2.2,2.4c-0.2,0.4-0.3,0.9-0.2,1.3
	C16.3,21.6,17.1,22.6,18.4,23.3z"/>
<path class="st2" d="M45.4,12.8c0.8,0.2,1.6,0.3,2.4,0.5c0.1-0.4,0.2-0.8,0.2-1.2c-0.8-0.2-1.6-0.4-2.4-0.5c0.1-0.5,0.2-1,0.3-1.6
	c0.9,0.2,1.7,0.4,2.6,0.5c0.1-0.4,0.2-0.8,0.3-1.2c-1.4-0.3-2.7-0.6-4.1-0.9c-0.5,2.3-1,4.5-1.4,6.7c0.5,0.1,1,0.2,1.5,0.3
	C45,14.6,45.2,13.7,45.4,12.8z"/>
<path class="st2" d="M61.8,59.3c-0.4-1.1-0.7-2.3-1.1-3.4c-0.1-0.2-0.1-0.4-0.2-0.7c-0.3,0.4-0.6,0.7-1,1c-0.2,0.2-0.2,0.3-0.1,0.5
	c0.3,0.5,0.5,1.1,0.7,1.6c0.1,0.3,0.3,0.7,0.5,1.1c-0.2-0.1-0.3-0.1-0.4-0.2c-0.8-0.3-1.6-0.6-2.3-0.9c-0.1,0-0.3,0-0.4,0
	c-0.4,0.4-0.7,0.7-1.1,1.1c1.1,0.3,2.2,0.6,3.3,0.9c0.8,0.2,1.5,0.5,2,1.1c0.4,0.4,0.8,0.7,1.2,1.1c0.4-0.4,0.7-0.7,1-1.1
	c-0.6-0.6-1.3-1.2-1.9-1.8C62,59.7,61.9,59.5,61.8,59.3z"/>
<path class="st2" d="M35.5,9.7c0.2,1.9,0.5,3.7,0.7,5.5c0.5-0.1,1-0.1,1.5-0.2c-0.2-1.9-0.5-3.7-0.7-5.5c0.6-0.1,1.2-0.2,1.9-0.3
	c-0.1-0.4-0.1-0.8-0.1-1.2c-1.8,0.2-3.5,0.4-5.2,0.6c0.1,0.4,0.1,0.8,0.2,1.2C34.3,9.9,34.9,9.8,35.5,9.7z"/>
<path class="st2" d="M50,17.1c0.9-2.1,1.7-4.3,2.5-6.4c-0.5-0.2-0.9-0.4-1.4-0.6c-0.9,2.1-1.7,4.2-2.5,6.4
	C49.1,16.7,49.5,16.9,50,17.1z"/>
<path class="st2" d="M42.3,8.2c-0.5,0-1-0.1-1.5-0.1c-0.1,2.3-0.2,4.6-0.3,6.9c0.5,0,1,0,1.5,0.1C42.1,12.7,42.2,10.5,42.3,8.2z"/>
<path class="st2" d="M49.6,39.5c1.6,0.1,2.5-0.4,2.9-2c0.2-0.7,0.2-1.4,0.3-2.1c-0.1-0.8-0.1-1.5-0.2-2.1c0-0.3-0.2-0.6-0.3-1
	c-0.2-0.5-0.5-0.9-1-1.1c-1.6-0.7-3.4,0.1-3.8,1.7c-0.4,1.7-0.3,3.3,0.1,5C47.9,38.9,48.6,39.5,49.6,39.5z"/>
<g>
	<g>
		<defs>
			<rect id="SVGID_1_" x="-75.9" y="43.1" width="31.3" height="6.1"/>
		</defs>
		<clipPath id="SVGID_2_">
			<use xlink:href="#SVGID_1_"  style="overflow:visible;"/>
		</clipPath>
		<g class="st3">
			<path class="st4" d="M26.1,45.1L26.1,45.1l-0.7,0.4l-0.1-0.6l0.9-0.5h0.6v3.9h-0.7V45.1z"/>
			<path class="st4" d="M28.3,47.6c0.1,0.1,0.5,0.2,0.9,0.2c0.6,0,0.8-0.3,0.8-0.6c0-0.5-0.4-0.7-0.9-0.7h-0.3V46h0.3
				c0.3,0,0.8-0.2,0.8-0.5c0-0.3-0.2-0.5-0.6-0.5c-0.3,0-0.6,0.1-0.8,0.2l-0.2-0.5c0.2-0.2,0.7-0.3,1.1-0.3c0.8,0,1.2,0.4,1.2,1
				c0,0.4-0.2,0.7-0.7,0.9v0c0.5,0.1,0.9,0.4,0.9,1c0,0.7-0.6,1.2-1.5,1.2c-0.5,0-0.9-0.1-1.1-0.3L28.3,47.6z"/>
			<path class="st4" d="M33,48.3v-1h-1.8v-0.5l1.6-2.4h0.9v2.4h0.5v0.6h-0.5v1H33z M33,46.8v-1.1c0-0.2,0-0.4,0-0.7h0
				c-0.1,0.2-0.2,0.4-0.3,0.7l-0.7,1.1l0,0H33z"/>
			<path class="st4" d="M34.5,47.3c0-0.5,0.3-0.8,0.7-1v0c-0.4-0.2-0.6-0.5-0.6-0.9c0-0.6,0.6-1.1,1.3-1.1c0.8,0,1.2,0.5,1.2,1
				c0,0.3-0.2,0.7-0.6,0.9v0c0.4,0.2,0.7,0.5,0.7,1c0,0.7-0.6,1.2-1.4,1.2C35,48.4,34.5,47.9,34.5,47.3z M36.6,47.3
				c0-0.4-0.3-0.6-0.7-0.7c-0.4,0.1-0.6,0.4-0.6,0.7c0,0.3,0.2,0.6,0.7,0.6C36.3,47.9,36.6,47.6,36.6,47.3z M35.4,45.4
				c0,0.3,0.3,0.5,0.6,0.6c0.3-0.1,0.5-0.3,0.5-0.6c0-0.3-0.2-0.6-0.6-0.6C35.6,44.9,35.4,45.1,35.4,45.4z"/>
			<path class="st4" d="M40.3,45h-1.5l-0.1,0.8c0.1,0,0.2,0,0.3,0c0.3,0,0.7,0.1,0.9,0.3c0.3,0.2,0.5,0.5,0.5,1
				c0,0.7-0.6,1.3-1.6,1.3c-0.4,0-0.8-0.1-1-0.2l0.1-0.6c0.2,0.1,0.5,0.2,0.9,0.2c0.4,0,0.8-0.2,0.8-0.7c0-0.4-0.3-0.7-1.1-0.7
				c-0.2,0-0.4,0-0.5,0l0.3-2h2V45z"/>
			<path class="st4" d="M41.1,45.9c0-0.3,0.2-0.5,0.5-0.5c0.3,0,0.4,0.2,0.5,0.5c0,0.3-0.2,0.5-0.5,0.5
				C41.3,46.4,41.1,46.2,41.1,45.9z M41.1,47.9c0-0.3,0.2-0.5,0.5-0.5c0.3,0,0.4,0.2,0.5,0.5c0,0.3-0.2,0.5-0.5,0.5
				C41.3,48.4,41.1,48.2,41.1,47.9z"/>
			<path class="st4" d="M42.4,48.3v-0.4l0.5-0.4c0.9-0.9,1.3-1.3,1.4-1.8c0-0.3-0.2-0.7-0.7-0.7c-0.3,0-0.6,0.2-0.8,0.3l-0.2-0.5
				c0.3-0.2,0.7-0.4,1.2-0.4c0.9,0,1.3,0.5,1.3,1.2c0,0.7-0.5,1.2-1.2,1.9l-0.3,0.3v0h1.6v0.6H42.4z"/>
			<path class="st4" d="M48.4,46.4c0,1.3-0.5,2-1.4,2c-0.9,0-1.4-0.8-1.4-2c0-1.2,0.5-2,1.4-2C48,44.4,48.4,45.2,48.4,46.4z
				 M46.3,46.4c0,0.9,0.3,1.4,0.7,1.4c0.4,0,0.7-0.5,0.7-1.5c0-0.9-0.2-1.4-0.7-1.4C46.6,44.9,46.3,45.4,46.3,46.4z"/>
			<path class="st4" d="M50,45.1L50,45.1l-0.7,0.4l-0.1-0.6l0.9-0.5h0.6v3.9H50V45.1z"/>
			<path class="st4" d="M54.5,45c-0.1,0-0.2,0-0.4,0c-0.8,0.1-1.2,0.6-1.3,1.1h0c0.2-0.2,0.5-0.4,0.9-0.4c0.7,0,1.2,0.5,1.2,1.3
				c0,0.7-0.5,1.4-1.4,1.4c-0.9,0-1.5-0.7-1.5-1.7c0-0.7,0.3-1.4,0.7-1.8c0.4-0.3,0.8-0.5,1.4-0.6c0.2,0,0.3,0,0.4,0L54.5,45z
				 M54.1,47.1c0-0.4-0.2-0.8-0.7-0.8c-0.3,0-0.5,0.2-0.6,0.4c0,0.1,0,0.1,0,0.2c0,0.5,0.3,0.9,0.7,0.9
				C53.9,47.8,54.1,47.5,54.1,47.1z"/>
		</g>
	</g>
</g>
<g>
	<path class="st2" d="M34.5,46.2c-0.4,0-0.7,0.5-0.7,1.5c0,0.9,0.3,1.4,0.7,1.4c0.4,0,0.7-0.5,0.7-1.5
		C35.1,46.8,34.9,46.2,34.5,46.2z"/>
	<path class="st2" d="M28,46.2c-0.4,0-0.6,0.3-0.6,0.8c0,0.4,0.2,0.7,0.6,0.7c0.3,0,0.5-0.1,0.6-0.3c0,0,0-0.1,0-0.2
		C28.7,46.7,28.5,46.2,28,46.2z"/>
	<path class="st2" d="M31.3,46.2c-0.4,0-0.7,0.5-0.7,1.5c0,0.9,0.3,1.4,0.7,1.4c0.4,0,0.7-0.5,0.7-1.5
		C31.9,46.8,31.7,46.2,31.3,46.2z"/>
	<path class="st2" d="M45.5,46.2c-0.4,0-0.7,0.5-0.7,1.5c0,0.9,0.3,1.4,0.7,1.4c0.4,0,0.7-0.5,0.7-1.5C46.2,46.8,46,46.2,45.5,46.2z
		"/>
	<path class="st2" d="M51.9,47.9c-0.4,0.1-0.6,0.4-0.6,0.7c0,0.3,0.2,0.6,0.7,0.6c0.4,0,0.6-0.2,0.6-0.6
		C52.6,48.2,52.3,48,51.9,47.9z"/>
	<path class="st2" d="M39.6,18.2c-12,0.2-21.6,10.1-21.4,22.2c0.3,12,10.1,21.6,22.2,21.4c12-0.2,21.6-10,21.4-22.2
		C61.7,27.6,51.8,18,39.6,18.2z M25.7,39.8c0.2,0,0.4-0.1,0.6-0.1c0.5-0.1,0.7-0.3,0.7-0.8c0-2.4,0-4.7,0-7.1c0-0.5-0.2-0.7-0.7-0.8
		c-0.2,0-0.4-0.1-0.6-0.1c0-0.4,0-0.8,0-1.2c2,0,3.9,0,5.9,0c0,0.4,0,0.8,0,1.2c-0.2,0-0.4,0.1-0.7,0.1c-0.5,0.1-0.7,0.3-0.7,0.8
		c0,2.3,0,4.7,0,7c0,0.6,0.2,0.8,0.8,0.9c0.2,0,0.4,0.1,0.6,0.1c0,0.4,0,0.8,0,1.2c-2,0-3.9,0-5.9,0C25.7,40.6,25.7,40.2,25.7,39.8z
		 M28.8,49.1c-0.3,0.3-0.8,0.5-1.3,0.5c-0.2,0-0.3,0-0.4,0v-0.6c0.1,0,0.2,0,0.4,0c0.3,0,0.6-0.1,0.8-0.3c0.3-0.2,0.4-0.5,0.5-0.9
		l0,0c-0.2,0.2-0.5,0.3-0.9,0.3c-0.7,0-1.2-0.5-1.2-1.2c0-0.7,0.6-1.4,1.4-1.4c0.9,0,1.4,0.7,1.4,1.7C29.4,48.2,29.2,48.7,28.8,49.1
		z M31.2,49.7c-0.9,0-1.4-0.8-1.4-2c0-1.2,0.5-2,1.4-2c0.9,0,1.4,0.8,1.4,2C32.7,48.9,32.2,49.7,31.2,49.7z M34.4,49.7
		c-0.9,0-1.4-0.8-1.4-2c0-1.2,0.5-2,1.4-2c0.9,0,1.4,0.8,1.4,2C35.9,48.9,35.4,49.7,34.4,49.7z M38.2,49.6h-0.7v-3.2h0l-0.7,0.4
		l-0.1-0.6l0.9-0.5h0.6V49.6z M35.6,40.7c-0.7-0.4-0.7-0.3-1.3,0.3c0,0.1-0.1,0.1-0.2,0.1c-0.1,0-0.2,0-0.2,0c-0.3,0-0.7,0-1,0
		c0-0.1,0-0.2,0-0.3c0-1.2,0-2.3,0-3.5c0-0.3,0.1-0.4,0.3-0.4c0.3,0,0.6-0.1,0.9-0.1c0.1,0,0.2,0.1,0.2,0.2c0.2,1.5,1.4,2.3,2.9,2.5
		c0.7,0.1,1.5,0,2.2-0.1c0.3,0,0.5-0.2,0.7-0.4c0.7-0.6,0.5-1.7-0.3-1.9c-0.8-0.3-1.6-0.4-2.4-0.6c-0.8-0.2-1.5-0.3-2.3-0.6
		c-1.7-0.6-2.4-1.7-2.3-3.5c0.1-1.9,1.4-3.1,3.4-3.2c1.3-0.1,2.6,0.1,3.7,0.7c0.5,0.2,0.7,0.1,1.1-0.3c0.1-0.1,0.3-0.2,0.4-0.2
		c0.3,0,0.6,0,1,0c0,1.3,0,2.6,0,3.9c-0.4,0-0.8,0.1-1.2,0.1c-0.1,0-0.2-0.1-0.2-0.2c-0.4-1.4-1.2-2.1-2.6-2.3
		c-0.7-0.1-1.4,0-2.1,0.1c-0.3,0-0.6,0.3-0.7,0.5c-0.4,0.5-0.2,1.2,0.4,1.4c0.7,0.3,1.4,0.4,2.1,0.6c0.8,0.2,1.7,0.3,2.5,0.6
		c1.8,0.5,2.7,1.7,2.6,3.5c0,1.8-1.1,3-2.8,3.4C38.6,41.5,37.1,41.4,35.6,40.7z M40.1,49.7c-0.3,0-0.5-0.2-0.5-0.5
		c0-0.3,0.2-0.5,0.5-0.5c0.3,0,0.4,0.2,0.5,0.5C40.5,49.5,40.3,49.7,40.1,49.7z M40.1,47.7c-0.3,0-0.5-0.2-0.5-0.5
		c0-0.3,0.2-0.5,0.5-0.5c0.3,0,0.4,0.2,0.5,0.5C40.5,47.5,40.3,47.7,40.1,47.7z M43.6,49.6H41v-0.4l0.5-0.4c0.9-0.9,1.3-1.3,1.4-1.8
		c0-0.3-0.2-0.7-0.7-0.7c-0.3,0-0.6,0.2-0.8,0.3L41,46.1c0.3-0.2,0.7-0.4,1.2-0.4c0.9,0,1.3,0.5,1.3,1.2c0,0.7-0.5,1.2-1.2,1.9
		L42,49v0h1.6V49.6z M45.5,49.7c-0.9,0-1.4-0.8-1.4-2c0-1.2,0.5-2,1.4-2c0.9,0,1.4,0.8,1.4,2C46.9,48.9,46.4,49.7,45.5,49.7z
		 M48.7,49.7c-0.9,0-1.4-0.8-1.4-2c0-1.2,0.5-2,1.4-2c0.9,0,1.4,0.8,1.4,2C50.1,48.9,49.7,49.7,48.7,49.7z M51.9,49.7
		c-0.9,0-1.4-0.5-1.4-1.1c0-0.5,0.3-0.8,0.7-1v0c-0.4-0.2-0.6-0.5-0.6-0.9c0-0.6,0.6-1.1,1.3-1.1c0.8,0,1.2,0.5,1.2,1
		c0,0.3-0.2,0.7-0.6,0.9v0c0.4,0.2,0.7,0.5,0.7,1C53.4,49.2,52.8,49.7,51.9,49.7z M55.4,38.1c-0.7,1.8-2.1,2.7-3.9,3
		c-1.4,0.2-2.7,0.2-4-0.2c-1.6-0.5-2.6-1.7-3-3.3C44,36.1,44,34.5,44.4,33c0.6-2.1,2.1-3.2,4.2-3.5c1.1-0.2,2.2-0.2,3.4,0.1
		c2,0.4,3.3,1.8,3.7,3.9c0.1,0.6,0.1,1.3,0.2,1.9C55.9,36.3,55.7,37.2,55.4,38.1z"/>
	<path class="st2" d="M52,47.3c0.3-0.1,0.5-0.3,0.5-0.6c0-0.3-0.2-0.6-0.6-0.6c-0.4,0-0.6,0.2-0.6,0.5C51.4,47,51.7,47.2,52,47.3z"
		/>
	<path class="st2" d="M48.8,46.2c-0.4,0-0.7,0.5-0.7,1.5c0,0.9,0.3,1.4,0.7,1.4c0.4,0,0.7-0.5,0.7-1.5
		C49.4,46.8,49.2,46.2,48.8,46.2z"/>
</g>
<g>
	<defs>
		<rect id="SVGID_3_" x="-160.9" y="-383" width="595.3" height="841.9"/>
	</defs>
	<clipPath id="SVGID_4_">
		<use xlink:href="#SVGID_3_"  style="overflow:visible;"/>
	</clipPath>
</g>
<g>
	<defs>
		<rect id="SVGID_7_" x="-160.9" y="-383" width="595.3" height="841.9"/>
	</defs>
	<clipPath id="SVGID_6_">
		<use xlink:href="#SVGID_7_"  style="overflow:visible;"/>
	</clipPath>
</g>
</svg>
